<?xml version="1.0" standalone="no"?>
<!DOCTYPE svg PUBLIC "-//W3C//DTD SVG 1.1//EN" "http://www.w3.org/Graphics/SVG/1.1/DTD/svg11.dtd" >
<svg>
<metadata>
Created by FontForge 20090914 at Thu Feb 18 20:26:40 2021
 By www-data
Copyright &#194;&#169; 1995 ParaGraph Intl., &#194;&#169; 1998 ParaType Inc., ParaType Ltd. All rights reserved.
</metadata>
<defs>
<font id="FuturaPT-BookObl" horiz-adv-x="500" >
  <font-face 
    font-family="Futura PT Book Italic"
    font-weight="400"
    font-style="italic"
    font-stretch="normal"
    units-per-em="1000"
    panose-1="2 11 5 2 2 2 4 9 3 3"
    ascent="763"
    descent="-237"
    x-height="415"
    cap-height="667"
    bbox="-305 -250 1091 926"
    underline-thickness="50"
    underline-position="-150"
    slope="-7"
    unicode-range="U+0020-U+FB02"
  />
<missing-glyph horiz-adv-x="233" 
 />
    <glyph glyph-name="afii10017.var.accented" unicode="&#x410;`" horiz-adv-x="622" 
d="M534 0l-55 188h-284l-103 -188h-84l393 699l213 -699h-80zM233 258h226l-80 267zM501 882l65 -45l-168 -117l-39 32z" />
    <glyph glyph-name="afii10022.var.accented" unicode="&#x415;`" horiz-adv-x="482" 
d="M514 667l-9 -70h-272l-24 -198h264l-9 -70h-264l-31 -259h272l-9 -70h-346l82 667h346zM431 882l65 -45l-168 -117l-39 32z" />
    <glyph glyph-name="afii10026.var.accented" unicode="&#x418;`" horiz-adv-x="710" 
d="M550 0l62 509l-530 -539l86 697h74l-63 -511l530 539l-85 -695h-74zM545 882l65 -45l-168 -117l-39 32z" />
    <glyph glyph-name="afii10032.var.accented" unicode="&#x41e;`" horiz-adv-x="800" 
d="M399 -12c-92 0 -166.001 28.999 -222.001 86.999c-57.333 58.667 -86 132.334 -86 221.001c0 112.667 38 205 114 277c72.667 70 164 105 274 105c92.667 0 167.334 -28 224.001 -84c58.667 -57.333 88 -130 88 -218c0 -53.333 -9.5 -105 -28.5 -155
s-46.833 -92.667 -83.5 -128c-72.667 -70 -166 -105 -280 -105zM470.999 607.999c-83.333 0 -153.667 -26.334 -211 -79.001c-61.333 -57.333 -92 -130.333 -92 -219c0 -75.333 23 -136.666 69 -183.999c44 -45.333 100.667 -68 170 -68c89.333 0 161.333 26.667 216 80
c28.667 28 51 62.167 67 102.5s24 80.833 24 121.5c0 72 -23.333 131.333 -70 178c-45.333 45.333 -103 68 -173 68zM589.998 881.998l65 -45l-168 -117l-39 32z" />
    <glyph glyph-name="afii10037.var.accented" unicode="&#x423;`" horiz-adv-x="568" 
d="M90 667h85l160 -393l222 393h85l-383 -667h-80l108 186zM474 882l65 -45l-168 -117l-39 32z" />
    <glyph glyph-name="afii10045.var.accented" unicode="&#x42b;`" horiz-adv-x="710" 
d="M632 667h74l-82 -667h-74zM86 0l81 667h75l-34 -277h74c83.333 0 143.333 -18.667 180 -56c30 -30 45 -69.667 45 -119c0 -66.667 -20.333 -119 -61 -157c-41.333 -38.667 -106 -58 -194 -58h-166zM199 320l-30 -250h86c62 0 106.333 11.333 133 34
c28 23.333 42 57.333 42 102c0 43.333 -15 74.333 -45 93c-20 14 -56.667 21 -110 21h-76zM545 882l65 -45l-168 -117l-39 32z" />
    <glyph glyph-name="afii10047.var.accented" unicode="&#x42d;`" horiz-adv-x="649" 
d="M114 520l11.002 91.999c31.333 18.667 61.333 33.334 90 44.001c39.333 14.667 80.666 22 123.999 22c89.333 0 160.666 -25 213.999 -75c58 -53.333 87 -128 87 -224c0 -128.667 -37.333 -228.667 -112 -300c-63.333 -60.667 -146 -91 -248 -91
c-51.333 0 -98 7.66699 -140 23c-29.333 10 -57 24.667 -83 44l11 90c22.667 -24 50.667 -44 84 -60c38.667 -18 83 -27 133 -27c79.333 0 142.333 23 189 69c45.333 44.667 73 105.667 83 183h-389l9 70h386c0 70 -22.333 126.667 -67 170c-39.333 38.667 -93 58 -161 58
c-48 0 -93.667 -10.333 -137 -31c-32.667 -16 -60.667 -35 -84 -57zM444.002 881.999l65 -45l-168 -117l-39 32z" />
    <glyph glyph-name="afii10048.var.accented" unicode="&#x42e;`" horiz-adv-x="993" 
d="M208 389h100c15.333 68 46.666 127.667 93.999 179c68.667 73.333 157 110 265 110c96 0 173.333 -29.333 232 -88c56.667 -56.667 85 -131.667 85 -225c0 -112.667 -37.333 -205.667 -112 -279c-67.333 -65.333 -152.333 -98 -255 -98c-97.333 0 -175.333 31 -234 93
c-57.333 60.667 -85.666 140 -84.999 238h-99l-39 -319h-74l82 667h74zM659 608c-76.667 0 -141.666 -25.666 -194.999 -76.999c-26.667 -26 -48.334 -58.667 -65.001 -98s-25 -80.333 -25 -123c0 -72 23.333 -132.333 70 -181c45.333 -47.333 105.333 -71 180 -71
c77.333 0 141.666 24 192.999 72c26.667 24.667 48.334 57.167 65.001 97.5s25 83.833 25 130.5c0 68.667 -20.333 126 -61 172c-20.667 23.333 -47.5 42.166 -80.5 56.499s-68.5 21.5 -106.5 21.5zM686.001 882.001l65 -45l-168 -117l-39 32z" />
    <glyph glyph-name="afii10049.var.accented" unicode="&#x42f;`" horiz-adv-x="510" 
d="M30 0l231.997 297.001c-43.333 5.33301 -79.666 22 -108.999 50c-28 27.333 -42 65.333 -42 114c0 60 18 108.667 54 146c22.667 23.333 50.334 39.166 83.001 47.499s73.334 12.5 122.001 12.5h136l-82 -667h-74l36 292h-38l-226 -292h-92zM422.997 597.001h-72.001
c-61.333 0 -104.666 -13 -129.999 -39c-21.333 -22 -32 -51.333 -32 -88c0 -42 15 -72 45 -90c24 -14.667 56 -22 96 -22h64zM444.996 882.001l65 -45l-168 -117l-39 32z" />
    <glyph glyph-name="afii10023.var.accented" unicode="&#x401;`" horiz-adv-x="482" 
d="M514 667l-9 -70h-272l-24 -198h264l-9 -70h-264l-31 -259h272l-9 -70h-346l82 667h346zM382 882l54 -37l-142 -119l-33 26zM158 781c0 12.667 4.66699 24.667 14 36c10 12 23.333 18 40 18c11.333 0 21.333 -3.66699 30 -11s13 -17.333 13 -30
c0 -14.667 -5 -27.667 -15 -39s-22.667 -17 -38 -17c-13.333 0 -24.333 4.33301 -33 13c-7.33301 7.33301 -11 17.333 -11 30zM417 781c0 14 4.66797 26 14.001 36c10.667 12 24 18 40 18c13.333 0 23.666 -3.66699 30.999 -11c8 -6.66699 12 -16.667 12 -30
c0 -14.667 -5 -27.667 -15 -39s-22.667 -17 -38 -17c-13.333 0 -24 4.33301 -32 13c-8 8 -12 18 -12 30z" />
    <glyph glyph-name="afii10065.var.accented" unicode="&#x430;`" horiz-adv-x="528" 
d="M432 356l7.00195 59.001h72l-51 -415h-72l7 58c-16 -22 -33.333 -38.333 -52 -49c-24.667 -14 -53.334 -21 -86.001 -21c-57.333 0 -102.333 17 -135 51c-36 38 -54 87.333 -54 148c0 77.333 24 138.666 72 183.999c38 36 87.667 54 149 54c34 0 63.333 -6.66699 88 -20
c23.333 -12 41.666 -28.333 54.999 -49zM295.002 361.001c-39.333 0 -72.667 -13.001 -100 -39.001c-35.333 -33.333 -53 -76.666 -53 -129.999c0 -46 14.333 -82.333 43 -109c21.333 -20.667 49.333 -31 84 -31c43.333 0 77.666 13.667 102.999 41
c31.333 32.667 47 77.667 47 135c0 42.667 -13 76 -39 100c-23.333 22 -51.666 33 -84.999 33zM408.001 666l70 -34l-151 -135l-42 24z" />
    <glyph glyph-name="afii10070.var.accented" unicode="&#x435;`" horiz-adv-x="483" 
d="M395 139l61.001 -32.999c-22.667 -38 -48.334 -66.667 -77.001 -86c-32.667 -21.333 -72.667 -32 -120 -32c-58 0 -103.667 17.333 -137 52c-36.667 38 -55 87.667 -55 149c0 71.333 23.667 130.666 71 177.999c38.667 38.667 87 58 145 58
c57.333 0 102.333 -16.333 135 -49c40.667 -42 56.334 -103 47.001 -183h-323c-0.666992 -48 11.666 -84.667 36.999 -110c20.667 -20.667 48 -31 82 -31c31.333 0 58 7.66699 80 23c20.667 14.667 38.667 36 54 64zM154.001 253.001l241.998 0.000976562
c-1.33301 33.333 -13 60.666 -35 81.999c-18 17.333 -43.333 26 -76 26c-37.333 0 -67.666 -11.667 -90.999 -35c-19.333 -20 -32.666 -44.333 -39.999 -73zM384.999 666.002l70 -34l-151 -135l-42 24z" />
    <glyph glyph-name="afii10074.var.accented" unicode="&#x438;`" horiz-adv-x="492" 
d="M119 415h72l-34 -276l322 308l-55 -447h-72l34 279l-322 -308zM390 666l70 -34l-151 -135l-42 24z" />
    <glyph glyph-name="afii10080.var.accented" unicode="&#x43e;`" horiz-adv-x="528" 
d="M268 -12c-62.667 0 -111.999 18.999 -147.999 56.999c-35.333 38 -53 86.333 -53 145c0 68.667 25 126.334 75 173.001c45.333 41.333 100.666 62 165.999 62c63.333 0 114 -19 152 -57c34 -34 51 -79.333 51 -136c0 -74.667 -23.333 -134.667 -70 -180
c-43.333 -42.667 -101 -64 -173 -64zM307.001 360.999c-44 0 -81.667 -15.334 -113 -46.001c-35.333 -34 -53 -77.333 -53 -130c0 -37.333 12 -68.666 36 -93.999c24.667 -26 56.667 -39 96 -39c46 0 83.667 16 113 48c33.333 35.333 50 79 50 131
c0 37.333 -11.333 68 -34 92c-24 25.333 -55.667 38 -95 38zM408.001 665.998l70 -34l-151 -135l-42 24z" />
    <glyph glyph-name="afii10085.var.accented" unicode="&#x443;`" horiz-adv-x="460" 
d="M39 -230l165 269l-145 376h80l110 -297l172 297h82l-384 -645h-80zM374 666l70 -34l-151 -135l-42 24z" />
    <glyph glyph-name="afii10093.var.accented" unicode="&#x44b;`" horiz-adv-x="562" 
d="M422 0l51 415h72l-51 -415h-72zM68 0l51 415h72l-20 -159h75c47.333 0 83.333 -10.667 108 -32c23.333 -20.667 35 -49 35 -85c0 -40 -12 -72 -36 -96c-28 -28.667 -70 -43 -126 -43h-86h-73zM148 64h75c30 0 52.667 5.66699 68 17c16 12.667 24 29.667 24 51
s-7.33301 37 -22 47c-12 8.66699 -32.333 13 -61 13h-68zM425 666l70 -34l-151 -135l-42 24z" />
    <glyph glyph-name="afii10095.var.accented" unicode="&#x44d;`" horiz-adv-x="426" 
d="M82 330l9 70.001c36.667 16.667 76 25 118 25c60.667 0 108.667 -16.333 144 -49c37.333 -34.667 56 -83.667 56 -147c0 -72.667 -21.667 -131.334 -65 -176.001c-42.667 -43.333 -100 -65 -172 -65c-50 0 -93 9.33301 -129 28l9 70c32.667 -22.667 71 -34 115 -34
c50.667 0 90 13.667 118 41c24 22.667 38.667 51.667 44 87h-219l8 64h217c-1.33301 34 -14.333 61.667 -39 83c-26 22.667 -61 34 -105 34c-38.667 0 -75 -10.333 -109 -31zM307 666.001l70 -34l-151 -135l-42 24z" />
    <glyph glyph-name="afii10096.var.accented" unicode="&#x44e;`" horiz-adv-x="692" 
d="M170 245l73.999 0.00195312c10.667 43.333 32.667 81.666 66 114.999c44.667 43.333 100 65 166 65c58.667 0 106.667 -17.667 144 -53c36.667 -35.333 55 -82.333 55 -141c0 -74.667 -23.667 -135.334 -71 -182.001c-41.333 -40.667 -96.666 -61 -165.999 -61
c-66.667 0 -117.667 19 -153 57c-34 35.333 -51 80 -51 134h-72l-22 -179h-72l51 415h72zM469.999 361.002c-44 0 -80.334 -14.334 -109.001 -43.001c-34.667 -34.667 -52 -78.667 -52 -132c0 -41.333 11.667 -73.666 35 -96.999c24 -24.667 55.667 -37 95 -37
c44.667 0 81.334 15 110.001 45c34 34 51 78.333 51 133c0 38 -11.667 69.333 -35 94s-55 37 -95 37zM489.998 666.001l70 -34l-151 -135l-42 24z" />
    <glyph glyph-name="afii10097.var.accented" unicode="&#x44f;`" horiz-adv-x="408" 
d="M20 0l150.002 171c-3.33301 0 -8.33301 0.666992 -15 2s-15.834 4.66602 -27.501 9.99902s-21.834 12 -30.501 20c-18 18 -27 41.667 -27 71c0 42.667 13 76.334 39 101.001c27.333 26.667 73 40 137 40h145l-51 -415h-72l21 167h-40l-139 -167h-90zM296.002 227
l15 123.999h-74c-30.667 0 -53.667 -5.33301 -69 -16c-16 -11.333 -24 -27.333 -24 -48c0 -21.333 7.33301 -36.666 22 -45.999c14 -9.33301 36 -14 66 -14h64zM348.002 665.999l70 -34l-151 -135l-42 24z" />
    <glyph glyph-name="afii10071.var.accented" unicode="&#x451;`" horiz-adv-x="483" 
d="M395 139l61.001 -32.999c-22.667 -38 -48.334 -66.667 -77.001 -86c-32.667 -21.333 -72.667 -32 -120 -32c-58 0 -103.667 17.333 -137 52c-36.667 38 -55 87.667 -55 149c0 71.333 23.667 130.666 71 177.999c38.667 38.667 87 58 145 58
c57.333 0 102.333 -16.333 135 -49c40.667 -42 56.334 -103 47.001 -183h-323c-0.666992 -48 11.666 -84.667 36.999 -110c20.667 -20.667 48 -31 82 -31c31.333 0 58 7.66699 80 23c20.667 14.667 38.667 36 54 64zM154.001 253.001l241.998 0.000976562
c-1.33301 33.333 -13 60.666 -35 81.999c-18 17.333 -43.333 26 -76 26c-37.333 0 -67.666 -11.667 -90.999 -35c-19.333 -20 -32.666 -44.333 -39.999 -73zM363.999 543.002c0 15.333 5.66895 28.667 17.002 40s24.666 17 39.999 17c12.667 0 23 -4 31 -12
c8.66699 -8 13 -18.667 13 -32c0 -14.667 -6 -28 -18 -40c-10.667 -10.667 -23.334 -16 -38.001 -16c-12 0 -22.667 4 -32 12c-8.66699 8.66699 -13 19 -13 31zM127.001 543.003c0 15.333 5.66895 28.667 17.002 40s24.666 17 39.999 17c12.667 0 23 -4 31 -12
c8.66699 -8 13 -18.667 13 -32c0 -14.667 -6 -28 -18 -40c-10.667 -10.667 -23.334 -16 -38.001 -16c-12 0 -22.667 4 -32 12c-8.66699 8.66699 -13 19 -13 31zM358.003 666.004l59 -28l-151 -135l-31 18z" />
    <glyph glyph-name="fi" unicode="fi" horiz-adv-x="459" 
d="M287 349l-101.999 -0.00195312l-43 -349h-72l43 349h-40l8 66h40l19 156c6.66699 55.333 22.667 96.333 48 123c29.333 31.333 69.666 47 120.999 47c53.333 0 94 -14.667 122 -44c22 -23.333 33 -53.666 33 -90.999c0 -16 -1.33301 -33.333 -4 -52h-72
c2 20 3 32.667 3 38c0 24 -7.33301 42.667 -22 56c-14 13.333 -34.667 20 -62 20c-30.667 0 -53.667 -9 -69 -27c-13.333 -15.333 -22 -38.666 -26 -69.999l-19 -156h102zM371.001 414.998h72l-51 -415h-72z" />
    <glyph glyph-name="fl" unicode="fl" horiz-adv-x="459" 
d="M287 349h-102.002l-43 -349h-72l43 349h-40l8 66h40l19 156c6.66699 55.333 22.667 96.333 48 123c30 31.333 71 47 123 47s92 -14.667 120 -44c22 -23.333 33 -54 33 -92c0 -16.667 -2 -40 -6 -70l-66 -535h-72l65 532c4 34 6 54 6 60c0 24 -7.33301 42.667 -22 56
c-15.333 13.333 -35.666 20 -60.999 20c-31.333 0 -54.666 -9 -69.999 -27c-13.333 -14.667 -22 -38 -26 -70l-19 -156h102z" />
    <glyph glyph-name=".notdef" horiz-adv-x="233" 
 />
    <glyph glyph-name="space" unicode=" " horiz-adv-x="233" 
 />
    <glyph glyph-name="exclam" unicode="!" horiz-adv-x="281" 
d="M194 135h-72l65 532h72zM95 35c0 15.333 5.33301 28.332 16 38.999c10 10.667 23 16 39 16c13.333 0 24.333 -4.33301 33 -13s13 -20 13 -34c0 -15.333 -6.33301 -28.666 -19 -39.999c-10.667 -8.66699 -22.667 -13 -36 -13c-14 0 -25.333 4.33301 -34 13
c-8 8 -12 18.667 -12 32z" />
    <glyph glyph-name="quotedbl" unicode="&#x22;" horiz-adv-x="330" 
d="M216 667l-46 -268h-54l20 268h80zM358 667l-46 -268h-54l20 268h80z" />
    <glyph glyph-name="numbersign" unicode="#" horiz-adv-x="600" 
d="M394 0h-73l57 207h-136l-57 -207h-73l57 207h-110l19 66h110l36 133h-110l18 66h110l54 195h73l-54 -195h136l54 195h73l-54 -195h110l-18 -66h-110l-36 -133h110l-19 -66h-110zM397 273l36 133h-136l-36 -133h136z" />
    <glyph glyph-name="dollar" unicode="$" horiz-adv-x="568" 
d="M538 574l-63 -39c-3.33301 20 -12.333 36 -27 48c-12 10.667 -26.667 17.334 -44 20.001l-27 -221c40.667 -15.333 73.334 -37 98.001 -65c28.667 -32.667 43 -72 43 -118c0 -59.333 -18.667 -108.333 -56 -147c-34.667 -36.667 -79 -57.334 -133 -62.001l-11 -91h-60
l11 90c-46 0 -85.333 16.333 -118 49s-51.334 73.334 -56.001 122.001l74 20c3.33301 -36 15.333 -65 36 -87c18 -19.333 42.333 -30.666 73 -33.999l33 271l-25 12c-36 17.333 -62.333 34.666 -79 51.999c-25.333 26 -38 60 -38 102c0 50 17.333 92.333 52 127
c36 36 80.333 54 133 54l10 86h60l-11 -88c28.667 -4.66699 54.667 -16.334 78 -35.001c22 -17.333 37.667 -39.333 47 -66zM367 302l-29.001 -241c28.667 5.33301 52.334 19 71.001 41c20.667 24 31 54.667 31 92c0 28.667 -8.33301 52.667 -25 72
c-12.667 16 -28.667 28 -48 36zM320.999 409l24.001 198c-26.667 -0.666992 -49.334 -9.66699 -68.001 -27c-22 -20.667 -33 -46 -33 -76c0 -24 8 -44.667 24 -62c13.333 -14 31 -25 53 -33z" />
    <glyph glyph-name="percent" unicode="%" horiz-adv-x="714" 
d="M144 10l471 670l37 -22l-472 -671zM559 283c42 0 76.334 -13.333 103.001 -40c24 -24 36 -55 36 -93c0 -48 -15 -87 -45 -117c-27.333 -26.667 -64 -40 -110 -40c-40.667 0 -73.334 12 -98.001 36c-26.667 26 -40 58.333 -40 97c0 44 14.667 81.333 44 112
c30 30 66.667 45 110 45zM549.001 48c24 0 44.001 7.99902 60.001 23.999c18.667 18.667 28 43.334 28 74.001c0 26 -8.33301 46.667 -25 62c-13.333 13.333 -32.333 20 -57 20c-26.667 0 -48.334 -9.33301 -65.001 -28s-25 -41.667 -25 -69c0 -26 8 -46.333 24 -61
s36 -22 60 -22zM252.002 672.999c42 0 76.334 -13.333 103.001 -40c24 -24 36 -55 36 -93c0 -48 -15 -87 -45 -117c-27.333 -26.667 -64 -40 -110 -40c-40.667 0 -73.334 12 -98.001 36c-26.667 26.667 -40 59 -40 97c0 44 14.667 81.333 44 112c30 30 66.667 45 110 45z
M242.003 437.999c24 0 44.001 7.99902 60.001 23.999c18.667 18.667 28 43.334 28 74.001c0 26 -8.33301 46.667 -25 62c-13.333 13.333 -32.333 20 -57 20c-26.667 0 -48.334 -9.33301 -65.001 -28s-25 -41.667 -25 -69c0 -26 8 -46.333 24 -61s36 -22 60 -22z" />
    <glyph glyph-name="ampersand" unicode="&#x26;" horiz-adv-x="638" 
d="M582 289l48.999 -44.999c-35.333 -38 -67.666 -71 -96.999 -99l94 -145h-92l-61 93c-34 -31.333 -66 -55.333 -96 -72c-38 -22 -79.667 -33 -125 -33c-56 0 -100.333 16.667 -133 50c-30.667 32 -46 70 -46 114c0 54.667 21.667 103.667 65 147
c34.667 34.667 80 66.334 136 95.001l-21 37c-18.667 32.667 -28 64.667 -28 96c0 44 13.667 80.333 41 109c27.333 28 65.333 42 114 42c44 0 78.333 -12.667 103 -38c20.667 -20.667 31 -47.334 31 -80.001c0 -34.667 -9 -64.334 -27 -89.001
c-11.333 -16 -31.333 -34.333 -60 -55l-50 -36l117 -179c33.333 30 62 59.333 86 88zM436.999 148.001l-124.001 190.999c-48.667 -25.333 -88.667 -53.666 -120 -84.999c-28.667 -30 -43 -62 -43 -96c0 -30 9.33301 -54.333 28 -73c19.333 -19.333 45.333 -29 78 -29
c34 0 67.667 10 101 30c22.667 13.333 49.334 34 80.001 62zM320.998 469l21 -35l41 28c18.667 12 33.667 24.667 45 38s17 29.666 17 48.999c0 20.667 -7.66699 37.334 -23 50.001c-12 10 -27 15 -45 15c-22.667 0 -41.667 -7 -57 -21s-23 -33 -23 -57
c0 -18.667 8 -41 24 -67z" />
    <glyph glyph-name="quotesingle" unicode="'" horiz-adv-x="188" 
d="M216 667l-46 -268h-54l20 268h80z" />
    <glyph glyph-name="parenleft" unicode="(" horiz-adv-x="298" 
d="M261 740l59.999 -29.002c-40 -83.333 -73.667 -175.666 -101 -276.999c-28 -104 -42 -197.333 -42 -280c0 -102 12.333 -200.333 37 -295l-66 -29c-30 108.667 -45 214.667 -45 318c0 97.333 15.667 201 47 311c26.667 94.667 63.334 188.334 110.001 281.001z" />
    <glyph glyph-name="parenright" unicode=")" horiz-adv-x="298" 
d="M105 -170l-59.999 28.998c43.333 92.667 77.333 185.334 102 278.001c27.333 100.667 41 200.667 41 300c0 94.667 -12.333 186 -37 274l66 29c30 -111.333 45 -214 45 -308c0 -59.333 -3.16699 -111.166 -9.5 -155.499s-17.833 -95.5 -34.5 -153.5
c-30.667 -109.333 -68.334 -207 -113.001 -293z" />
    <glyph glyph-name="asterisk" unicode="*" horiz-adv-x="568" 
d="M219 648l110 -43l11 124h68l-21 -124l122 43l13 -63l-124 -34l65 -97l-59 -39l-56 103l-82 -103l-49 39l89 97l-116 34z" />
    <glyph glyph-name="plus" unicode="+" 
d="M74 300v66h181v172h72v-172h181v-66h-181v-172h-72v172h-181z" />
    <glyph glyph-name="comma" unicode="," horiz-adv-x="274" 
d="M8 -133l110 231l63 -24l-129 -226z" />
    <glyph glyph-name="hyphen" unicode="-" horiz-adv-x="320" 
d="M72 176l9 74h220l-9 -74h-220z" />
    <glyph glyph-name="period" unicode="." horiz-adv-x="229" 
d="M69 35c0 15.333 5.33301 28.332 16 38.999c10 10.667 23 16 39 16c13.333 0 24.333 -4.33301 33 -13s13 -20 13 -34c0 -15.333 -6.33301 -28.666 -19 -39.999c-10.667 -8.66699 -22.667 -13 -36 -13c-14 0 -25.333 4.33301 -34 13c-8 8 -12 18.667 -12 32z" />
    <glyph glyph-name="slash" unicode="/" horiz-adv-x="605" 
d="M-19 -170l632 929l60 -30l-631 -927z" />
    <glyph glyph-name="zero" unicode="0" horiz-adv-x="568" 
d="M282 -12c-50.667 0 -92.668 17.001 -126.001 51.001c-50.667 52 -76 127 -76 225c0 68 11 133.167 33 195.5s52.333 112.833 91 151.5c44 44.667 96 67 156 67c50.667 0 93.334 -16.333 128.001 -49c50.667 -48 76 -122.333 76 -223c0 -70.667 -10 -137.834 -30 -201.501
s-50.667 -115.5 -92 -155.5c-24 -22.667 -48.333 -38.5 -73 -47.5s-53.667 -13.5 -87 -13.5zM354.999 610.001c-38.667 0 -73.334 -15.332 -104.001 -45.999c-30 -30 -53.667 -71.833 -71 -125.5s-26 -108.167 -26 -163.5c0 -84.667 18.667 -146.334 56 -185.001
c22 -22.667 49.333 -34 82 -34c36.667 0 68.667 12.667 96 38c32.667 30 57.834 74 75.501 132s26.5 114.667 26.5 170c0 34.667 -4.5 69.167 -13.5 103.5s-23.167 60.833 -42.5 79.5c-20.667 20.667 -47 31 -79 31z" />
    <glyph glyph-name="one" unicode="1" horiz-adv-x="568" 
d="M266 0l73 597h-112l48 70h147l-82 -667h-74z" />
    <glyph glyph-name="two" unicode="2" horiz-adv-x="568" 
d="M481 0l-431 0.00195312l278 279c50.667 50.667 84 87 100 109c26.667 36.667 40 73 40 109c0 34 -11 61.333 -33 82s-51.667 31 -89 31c-43.333 0 -76.666 -12.333 -99.999 -37c-24.667 -24.667 -38.667 -58.334 -42 -101.001h-74c8 61.333 31 110.666 69 147.999
c40 38.667 91 58 153 58c57.333 0 103.666 -16.667 138.999 -50c34 -32 51 -73 51 -123c0 -54.667 -20 -107.667 -60 -159c-8 -10 -17.167 -20.667 -27.5 -32s-19.333 -20.833 -27 -28.5l-32 -31.5l-29.5 -29l-159 -157h282z" />
    <glyph glyph-name="three" unicode="3" horiz-adv-x="568" 
d="M225 502l-73.9951 0.000976562c7.33301 50 26.666 91.333 57.999 124c34 34.667 79 52 135 52c54 0 97 -14.667 129 -44c32.667 -30 49 -72 49 -126c0 -38 -9.33301 -70.667 -28 -98c-20.667 -29.333 -46.334 -49.333 -77.001 -60c23.333 -12 41.666 -28.333 54.999 -49
c16 -24.667 24 -54.334 24 -89.001c0 -66.667 -21.333 -121.667 -64 -165c-38.667 -39.333 -89.334 -59 -152.001 -59c-60 0 -106.333 16.667 -139 50c-34 35.333 -52.667 80.333 -56 135h74c2 -36.667 14 -66 36 -88c20 -19.333 48.333 -29 85 -29c41.333 0 74 12 98 36
c28 28 42 66.667 42 116c0 31.333 -10.333 57.333 -31 78c-22 20.667 -51.333 31 -88 31h-8l8 66h10c43.333 0 76.666 9.66699 99.999 29c25.333 20.667 38 52.667 38 96c0 31.333 -9.33301 56 -28 74c-19.333 18.667 -46 28 -80 28c-32.667 0 -59.667 -10 -81 -30
c-20 -20 -31.667 -46 -35 -78z" />
    <glyph glyph-name="four" unicode="4" horiz-adv-x="568" 
d="M520 704l-62 -510h82l-9 -68h-82l-15 -126h-74l15 126h-342zM176 194h207l36 288z" />
    <glyph glyph-name="five" unicode="5" horiz-adv-x="568" 
d="M561 667l-8.00098 -68h-214l-60 -145c71.333 11.333 130 -5.33398 176 -50.001c39.333 -38 59 -89 59 -153c0 -78 -24.333 -142 -73 -192c-46.667 -47.333 -107.667 -71 -183 -71c-53.333 0 -97.333 11.667 -132 35c-31.333 20.667 -57.666 49 -78.999 85l64 42
c12.667 -25.333 29 -46 49 -62c27.333 -21.333 60.333 -32 99 -32c56 0 99.667 16.333 131 49c33.333 34.667 50 82.334 50 143.001c0 45.333 -15.667 81.333 -47 108c-27.333 23.333 -63 35 -107 35c-45.333 0 -87 -13.667 -125 -41l135 317h265z" />
    <glyph glyph-name="six" unicode="6" horiz-adv-x="568" 
d="M416 683l55 -42l-173 -207c34.667 5.33301 69.334 3 104.001 -7s64 -27.333 88 -52c35.333 -36 53 -83.333 53 -142c0 -72 -22.333 -130.333 -67 -175c-46.667 -46.667 -109.334 -70 -188.001 -70c-62 0 -111.667 17.667 -149 53c-40.667 38.667 -61 88.667 -61 150
c0 45.333 11.667 88.333 35 129c15.333 26.667 40.333 59.667 75 99zM297 56c52 0 92.667 14.668 122 44.001c32 32 48 75.667 48 131c0 41.333 -13 74.333 -39 99c-28 26 -64.667 39 -110 39c-43.333 0 -81.333 -15.667 -114 -47c-34 -32.667 -51 -74.667 -51 -126
c0 -38.667 12.667 -71.334 38 -98.001c26 -28 61.333 -42 106 -42z" />
    <glyph glyph-name="seven" unicode="7" horiz-adv-x="568" 
d="M51 23l450 576h-361l8 68h490l-530 -683z" />
    <glyph glyph-name="eight" unicode="8" horiz-adv-x="568" 
d="M429 345c23.333 -10.667 42.332 -26.666 56.999 -47.999c17.333 -25.333 26 -55.333 26 -90c0 -66 -20.333 -119.333 -61 -160c-40 -40 -93.667 -60 -161 -60c-61.333 0 -108.666 17.333 -141.999 52c-32 32.667 -48 76.667 -48 132c0 46.667 12 86 36 118
c21.333 28.667 50.333 49 87 61c-19.333 12.667 -34 28 -44 46c-13.333 22.667 -20 49 -20 79c0 61.333 18 110.666 54 147.999c36 36.667 83.667 55 143 55c54.667 0 97.667 -16 129 -48c29.333 -30 44 -70.667 44 -122c0 -39.333 -9.33301 -73.333 -28 -102
c-18 -28 -42 -48.333 -72 -61zM334.999 377.001c35.333 0 64.335 10.668 87.002 32.001c24 22.667 36 54 36 94c0 33.333 -10 59.666 -30 78.999c-18.667 18.667 -45 28 -79 28c-34.667 0 -62.334 -10.333 -83.001 -31c-25.333 -24 -38 -56 -38 -96
c0 -30 9.33301 -55 28 -75c19.333 -20.667 45.666 -31 78.999 -31zM294.001 56.002c44 0 78.001 11.668 102.001 35.001c27.333 26 41 61.333 41 106c0 39.333 -12.333 69 -37 89c-20.667 18 -49.334 27 -86.001 27c-42 0 -75 -13 -99 -39
c-26 -28.667 -39 -62.334 -39 -101.001c0 -36 10.333 -64.333 31 -85c21.333 -21.333 50.333 -32 87 -32z" />
    <glyph glyph-name="nine" unicode="9" horiz-adv-x="568" 
d="M228 -16l-51 41.001l175 208c-33.333 -6.66699 -68.333 -4.33398 -105 6.99902s-67 29 -91 53c-34 34.667 -51 78.667 -51 132c0 75.333 23.667 136.666 71 183.999c46 46 105.333 69 178 69c67.333 0 121.333 -20.333 162 -61c35.333 -35.333 53 -81.333 53 -138
c0 -42 -8.66699 -80.667 -26 -116c-14 -29.333 -40.333 -65.666 -79 -108.999zM347 610.001c-48 0 -86.667 -14.667 -116 -44c-34 -32.667 -51 -77.667 -51 -135c0 -36 11.333 -66.333 34 -91c27.333 -28.667 64.333 -43 111 -43c47.333 0 87.333 17 120 51
c32.667 34.667 49 76 49 124c0 42.667 -14.667 76.667 -44 102c-26.667 24 -61 36 -103 36z" />
    <glyph glyph-name="colon" unicode=":" horiz-adv-x="229" 
d="M69 33c0 15.333 5.33301 28.332 16 38.999c10 10.667 23 16 39 16c13.333 0 24.333 -4.33301 33 -13s13 -20 13 -34c0 -15.333 -6.33301 -28.666 -19 -39.999c-10.667 -8.66699 -22.667 -13 -36 -13c-14 0 -25.333 4.33301 -34 13c-8 8 -12 18.667 -12 32zM110 369.999
c0 15.333 5.33301 28.332 16 38.999c10 10.667 23 16 39 16c13.333 0 24.333 -4.33301 33 -13s13 -20 13 -34c0 -15.333 -6.33301 -28.666 -19 -39.999c-10.667 -8.66699 -22.667 -13 -36 -13c-14 0 -25.333 4.33301 -34 13c-8 8 -12 18.667 -12 32z" />
    <glyph glyph-name="semicolon" unicode=";" horiz-adv-x="274" 
d="M8 -133l110 231l63 -24l-129 -226zM123 370c0 15.333 5.33301 28.332 16 38.999c10 10.667 23 16 39 16c13.333 0 24.333 -4.33301 33 -13s13 -20 13 -34c0 -15.333 -6.33301 -28.666 -19 -39.999c-10.667 -8.66699 -22.667 -13 -36 -13c-14 0 -25.333 4.33301 -34 13
c-8 8 -12 18.667 -12 32z" />
    <glyph glyph-name="less" unicode="&#x3c;" 
d="M163 330l357 -162v-72l-434 203v62l434 203v-72z" />
    <glyph glyph-name="equal" unicode="=" 
d="M75 384v66h434v-66h-434zM75 230v66h434v-66h-434z" />
    <glyph glyph-name="greater" unicode="&#x3e;" 
d="M418 330l-357 162v72l434 -203v-62l-434 -203v72z" />
    <glyph glyph-name="question" unicode="?" horiz-adv-x="438" 
d="M323 289l71.9971 -0.00292969c0 -45.333 -14 -82.666 -42 -111.999c-27.333 -27.333 -63.666 -41 -108.999 -41c-43.333 0 -77.666 12.333 -102.999 37c-22.667 22.667 -34 51.667 -34 87c0 42.667 13.333 77.334 40 104.001c20.667 21.333 55.334 39 104.001 53l33 10
c27.333 8.66699 48 20.667 62 36c16 17.333 24 39.333 24 66c0 26 -8.66699 46.667 -26 62c-14.667 12.667 -34.334 19 -59.001 19c-26.667 0 -48.334 -8.33301 -65.001 -25c-18 -18 -27 -44.667 -27 -80c0 -6 0.666992 -14.333 2 -25h-74c-0.666992 6 -1 14.333 -1 25
c0 52.667 16.333 95.334 49 128.001c30.667 30 71.334 45 122.001 45c50 0 88.333 -13.333 115 -40c25.333 -25.333 38 -60 38 -104c0 -46 -14.333 -83.667 -43 -113c-23.333 -24 -52.333 -41.333 -87 -52l-44 -14c-34 -10.667 -57 -22 -69 -34c-14 -15.333 -21 -33 -21 -53
c0 -22 6.33301 -38 19 -48c11.333 -10.667 28 -16 50 -16c22.667 0 40.334 6.33301 53.001 19c14 14.667 21 36.667 21 66zM172.997 29.9971c0 15.333 5.33301 28.332 16 38.999c10 10.667 23 16 39 16c13.333 0 24.333 -4.33301 33 -13s13 -20 13 -34
c0 -15.333 -6.33301 -28.666 -19 -39.999c-10.667 -8.66699 -22.667 -13 -36 -13c-14 0 -25.333 4.33301 -34 13c-8 8 -12 18.667 -12 32z" />
    <glyph glyph-name="at" unicode="@" horiz-adv-x="737" 
d="M534 427l21.0039 64.0029h52l-66 -210c-8 -28 -12 -46.333 -12 -55c0 -13.333 3.33301 -23 10 -29c6 -6 14 -9 24 -9c23.333 0 45.666 9.66699 66.999 29c21.333 20 38.166 47 50.499 81s18.5 69 18.5 105c0 70 -23.667 125.667 -71 167
c-44.667 38.667 -101.667 58 -171 58c-94.667 0 -173.667 -32.333 -237 -97c-63.333 -65.333 -95 -145 -95 -239c0 -74 22.333 -134.333 67 -181c49.333 -50.667 120.666 -76 213.999 -76c76 0 144.333 15.333 205 46l9 -46c-64 -32 -141 -48 -231 -48
c-98 0 -176.333 30.333 -235 91c-53.333 55.333 -80 124 -80 206c0 53.333 9.66699 104 29 152s45.666 89.333 78.999 124c74.667 77.333 167.667 116 279 116c88.667 0 159.667 -26.667 213 -80c48.667 -48.667 73 -109 73 -181c0 -36.667 -6.5 -76.334 -19.5 -119.001
s-33.167 -77.667 -60.5 -105c-32.667 -31.333 -67.334 -47 -104.001 -47c-22 0 -40 6.66699 -54 20s-21 29 -21 47c-14 -21.333 -30.333 -37.666 -49 -48.999c-22.667 -14.667 -48.667 -22 -78 -22c-37.333 0 -67.666 11.667 -90.999 35
c-25.333 25.333 -38 60.666 -38 105.999c0 65.333 23 121.666 69 168.999c36 36 78 54 126 54c32.667 0 58.667 -9 78 -27c13.333 -12.667 23 -29.334 29 -50.001zM372.004 194.003c30 0 56.667 11.334 80 34.001c16.667 16.667 30 37.667 40 63s15 49.666 15 72.999
c0 27.333 -8 49 -24 65c-14 14 -32.333 21 -55 21c-35.333 0 -65.333 -13.333 -90 -40c-14.667 -15.333 -26.167 -34.5 -34.5 -57.5s-12.5 -44.833 -12.5 -65.5c0 -33.333 9.33301 -58.333 28 -75c14 -12 31.667 -18 53 -18z" />
    <glyph glyph-name="A" unicode="A" horiz-adv-x="622" 
d="M534 0l-55 188h-284l-103 -188h-84l393 699l213 -699h-80zM233 258h226l-80 267z" />
    <glyph glyph-name="B" unicode="B" horiz-adv-x="532" 
d="M168 667l109.001 -0.000976562c76.667 0 132 -17.667 166 -53c26 -26 39 -61.333 39 -106c0 -36.667 -7.66699 -68.667 -23 -96c-13.333 -24 -34 -42.667 -62 -56c27.333 -11.333 49.666 -25.666 66.999 -42.999c27.333 -28 41 -65 41 -111
c0 -63.333 -20.333 -112.333 -61 -147c-42.667 -36.667 -104 -55 -184 -55h-174zM233.001 596.999l-27 -223.001h48c52.667 0 92 11.333 118 34c24 20.667 36 50.334 36 89.001c0 34.667 -12.333 60.667 -37 78c-20 14.667 -49.667 22 -89 22h-49zM198.001 307.998
l-29.001 -238h90c56.667 0 98.334 9.66699 125.001 29c30.667 22 46 55 46 99c0 41.333 -16.333 71.333 -49 90c-22.667 13.333 -58.667 20 -108 20h-75z" />
    <glyph glyph-name="C" unicode="C" horiz-adv-x="650" 
d="M675 612l-11.002 -92.002c-23.333 26 -49.333 46.333 -78 61c-35.333 18 -73 27 -113 27c-86.667 0 -159 -29 -217 -87c-58 -59.333 -87 -130.666 -87 -213.999c0 -70.667 23.333 -130.667 70 -180c44 -46 100 -69 168 -69c48.667 0 91 9.33301 127 28
c30 15.333 58 35 84 59l-11 -92c-32 -22 -60.333 -37.667 -85 -47c-32.667 -12 -72.667 -18 -120 -18c-94 0 -169.667 29.333 -227 88c-56 56.667 -84 131 -84 223c0 112.667 37.333 205.334 112 278.001c69.333 67.333 159.333 101 270 101
c50.667 0 94.334 -7.66699 131.001 -23c22.667 -10 46.334 -24.333 71.001 -43z" />
    <glyph glyph-name="D" unicode="D" horiz-adv-x="636" 
d="M86 0l82 666.999h121c112.667 0 198.334 -27.667 257.001 -83c54 -52.667 81 -124.667 81 -216c0 -111.333 -32.333 -200 -97 -266c-38 -39.333 -82.333 -66.166 -133 -80.499s-111.334 -21.5 -182.001 -21.5h-129zM233 596.999l-64 -527h49
c116.667 0 201.334 26.333 254.001 79c51.333 51.333 77 122.333 77 213c0 70 -20 125.333 -60 166c-44.667 46 -108.334 69 -191.001 69h-65z" />
    <glyph glyph-name="E" unicode="E" horiz-adv-x="482" 
d="M514 667l-9 -70h-272l-24 -198h264l-9 -70h-264l-31 -259h272l-9 -70h-346l82 667h346z" />
    <glyph glyph-name="F" unicode="F" horiz-adv-x="434" 
d="M472 667l-9 -70h-230l-24 -197h222l-8 -70h-222l-41 -330h-74l82 667h304z" />
    <glyph glyph-name="G" unicode="G" horiz-adv-x="760" 
d="M465 265l7.99902 69.999h278l-2 -16c-12.667 -98.667 -45.334 -176 -98.001 -232c-61.333 -66 -142.666 -99 -243.999 -99c-93.333 0 -169.333 29.333 -228 88s-88 133 -88 223c0 108 36.667 198.667 110 272c70.667 71.333 162.334 107 275.001 107
c68.667 0 127 -15.333 175 -46c39.333 -24 71 -57 95 -99l-61 -50c-18.667 36.667 -45.667 66.334 -81 89.001c-37.333 24 -80.333 36 -129 36c-89.333 0 -162.333 -27.667 -219 -83c-29.333 -29.333 -51.5 -64 -66.5 -104s-22.5 -80 -22.5 -120
c0 -69.333 23 -127.666 69 -174.999c44 -45.333 103.333 -68 178 -68s134 22.667 178 68c35.333 35.333 59 81.666 71 138.999h-198z" />
    <glyph glyph-name="H" unicode="H" horiz-adv-x="662" 
d="M242 667l-33 -271h342l33 271h74l-82 -667h-74l40 326h-342l-40 -326h-74l82 667h74z" />
    <glyph glyph-name="I" unicode="I" horiz-adv-x="246" 
d="M168 667h74l-82 -667h-74z" />
    <glyph glyph-name="J" unicode="J" horiz-adv-x="299" 
d="M221 667h74l-59 -482c-9.33301 -76.667 -27.666 -128.667 -54.999 -156s-66 -41 -116 -41c-24.667 0 -47 5 -67 15c-18 8.66699 -33.333 20 -46 34l48 58c6.66699 -8 16.667 -16.333 30 -25c14 -8 28.333 -12 43 -12c21.333 0 38.666 6.66699 51.999 20
c18 18 30.333 53.667 37 107z" />
    <glyph glyph-name="K" unicode="K" horiz-adv-x="568" 
d="M242 667l-35 -286l319 286h100l-354 -312l278 -355h-98l-235 306l-22 -19l-35 -287h-74l82 667h74z" />
    <glyph glyph-name="L" unicode="L" horiz-adv-x="358" 
d="M168 667h74l-73 -597h184l-9 -70h-258z" />
    <glyph glyph-name="M" unicode="M" horiz-adv-x="863" 
d="M140 0h-77l197 704l187 -563l331 564l17 -705h-75l-6 464l-287 -492l-164 492z" />
    <glyph glyph-name="N" unicode="N" horiz-adv-x="766" 
d="M160 0h-74l85 695l453 -547l64 519h74l-86 -697l-453 547z" />
    <glyph glyph-name="O" unicode="O" horiz-adv-x="800" 
d="M399 -12c-92 0 -166.001 28.999 -222.001 86.999c-57.333 58.667 -86 132.334 -86 221.001c0 112.667 38 205 114 277c72.667 70 164 105 274 105c92.667 0 167.334 -28 224.001 -84c58.667 -57.333 88 -130 88 -218c0 -53.333 -9.5 -105 -28.5 -155
s-46.833 -92.667 -83.5 -128c-72.667 -70 -166 -105 -280 -105zM470.999 607.999c-83.333 0 -153.667 -26.334 -211 -79.001c-61.333 -57.333 -92 -130.333 -92 -219c0 -75.333 23 -136.666 69 -183.999c44 -45.333 100.667 -68 170 -68c89.333 0 161.333 26.667 216 80
c28.667 28 51 62.167 67 102.5s24 80.833 24 121.5c0 72 -23.333 131.333 -70 178c-45.333 45.333 -103 68 -173 68z" />
    <glyph glyph-name="P" unicode="P" horiz-adv-x="457" 
d="M168 667h121c72 0 125.667 -17 161 -51c30.667 -29.333 46 -71.333 46 -126c0 -60 -18 -107.333 -54 -142c-40 -38.667 -103 -58 -189 -58h-57l-36 -290h-74zM233 597l-28.999 -237h63c54 0 94 12 120 36c24 21.333 36 52 36 92c0 38.667 -12.333 67 -37 85
c-20.667 16 -53.334 24 -98.001 24h-55z" />
    <glyph glyph-name="Q" unicode="Q" horiz-adv-x="800" 
d="M658 -7l-44.001 52.002c-60 -38 -128.667 -57 -206 -57c-97.333 0 -174.666 30 -231.999 90c-56.667 59.333 -85 132.666 -85 219.999c0 109.333 37 200.666 111 273.999c72 70.667 162.333 106 271 106c91.333 0 166.666 -28.333 225.999 -85
c61.333 -58.667 92 -133.667 92 -225c0 -62 -11.333 -116.667 -34 -164c-19.333 -40.667 -48.666 -78 -87.999 -112l81 -99h-92zM515.999 268.002l103.999 -121.001c26 22 46.333 45.667 61 71c22 36.667 33 80.334 33 131.001c0 74.667 -22.333 136 -67 184
c-45.333 50 -103.666 75 -174.999 75c-82 0 -153 -28.333 -213 -85c-60.667 -58 -91 -130.667 -91 -218c0 -72 23 -131.667 69 -179c43.333 -45.333 103 -68 179 -68c55.333 0 105 14.667 149 44l-141 166h92z" />
    <glyph glyph-name="R" unicode="R" horiz-adv-x="505" 
d="M168 667h106.999c76.667 0 132.334 -16.333 167.001 -49c32 -29.333 48 -69 48 -119c0 -61.333 -17.667 -108.666 -53 -141.999c-35.333 -34.667 -82 -54.334 -140 -59.001l175 -298h-90l-167 292h-19l-36 -292h-74zM232.999 597l-29.001 -239h47
c56.667 0 98 11.667 124 35s39 55 39 95c0 42 -15 72 -45 90c-21.333 12.667 -52.666 19 -93.999 19h-42z" />
    <glyph glyph-name="S" unicode="S" horiz-adv-x="518" 
d="M513 574l-63.001 -39c-7.33301 20.667 -19.666 38 -36.999 52c-18.667 14 -43.667 21 -75 21c-34.667 0 -62.667 -9.33301 -84 -28c-23.333 -21.333 -35 -47.666 -35 -78.999c0 -24 9.33301 -44.333 28 -61c11.333 -10 30 -21.667 56 -35l60 -28
c35.333 -16 63.666 -35 84.999 -57c30 -30.667 45 -69.667 45 -117c0 -62 -18.667 -112.333 -56 -151c-41.333 -42.667 -99 -64 -173 -64c-58.667 0 -104.667 16.667 -138 50c-32.667 33.333 -51.334 74 -56.001 122l74 20c2 -35.333 14 -64.333 36 -87
c22.667 -23.333 54.334 -35 95.001 -35c45.333 0 80 12.333 104 37s36 57 36 97c0 35.333 -12 63.666 -36 84.999c-13.333 12.667 -35 26 -65 40l-53 25c-35.333 15.333 -61.666 32.333 -78.999 51c-25.333 26.667 -38 61 -38 103c0 50 17.333 92 52 126
c38 37.333 87 56 147 56c45.333 0 82 -9.33301 110 -28c27.333 -18 47.333 -43.333 60 -76z" />
    <glyph glyph-name="T" unicode="T" horiz-adv-x="426" 
d="M485 597h-162l-73 -597h-74l73 597h-162l9 70h398z" />
    <glyph glyph-name="U" unicode="U" horiz-adv-x="646" 
d="M242 667l-48.002 -392c-4.66699 -35.333 -7 -62 -7 -80c0 -41.333 14.333 -75 43 -101c26 -24 63.333 -36 112 -36c56 0 98 15.667 126 47c24 27.333 40.667 78.333 50 153l50 409h74l-53 -429c-5.33301 -44 -13.166 -80.5 -23.499 -109.5s-28.5 -55.833 -54.5 -80.5
c-42 -40 -101 -60 -177 -60c-69.333 0 -123.666 18.667 -162.999 56c-38.667 37.333 -58 83.333 -58 138c0 25.333 2.33301 59 7 101l48 384h74z" />
    <glyph glyph-name="V" unicode="V" horiz-adv-x="556" 
d="M90 667h81l125 -509l251 509h83l-357 -707z" />
    <glyph glyph-name="W" unicode="W" horiz-adv-x="958" 
d="M90 667h81l115 -500l274 534l133 -534l256 500h83l-366 -702l-131 534l-275 -534z" />
    <glyph glyph-name="X" unicode="X" horiz-adv-x="502" 
d="M14 0l239 345l-139 322h82l107 -251l173 251h84l-223 -322l151 -345h-82l-119 274l-189 -274h-84z" />
    <glyph glyph-name="Y" unicode="Y" horiz-adv-x="530" 
d="M227 0l35 287l-172 380h84l133 -298l209 298h88l-268 -380l-35 -287h-74z" />
    <glyph glyph-name="Z" unicode="Z" horiz-adv-x="536" 
d="M594 667l-437 -597h354l-9 -70h-478l437 597h-317l9 70h441z" />
    <glyph glyph-name="bracketleft" unicode="[" horiz-adv-x="289" 
d="M328 663h-96l-94 -767h96l-8 -66h-168l111 899h168z" />
    <glyph glyph-name="backslash" unicode="\" horiz-adv-x="588" 
d="M569 -170l-57 -28l-404 927l58 30z" />
    <glyph glyph-name="bracketright" unicode="]" horiz-adv-x="289" 
d="M28 -104h96l94 767h-96l9 66h168l-111 -899h-168z" />
    <glyph glyph-name="asciicircum" unicode="^" 
d="M295 612l-146 -247h-78l177 302h94l177 -302h-78z" />
    <glyph glyph-name="underscore" unicode="_" 
d="M0 -132v64h500v-64h-500z" />
    <glyph glyph-name="grave" unicode="`" 
d="M310 497l-118 135l78 34l87 -145z" />
    <glyph glyph-name="a" unicode="a" horiz-adv-x="528" 
d="M432 356l7.00195 59.001h72l-51 -415h-72l7 58c-16 -22 -33.333 -38.333 -52 -49c-24.667 -14 -53.334 -21 -86.001 -21c-57.333 0 -102.333 17 -135 51c-36 38 -54 87.333 -54 148c0 77.333 24 138.666 72 183.999c38 36 87.667 54 149 54c34 0 63.333 -6.66699 88 -20
c23.333 -12 41.666 -28.333 54.999 -49zM295.002 361.001c-39.333 0 -72.667 -13.001 -100 -39.001c-35.333 -33.333 -53 -76.666 -53 -129.999c0 -46 14.333 -82.333 43 -109c21.333 -20.667 49.333 -31 84 -31c43.333 0 77.666 13.667 102.999 41
c31.333 32.667 47 77.667 47 135c0 42.667 -13 76 -39 100c-23.333 22 -51.666 33 -84.999 33z" />
    <glyph glyph-name="b" unicode="b" horiz-adv-x="528" 
d="M147 60l-6.99805 -60.001h-72l90 729h72l-46 -372c15.333 20.667 33.333 36.667 54 48c24 13.333 51.667 20 83 20c57.333 0 102.666 -16.333 135.999 -49c36 -35.333 54 -82.333 54 -141c0 -79.333 -24 -142.333 -72 -189c-39.333 -38.667 -89.333 -58 -150 -58
c-36 0 -66.667 7.33301 -92 22c-20.667 12.667 -37.334 29.334 -50.001 50.001zM290.002 51.999c36.667 0 68 12.332 94 36.999c35.333 34.667 53 79.334 53 134.001c0 42 -12.667 75.667 -38 101c-23.333 24.667 -53.333 37 -90 37c-38 0 -70.667 -13.333 -98 -40
c-34.667 -33.333 -52 -75.333 -52 -126c0 -44 14 -80 42 -108c23.333 -23.333 53 -35 89 -35z" />
    <glyph glyph-name="c" unicode="c" horiz-adv-x="440" 
d="M442 385l-10.001 -86c-17.333 19.333 -34.666 34 -51.999 44c-22 12 -47 18 -75 18c-43.333 0 -80.333 -14.333 -111 -43c-35.333 -34 -53 -76 -53 -126c0 -42.667 13.333 -77.334 40 -104.001c24 -24 56 -36 96 -36c28 0 53.667 6 77 18
c20.667 10.667 40 26.334 58 47.001l-10 -86c-20.667 -15.333 -40.667 -26 -60 -32c-22 -7.33301 -46.667 -11 -74 -11c-61.333 0 -110 18.333 -146 55c-36.667 38 -55 86.333 -55 145c0 69.333 24 127.333 72 174c42 42 98 63 168 63c50.667 0 95.667 -13.333 135 -40z" />
    <glyph glyph-name="d" unicode="d" horiz-adv-x="528" 
d="M432 356l46 373h72l-90 -729h-72l7 58c-14.667 -22 -34 -39.333 -58 -52c-23.333 -12 -50.333 -18 -81 -18c-51.333 0 -93.666 15.667 -126.999 47c-40.667 39.333 -61 90.333 -61 153c0 34 6.5 67.167 19.5 99.5s30.5 59.166 52.5 80.499
c39.333 38 88.666 57 147.999 57c33.333 0 63.333 -6.66699 90 -20c21.333 -11.333 39.333 -27.666 54 -48.999zM291 361c-38 0 -70.334 -12.333 -97.001 -37c-34.667 -32 -52 -75 -52 -129c0 -43.333 13 -78.666 39 -105.999c23.333 -24.667 54 -37 92 -37
c40.667 0 73.334 12 98.001 36c32 32 48 75.667 48 131c0 43.333 -12.667 78.666 -38 105.999c-22 24 -52 36 -90 36z" />
    <glyph glyph-name="e" unicode="e" horiz-adv-x="483" 
d="M395 139l61.001 -32.999c-22.667 -38 -48.334 -66.667 -77.001 -86c-32.667 -21.333 -72.667 -32 -120 -32c-58 0 -103.667 17.333 -137 52c-36.667 38 -55 87.667 -55 149c0 71.333 23.667 130.666 71 177.999c38.667 38.667 87 58 145 58
c57.333 0 102.333 -16.333 135 -49c40.667 -42 56.334 -103 47.001 -183h-323c-0.666992 -48 11.666 -84.667 36.999 -110c20.667 -20.667 48 -31 82 -31c31.333 0 58 7.66699 80 23c20.667 14.667 38.667 36 54 64zM154.001 253.001l241.998 0.000976562
c-1.33301 33.333 -13 60.666 -35 81.999c-18 17.333 -43.333 26 -76 26c-37.333 0 -67.666 -11.667 -90.999 -35c-19.333 -20 -32.666 -44.333 -39.999 -73z" />
    <glyph glyph-name="f" unicode="f" horiz-adv-x="240" 
d="M287 349h-101.998l-43 -349h-72l43 349h-40l8 66h40l22 181c6 51.333 20 88 42 110c22.667 22.667 53 34 91 34c20.667 0 40 -3 58 -9l-9 -70c-16.667 6 -31.334 9 -44.001 9c-18.667 0 -33.334 -5.33301 -44.001 -16c-12 -12 -19.667 -34 -23 -66l-21 -173h102z" />
    <glyph glyph-name="g" unicode="g" horiz-adv-x="526" 
d="M430 356l7.00098 58.999h72l-49 -405c-3.33301 -28.667 -6.5 -50.834 -9.5 -66.501s-9.16699 -34.667 -18.5 -57s-21.666 -41.166 -36.999 -56.499c-38.667 -40 -92.667 -60 -162 -60c-60.667 0 -107.334 16.333 -140.001 49c-31.333 32 -47 77 -47 135v6h71v-4
c0 -41.333 11 -72.333 33 -93c20.667 -19.333 49.334 -29 86.001 -29c45.333 0 80.333 12.333 105 37c11.333 11.333 20.5 25.5 27.5 42.5s11.333 30.667 13 41s3.5 24.833 5.5 43.5l6 60c-14 -22 -33.667 -39.333 -59 -52c-25.333 -12 -52 -18 -80 -18
c-58 0 -103.667 17.667 -137 53c-34.667 35.333 -52 82.333 -52 141c0 75.333 22.333 136 67 182c39.333 40.667 90.666 61 153.999 61c37.333 0 68 -6.66699 92 -20c21.333 -11.333 38.666 -27.666 51.999 -48.999zM294.001 360.999c-39.333 0 -72.667 -12.667 -100 -38
c-36 -34 -54 -79.333 -54 -136c0 -43.333 12.333 -77.333 37 -102c22 -22 50.333 -33 85 -33c41.333 0 75.333 12 102 36c17.333 15.333 30.5 36 39.5 62s13.5 51.333 13.5 76c0 40.667 -12 74 -36 100c-22 23.333 -51 35 -87 35z" />
    <glyph glyph-name="h" unicode="h" horiz-adv-x="469" 
d="M68 0l90 729h72l-45 -362c9.33301 14 23.333 27 42 39c20.667 12.667 46 19 76 19c42 0 75.333 -12 100 -36c22 -22 33 -53 33 -93c0 -12.667 -2 -35.667 -6 -69l-28 -227h-72l25 207c4 34 6 57.667 6 71c0 27.333 -7 48 -21 62s-33.333 21 -58 21
c-31.333 0 -56 -9.66699 -74 -29c-20 -20.667 -33.667 -59 -41 -115l-27 -217h-72z" />
    <glyph glyph-name="i" unicode="i" horiz-adv-x="208" 
d="M119 415h72l-51 -415h-72zM123 566c0 14.667 4.66602 27.333 13.999 38c10 12.667 24.333 19 43 19c13.333 0 24 -4 32 -12c8.66699 -8.66699 13 -19.667 13 -33c0 -16 -5.33301 -29.333 -16 -40c-10.667 -11.333 -24 -17 -40 -17c-13.333 0 -24.666 4.66699 -33.999 14
c-8 8 -12 18.333 -12 31z" />
    <glyph glyph-name="j" unicode="j" horiz-adv-x="207" 
d="M119 415h72l-80 -645h-72zM122 566c0 14.667 4.66602 27.333 13.999 38c10 12.667 24.333 19 43 19c13.333 0 24 -4 32 -12c8.66699 -8.66699 13 -19.667 13 -33c0 -16 -5.33301 -29.333 -16 -40c-10.667 -11.333 -24 -17 -40 -17c-13.333 0 -24.666 4.66699 -33.999 14
c-8 8 -12 18.333 -12 31z" />
    <glyph glyph-name="k" unicode="k" horiz-adv-x="422" 
d="M158 729h72l-58 -468l171 154h94l-202 -178l181 -237h-92l-143 189l-20 -18l-21 -171h-72z" />
    <glyph glyph-name="l" unicode="l" horiz-adv-x="208" 
d="M158 729h72l-90 -729h-72z" />
    <glyph glyph-name="m" unicode="m" horiz-adv-x="684" 
d="M68 0l51 414.996h72l-5 -44c11.333 16.667 24.666 29.334 39.999 38.001c19.333 10.667 40.666 16 63.999 16c28 0 51 -5.66699 69 -17s32 -28 42 -50c10.667 19.333 25.334 35 44.001 47c21.333 13.333 47.333 20 78 20c40.667 0 73 -11.667 97 -35
c22 -21.333 33 -49.666 33 -84.999c0 -7.33301 -2.66699 -35 -8 -83l-27 -222h-72l28 222c4 30.667 6 51.334 6 62.001c0 24.667 -6.66699 43.667 -20 57s-30.666 20 -51.999 20c-24 0 -44.667 -8 -62 -24c-20 -19.333 -33 -54.666 -39 -105.999l-28 -231h-72l30 246
c6 46 0.333008 77.667 -17 95c-12 13.333 -29.667 20 -53 20s-43 -8 -59 -24c-20.667 -20.667 -34 -57.667 -40 -111l-28 -226h-72z" />
    <glyph glyph-name="n" unicode="n" horiz-adv-x="469" 
d="M68 0l50.999 415h72l-6 -48c9.33301 14 23.333 27 42 39c20.667 12.667 46.334 19 77.001 19c42 0 75 -12 99 -36c22 -22 33 -53 33 -93c0 -12.667 -2 -35.667 -6 -69l-28 -227h-72l25 207c4 34 6 57.667 6 71c0 27.333 -7 48 -21 62s-33.333 21 -58 21
c-31.333 0 -56 -9.66699 -74 -29c-20 -20.667 -33.667 -59 -41 -115l-27 -217h-72z" />
    <glyph glyph-name="o" unicode="o" horiz-adv-x="528" 
d="M268 -12c-62.667 0 -111.999 18.999 -147.999 56.999c-35.333 38 -53 86.333 -53 145c0 68.667 25 126.334 75 173.001c45.333 41.333 100.666 62 165.999 62c63.333 0 114 -19 152 -57c34 -34 51 -79.333 51 -136c0 -74.667 -23.333 -134.667 -70 -180
c-43.333 -42.667 -101 -64 -173 -64zM307.001 360.999c-44 0 -81.667 -15.334 -113 -46.001c-35.333 -34 -53 -77.333 -53 -130c0 -37.333 12 -68.666 36 -93.999c24.667 -26 56.667 -39 96 -39c46 0 83.667 16 113 48c33.333 35.333 50 79 50 131
c0 37.333 -11.333 68 -34 92c-24 25.333 -55.667 38 -95 38z" />
    <glyph glyph-name="p" unicode="p" horiz-adv-x="528" 
d="M147 58l-35.9951 -287.999h-72l80 645h72l-7 -58c15.333 20.667 34.666 37 57.999 49c23.333 12.667 51.666 19 84.999 19c54 0 97.333 -16 130 -48c36 -34.667 54 -82.334 54 -143.001c0 -80.667 -24.333 -144.667 -73 -192c-36.667 -36 -86.334 -54 -149.001 -54
c-38.667 0 -70.334 7.66699 -95.001 23c-18.667 12 -34.334 27.667 -47.001 47zM287.005 52.001c37.333 0 68.666 11.667 93.999 35c37.333 34.667 56 82 56 142c0 40.667 -12 73 -36 97c-22 23.333 -52.667 35 -92 35c-41.333 0 -75.666 -14.667 -102.999 -44
c-30.667 -32.667 -46 -74.667 -46 -126c0 -40 11.333 -73 34 -99c24 -26.667 55 -40 93 -40z" />
    <glyph glyph-name="q" unicode="q" horiz-adv-x="529" 
d="M433 356l7 59h72l-80 -645h-72l36 288c-16.667 -22.667 -36 -39.667 -58 -51c-25.333 -12.667 -54.666 -19 -87.999 -19c-56 0 -100 17.333 -132 52c-33.333 34.667 -50 80.667 -50 138c0 79.333 24 142.333 72 189c39.333 38.667 92.333 58 159 58
c32.667 0 61 -7 85 -21c21.333 -12 37.666 -28 48.999 -48zM294 361c-40 0 -72.999 -13.334 -98.999 -40.001c-34.667 -35.333 -52 -82.666 -52 -141.999c0 -38.667 11.333 -70 34 -94c21.333 -22 50 -33 86 -33c42.667 0 77.667 13.667 105 41c34.667 34.667 52 79 52 133
c0 40.667 -11.333 73 -34 97c-22.667 25.333 -53.334 38 -92.001 38z" />
    <glyph glyph-name="r" unicode="r" horiz-adv-x="296" 
d="M68 0l51.001 415h72l-6 -45c10 16.667 24 30 42 40s38 15 60 15c23.333 0 43.666 -5.66699 60.999 -17l-42 -65c-12.667 9.33301 -27 14 -43 14c-22 0 -40.333 -7.33301 -55 -22c-20 -19.333 -33.667 -58 -41 -116l-27 -219h-72z" />
    <glyph glyph-name="s" unicode="s" horiz-adv-x="350" 
d="M339 350l-62.999 -30.9971c-3.33301 10.667 -9 20 -17 28c-9.33301 9.33301 -21.333 14 -36 14c-16 0 -29.333 -4.33301 -40 -13c-10.667 -10 -16 -22.333 -16 -37c0 -11.333 4 -21 12 -29c6 -6 19.667 -14 41 -24l38 -19c21.333 -10.667 39 -23 53 -37
c18 -20 27 -44.667 27 -74c0 -38.667 -11.667 -70.667 -35 -96c-27.333 -29.333 -67 -44 -119 -44c-36 0 -65 9 -87 27c-24 20 -40.333 46.333 -49 79l63 26c5.33301 -20.667 13.666 -37 24.999 -49c12.667 -12.667 29.334 -19 50.001 -19c24 0 42.667 6 56 18
c14 13.333 21 31 21 53c0 17.333 -7.33301 31.666 -22 42.999c-6.66699 5.33301 -21 13.666 -43 24.999l-23 11c-24.667 12 -43 24.667 -55 38c-15.333 17.333 -23 39 -23 65c0 33.333 11.667 61.666 35 84.999s54.666 35 93.999 35c29.333 0 54.333 -8.33301 75 -25
c17.333 -14 30 -30.667 38 -50z" />
    <glyph glyph-name="t" unicode="t" horiz-adv-x="214" 
d="M257 349h-72l-43 -349h-72l43 349h-44l8 66h44l18 150h72l-18 -150h72z" />
    <glyph glyph-name="u" unicode="u" horiz-adv-x="465" 
d="M190 415l-27.0039 -218.999c-2.66699 -25.333 -4 -43.333 -4 -54c0 -31.333 8.33301 -54.333 25 -69c16 -14 36.667 -21 62 -21c26.667 0 49 8.33301 67 25c7.33301 7.33301 13.5 17.166 18.5 29.499s8.33301 23.5 10 33.5s3.83398 25 6.50098 45l28 230h72l-29 -238
c-3.33301 -24 -6.16602 -42.5 -8.49902 -55.5s-7.16602 -28.333 -14.499 -46s-16.666 -32.5 -27.999 -44.5c-28.667 -28.667 -68.667 -43 -120 -43c-52 0 -92.333 12.667 -121 38c-27.333 24 -41 59 -41 105c0 11.333 2 35 6 71l26 213h72z" />
    <glyph glyph-name="v" unicode="v" horiz-adv-x="424" 
d="M59 415h78l90 -280l158 280h82l-258 -442z" />
    <glyph glyph-name="w" unicode="w" horiz-adv-x="682" 
d="M59 415h78l88 -282l169 314l90 -314l159 282h82l-261 -444l-89 310l-167 -310z" />
    <glyph glyph-name="x" unicode="x" horiz-adv-x="452" 
d="M8 0l204 222l-127 193h86l90 -141l126 141h88l-176 -194l145 -221h-86l-110 169l-152 -169h-88z" />
    <glyph glyph-name="y" unicode="y" horiz-adv-x="460" 
d="M39 -230l165 269l-145 376h80l110 -297l172 297h82l-384 -645h-80z" />
    <glyph glyph-name="z" unicode="z" horiz-adv-x="460" 
d="M503 415l-343 -349h288l-8 -66h-432l343 349h-242l8 66h386z" />
    <glyph glyph-name="braceleft" unicode="{" horiz-adv-x="503" 
d="M342 581l-23 -188.995c-3.33301 -28.667 -10.333 -51.667 -21 -69c-13.333 -20.667 -31.333 -35.334 -54 -44.001c16 -6.66699 28 -16.334 36 -29.001c9.33301 -13.333 14 -29.333 14 -48l-3 -36l-22 -182c-2.66699 -17.333 -4 -31.333 -4 -42
c0 -20.667 7.33301 -35 22 -43c9.33301 -5.33301 26.333 -8 51 -8h15l-8 -61h-27c-41.333 0 -71.333 6.33301 -90 19c-24.667 16 -37 42 -37 78c0 13.333 1.66699 31.666 5 54.999l22 166c2 14 3 26 3 36c0 21.333 -4.66699 37.333 -14 48
c-8.66699 10.667 -20 16.667 -34 18l7 58c20.667 4 36.667 13.333 48 28c9.33301 11.333 16 31.666 20 60.999l24 196c7.33301 54 26.666 91.667 57.999 113c22 15.333 55 23 99 23h27l-7 -61h-15c-30 0 -51.333 -5.33301 -64 -16
c-15.333 -12.667 -24.666 -36.334 -27.999 -71.001z" />
    <glyph glyph-name="bar" unicode="|" 
d="M214 -250v1000h72v-1000h-72z" />
    <glyph glyph-name="braceright" unicode="}" horiz-adv-x="503" 
d="M222 -22l22.998 188c4 31.333 11.333 55.333 22 72c13.333 20.667 31 34.334 53 41.001c-14.667 7.33301 -26 16.333 -34 27c-10 13.333 -15 30 -15 50c0 12.667 1.66699 34 5 64l16 134c3.33301 26 5 44.333 5 55c0 22 -6.33301 37.667 -19 47c-11.333 8 -29 12 -53 12
h-15l7 61h27c42.667 0 73 -6.33301 91 -19c24 -16 36 -43.667 36 -83c0 -12 -2 -34.667 -6 -68l-17 -137c-3.33301 -30 -5 -46.667 -5 -50c0 -23.333 5.66699 -40 17 -50c8 -7.33301 18.333 -12 31 -14l-7 -58c-20.667 -2 -36.667 -11 -48 -27
c-11.333 -15.333 -18 -36 -20 -62l-24 -195c-5.33301 -46 -18.666 -79.667 -39.999 -101c-24 -23.333 -63.333 -35 -118 -35h-27l8 61h15c31.333 0 53.333 5.66699 66 17s21.334 34.666 26.001 69.999z" />
    <glyph glyph-name="asciitilde" unicode="~" 
d="M483 361l41.002 -26.002c-16.667 -29.333 -36.334 -53.666 -59.001 -72.999c-28.667 -26 -62.334 -39 -101.001 -39c-25.333 0 -61.333 12 -108 36c-37.333 20 -66.666 30 -87.999 30c-18.667 0 -36.334 -6.66699 -53.001 -20c-15.333 -13.333 -29 -30.666 -41 -51.999
l-41 26c18 33.333 37 59.333 57 78c26 25.333 57.667 38 95 38c27.333 0 65.666 -12.667 114.999 -38c36 -18.667 64 -28 84 -28c22.667 0 42.334 7 59.001 21c14 11.333 27.333 27 40 47z" />
    <glyph glyph-name="uni00A0" unicode="&#xa0;" horiz-adv-x="233" 
 />
    <glyph glyph-name="exclamdown" unicode="&#xa1;" horiz-adv-x="280" 
d="M150 302h72l-65 -532h-72zM147 392c0 15.333 5.33301 28.332 16 38.999c10 10.667 23 16 39 16c13.333 0 24.333 -4.33301 33 -13s13 -20 13 -34c0 -15.333 -6.33301 -28.666 -19 -39.999c-10.667 -8.66699 -22.667 -13 -36 -13c-14 0 -25.333 4.33301 -34 13
c-8 8 -12 18.667 -12 32z" />
    <glyph glyph-name="cent" unicode="&#xa2;" horiz-adv-x="568" 
d="M514 518l-10.001 -86c-12 16 -27.333 30 -46 42c-16 10 -33.667 15.667 -53 17l-37 -305c20 0.666992 40.667 6.66699 62 18c22 12 40 27.333 54 46l-10 -86c-34.667 -26 -72.667 -40 -114 -42l-13 -108h-60l13 110c-42.667 5.33301 -78 22.666 -106 51.999
c-36.667 38 -55 86.333 -55 145c0 32 6.33301 63.5 19 94.5s30.334 57.5 53.001 79.5c38 38 85.667 58.667 143 62l12 98h60l-13 -100c36 -3.33301 69.667 -15.666 101 -36.999zM307.999 190l38 302c-36 -4.66699 -66.667 -21.667 -92 -51c-27.333 -32 -41 -70.333 -41 -115
c0 -37.333 8.66699 -67.333 26 -90c16 -22 39 -37.333 69 -46z" />
    <glyph glyph-name="sterling" unicode="&#xa3;" horiz-adv-x="568" 
d="M549 458l-72.998 -0.00292969c2 10.667 3 21.334 3 32.001c0 36 -9.33301 63.667 -28 83c-20.667 22 -49.334 33 -86.001 33c-40 0 -71.333 -12 -94 -36c-21.333 -21.333 -32 -50.666 -32 -87.999c0 -30 9.33301 -69.667 28 -119l19 -50h126l-7 -56h-107
c4.66699 -17.333 7 -34 7 -50c0 -36 -11.333 -71 -34 -105l56 -23c32.667 -13.333 56.667 -20 72 -20c20 0 37.667 7.66699 53 23c14 12.667 25.667 28 35 46l56 -36c-18 -32.667 -38.333 -57.667 -61 -75c-23.333 -18.667 -52 -28 -86 -28
c-26.667 0 -53.667 5.66699 -81 17l-29 12c-36.667 15.333 -65.667 23 -87 23c-18.667 0 -36.334 -6.66699 -53.001 -20c-11.333 -9.33301 -22.333 -20.666 -33 -33.999l-52 39c18 23.333 37.333 42.666 58 57.999c24.667 17.333 50.667 26.333 78 27
c22 30.667 33 61.667 33 93c0 20 -3 37.667 -9 53h-112l7 56h87l-13 37c-19.333 55.333 -29 97.333 -29 126c0 54.667 18.333 101.334 55 140.001c38 40 88.333 60 151 60c56 0 101 -15.667 135 -47s51 -74.333 51 -129c0 -15.333 -1.33301 -29.333 -4 -42z" />
    <glyph glyph-name="currency" unicode="&#xa4;" horiz-adv-x="667" 
d="M138 636l95 -93.999c39.333 34 87.666 51 144.999 51s105.666 -17 144.999 -51l95 94l40 -40l-95 -95c34 -40 51 -87.333 51 -142c0 -55.333 -17 -102.666 -51 -141.999l94 -94l-40 -40l-94 93c-39.333 -34 -87.666 -51 -144.999 -51s-105.666 17 -144.999 51l-94 -93
l-40 40l94 94c-34 39.333 -51 86.666 -51 141.999s17 102.666 51 141.999l-95 95zM378 189.001c48.667 0 88.667 15.667 120 47c32 32.667 48 73.667 48 123s-16.333 90.333 -49 123c-31.333 31.333 -71 47 -119 47c-48.667 0 -88.667 -15.667 -120 -47
c-32 -32 -48 -73 -48 -123c0 -49.333 16.333 -90.333 49 -123c31.333 -31.333 71 -47 119 -47z" />
    <glyph glyph-name="yen" unicode="&#xa5;" horiz-adv-x="568" 
d="M565 384h-141l-62 -88h192l-7 -56h-198l-29 -240h-74l29 240h-195l7 56h189l-40 88h-138l7 56h106l-103 227h85l133 -298l209 298h89l-161 -227h109z" />
    <glyph glyph-name="brokenbar" unicode="&#xa6;" 
d="M214 390v360h72v-360h-72zM214 -250v360h72v-360h-72z" />
    <glyph glyph-name="section" unicode="&#xa7;" horiz-adv-x="566" 
d="M530 540l-72.001 -0.00292969c1.33301 6.66699 2 16 2 28c0 32.667 -10 57 -30 73c-17.333 14.667 -40 22 -68 22c-32 0 -57.333 -9.33301 -76 -28c-19.333 -18 -29 -41.333 -29 -70c0 -27.333 9.33301 -49.666 28 -66.999c11.333 -10.667 38.666 -24.667 81.999 -42
l26 -11c33.333 -14 58.333 -30.667 75 -50c23.333 -26.667 35 -62 35 -106c0 -42 -11.333 -77 -34 -105c-20.667 -26 -47.667 -45 -81 -57c20.667 -16 36 -33 46 -51c11.333 -19.333 17 -41.666 17 -66.999c0 -55.333 -16.333 -98.666 -49 -129.999
c-34 -32.667 -79.333 -49 -136 -49c-46 0 -83.333 13 -112 39c-34.667 31.333 -52 80 -52 146h72c0 -35.333 6.66699 -62.666 20 -81.999c16.667 -24.667 42.334 -37 77.001 -37c32.667 0 58.334 9.33301 77.001 28s28 42.667 28 72c0 24.667 -7.66699 44.667 -23 60
c-10.667 12 -33 25.333 -67 40l-33 14c-34 13.333 -61.333 31.333 -82 54c-26 28.667 -39 64 -39 106c0 40.667 10.667 75 32 103s50.333 48.333 87 61c-44 29.333 -66 70.333 -66 123c0 49.333 16.667 90 50 122c34 33.333 79.333 50 136 50c48.667 0 87 -13.667 115 -41
c30 -28.667 45 -69.334 45 -122.001c0 -11.333 -0.333008 -20 -1 -26zM324.999 388.997c-37.333 0 -66.332 -10.999 -86.999 -32.999s-31 -50 -31 -84c0 -29.333 9.33301 -53.333 28 -72c19.333 -19.333 45.666 -29 78.999 -29c32 0 59 10.333 81 31
c21.333 20 32 47.667 32 83c0 31.333 -9.66699 56.666 -29 75.999c-18 18.667 -42.333 28 -73 28z" />
    <glyph glyph-name="dieresis" unicode="&#xa8;" 
d="M354 543c0 15.333 5.66895 28.667 17.002 40s24.666 17 39.999 17c12 0 22.333 -4.16699 31 -12.5s13 -18.833 13 -31.5c0 -14.667 -6 -28 -18 -40c-10.667 -10.667 -23.334 -16 -38.001 -16c-12 0 -22.5 4 -31.5 12s-13.5 18.333 -13.5 31zM180.002 543.001
c0 15.333 5.66895 28.667 17.002 40s24.666 17 39.999 17c12 0 22.333 -4.16699 31 -12.5s13 -18.833 13 -31.5c0 -14.667 -6 -28 -18 -40c-10.667 -10.667 -23.334 -16 -38.001 -16c-12 0 -22.5 4 -31.5 12s-13.5 18.333 -13.5 31z" />
    <glyph glyph-name="copyright" unicode="&#xa9;" horiz-adv-x="740" 
d="M555 497v-80c-31.333 38.667 -72 58 -122 58c-40.667 0 -74.667 -14.667 -102 -44c-24 -26.667 -36 -59.667 -36 -99c0 -42.667 12.333 -77.334 37 -104.001c26 -28.667 59.333 -43 100 -43c50 0 92 20.333 126 61v-81c-36.667 -26.667 -78 -40 -124 -40
c-60.667 0 -110.334 19 -149.001 57c-39.333 39.333 -59 88 -59 146c0 58.667 19.667 108.334 59 149.001c38.667 38.667 88 58 148 58c46.667 0 87.334 -12.667 122.001 -38zM756 334c0 -92 -31.333 -171.333 -94 -238c-67.333 -71.333 -151 -107 -251 -107
s-183.667 35.667 -251 107c-62.667 66.667 -94 146 -94 238c0 91.333 31.333 170.333 94 237c67.333 71.333 151 107 251 107s183.667 -35.667 251 -107c62.667 -66.667 94 -145.667 94 -237zM411 622c-36 0 -72.333 -7.33301 -109 -22s-68 -34.667 -94 -60
c-27.333 -26.667 -48.5 -58.334 -63.5 -95.001s-22.5 -73.667 -22.5 -111c0 -38 7.5 -75.333 22.5 -112s36.167 -68.334 63.5 -95.001c26 -25.333 57.333 -45.333 94 -60s73 -22 109 -22s72.333 7.33301 109 22s68 34.667 94 60c27.333 26.667 48.5 58.334 63.5 95.001
s22.5 74 22.5 112c0 37.333 -7.5 74.333 -22.5 111s-36.167 68.334 -63.5 95.001c-26 25.333 -57.333 45.333 -94 60s-73 22 -109 22z" />
    <glyph glyph-name="ordfeminine" unicode="&#xaa;" horiz-adv-x="365" 
d="M334 627l4.00098 34h51l-33 -266h-51l4 32c-8.66699 -10.667 -20 -19.667 -34 -27c-16.667 -8.66699 -34.667 -13 -54 -13c-36.667 0 -66.334 10.667 -89.001 32c-24 22.667 -36 53 -36 91c0 51.333 18 92.333 54 123c26.667 22.667 59.667 34 99 34
c20 0 37.333 -3.66699 52 -11c12.667 -6 23.667 -15.667 33 -29zM248.001 623c-27.333 0 -50 -9 -68 -27c-22 -20.667 -33 -47.334 -33 -80.001c0 -24 7.66699 -44.333 23 -61c14.667 -16 35 -24 61 -24c26.667 0 48.667 9.33301 66 28c19.333 20.667 29 47.334 29 80.001
c0 25.333 -8 46 -24 62c-14.667 14.667 -32.667 22 -54 22zM84.001 333h265l-5 -42h-265z" />
    <glyph glyph-name="guillemotleft" unicode="&#xab;" horiz-adv-x="430" 
d="M138 212l102 -146l-50 -36l-128 182l173 188l42 -37zM286 212l102 -146l-50 -36l-128 182l173 188l42 -37z" />
    <glyph glyph-name="logicalnot" unicode="&#xac;" 
d="M480 0h-70v203h-364v64h434v-267z" />
    <glyph glyph-name="uni00AD" unicode="&#xad;" horiz-adv-x="320" 
d="M72 176l9 74h220l-9 -74h-220z" />
    <glyph glyph-name="registered" unicode="&#xae;" horiz-adv-x="740" 
d="M548 145h-68l-122 158v-158h-54v374h68c55.333 0 94 -11.667 116 -35c18.667 -18.667 28 -43 28 -73c0 -30.667 -9.33301 -54.667 -28 -72c-16 -16 -39 -26.333 -69 -31zM358 471v-120h22c31.333 0 53 5.66699 65 17c11.333 10.667 17 25 17 43s-4.33301 31.667 -13 41
c-11.333 12.667 -35 19 -71 19h-20zM756 332c0 -92 -31.333 -171.333 -94 -238c-67.333 -71.333 -151 -107 -251 -107s-183.667 35.667 -251 107c-62.667 66.667 -94 146 -94 238c0 91.333 31.333 170.333 94 237c67.333 71.333 151 107 251 107s183.667 -35.667 251 -107
c62.667 -66.667 94 -145.667 94 -237zM411 620c-36 0 -72.333 -7.33301 -109 -22s-68 -34.667 -94 -60c-27.333 -26.667 -48.5 -58.334 -63.5 -95.001s-22.5 -73.667 -22.5 -111c0 -38 7.5 -75.333 22.5 -112s36.167 -68.334 63.5 -95.001c26 -25.333 57.333 -45.333 94 -60
s73 -22 109 -22s72.333 7.33301 109 22s68 34.667 94 60c27.333 26.667 48.5 58.334 63.5 95.001s22.5 74 22.5 112c0 37.333 -7.5 74.333 -22.5 111s-36.167 68.334 -63.5 95.001c-26 25.333 -57.333 45.333 -94 60s-73 22 -109 22z" />
    <glyph glyph-name="macron" unicode="&#xaf;" 
d="M162 513l7 60h302l-7 -60h-302z" />
    <glyph glyph-name="degree" unicode="&#xb0;" horiz-adv-x="495" 
d="M173 520c0 42.667 14.332 79.002 42.999 109.002c26 26.667 59.667 40 101 40c42.667 0 75.667 -11.667 99 -35c23.333 -22.667 35 -53.667 35 -93c0 -46.667 -14 -83.334 -42 -110.001c-26 -25.333 -61 -38 -105 -38c-43.333 0 -76.666 13 -99.999 39
c-20.667 23.333 -31 52.666 -31 87.999zM222.999 522.002c0 -25.333 7.33301 -45.334 22 -60.001c13.333 -15.333 33.666 -23 60.999 -23c26.667 0 48.334 8.33301 65.001 25c20 18.667 30 44 30 76c0 24.667 -8.33301 45.334 -25 62.001c-16.667 14 -36.667 21 -60 21
c-26 0 -47.667 -8.66699 -65 -26c-18.667 -20 -28 -45 -28 -75z" />
    <glyph glyph-name="plusminus" unicode="&#xb1;" 
d="M62 345v66h181v171h72v-171h181v-66h-181v-171h-72v171h-181zM62 67v66h434v-66h-434z" />
    <glyph glyph-name="twosuperior" unicode="&#xb2;" horiz-adv-x="350" 
d="M329 267l-265 -0.000976562l167 169c32 33.333 51 54 57 62c17.333 22 26 44.333 26 67c0 18 -6 32.667 -18 44c-12.667 12 -30.667 18 -54 18c-24.667 0 -44 -7.33301 -58 -22c-14 -15.333 -21.667 -35.333 -23 -60h-50c3.33301 38 17.666 69.333 42.999 94
c23.333 22.667 54.333 34 93 34c36.667 0 65.667 -10 87 -30s32 -45 32 -75c0 -32 -14 -65 -42 -99c-11.333 -13.333 -32.666 -35.666 -63.999 -66.999l-88 -89h163z" />
    <glyph glyph-name="threesuperior" unicode="&#xb3;" horiz-adv-x="350" 
d="M84 376l49.999 -0.00195312c0 -20 6.33301 -37 19 -51c12 -12.667 29.333 -19 52 -19c24 0 43 7 57 21c15.333 16.667 23 38 23 64c0 20.667 -5.66699 36.334 -17 47.001s-29.333 16 -54 16h-5l5 46h7c28.667 0 49.667 7 63 21c11.333 11.333 17 27.333 17 48
c0 16.667 -4.66699 30.334 -14 41.001c-10 11.333 -25.333 17 -46 17s-36.667 -5.66699 -48 -17c-12 -12 -19.333 -27.667 -22 -47h-50c6 35.333 19 62.333 39 81c20 19.333 47.667 29 83 29c34.667 0 62.334 -9.33301 83.001 -28c18.667 -16.667 28 -40.667 28 -72
c0 -24 -6 -44.333 -18 -61c-11.333 -15.333 -26.333 -27 -45 -35c14 -6.66699 25.333 -16.667 34 -30c8.66699 -14 13 -31 13 -51c0 -41.333 -12.333 -74.333 -37 -99c-24 -24.667 -57.333 -37 -100 -37c-32.667 0 -58.667 8.33301 -78 25c-24.667 22 -37.667 52.333 -39 91
z" />
    <glyph glyph-name="acute" unicode="&#xb4;" 
d="M394 666l70 -34l-151 -135l-42 24z" />
    <glyph glyph-name="mu" unicode="&#xb5;" horiz-adv-x="522" 
d="M111 -230l-71.999 -0.000976562l79 645h72l-23 -188c-3.33301 -23.333 -5 -46.333 -5 -69c0 -33.333 10 -59.666 30 -78.999c19.333 -18 45.666 -27 78.999 -27c35.333 0 64.666 11.333 87.999 34c25.333 24.667 42 68.334 50 131.001l24 198h72l-51 -415h-72l9 70
c-12 -26 -27.333 -45.333 -46 -58c-21.333 -16 -48.666 -24 -81.999 -24c-34 0 -61 9.33301 -81 28c-15.333 13.333 -27 31.666 -35 54.999z" />
    <glyph glyph-name="mu" unicode="&#x3bc;" horiz-adv-x="522" 
d="M111 -230l-71.999 -0.000976562l79 645h72l-23 -188c-3.33301 -23.333 -5 -46.333 -5 -69c0 -33.333 10 -59.666 30 -78.999c19.333 -18 45.666 -27 78.999 -27c35.333 0 64.666 11.333 87.999 34c25.333 24.667 42 68.334 50 131.001l24 198h72l-51 -415h-72l9 70
c-12 -26 -27.333 -45.333 -46 -58c-21.333 -16 -48.666 -24 -81.999 -24c-34 0 -61 9.33301 -81 28c-15.333 13.333 -27 31.666 -35 54.999z" />
    <glyph glyph-name="paragraph" unicode="&#xb6;" horiz-adv-x="581" 
d="M272 -95h-61.999l50 409h-15c-48.667 0 -88.334 14.667 -119.001 44c-29.333 28 -44 65 -44 111c0 56 18 101.667 54 137c40.667 40.667 103.667 61 189 61h268l-7 -58h-60l-87 -704h-62l87 704h-106z" />
    <glyph glyph-name="periodcentered" unicode="&#xb7;" horiz-adv-x="200" 
d="M78 333c0 19.333 7.33105 36.333 21.998 51c12.667 13.333 28.334 20 47.001 20s33.334 -6 44.001 -18c10 -10 15 -22.667 15 -38c0 -20 -6.66699 -36.667 -20 -50c-14.667 -14.667 -31.667 -22 -51 -22c-16 0 -29 4.66699 -39 14c-12 12 -18 26.333 -18 43z" />
    <glyph glyph-name="cedilla" unicode="&#xb8;" 
d="M260 -52l62 -27l-116 -128l-46 24z" />
    <glyph glyph-name="onesuperior" unicode="&#xb9;" horiz-adv-x="350" 
d="M199 267l43 354h-78l30 46h106l-49 -400h-52z" />
    <glyph glyph-name="ordmasculine" unicode="&#xba;" horiz-adv-x="367" 
d="M254 667c42 0 75.667 -13.333 101 -40c24.667 -24.667 37 -57 37 -97c0 -38 -13.333 -70.333 -40 -97c-29.333 -29.333 -68 -44 -116 -44c-40 0 -73.333 12.667 -100 38c-25.333 25.333 -38 56 -38 92c0 44 16 80.333 48 109c28 26 64 39 108 39zM86 333h271l-5 -42h-271
zM253 623c-30.667 0 -55.001 -8.33398 -73.001 -25.001c-21.333 -19.333 -32 -44.666 -32 -75.999c0 -26 7.66699 -47.333 23 -64c16.667 -16.667 39.334 -25 68.001 -25c28 0 51 7.66699 69 23c22 19.333 33 45.333 33 78c0 25.333 -7.66699 46.333 -23 63
c-16 17.333 -37.667 26 -65 26z" />
    <glyph glyph-name="guillemotright" unicode="&#xbb;" horiz-adv-x="430" 
d="M197 218l-102 146l50 36l128 -182l-173 -188l-42 37zM345 218l-102 146l50 36l128 -182l-173 -188l-42 37z" />
    <glyph glyph-name="onequarter" unicode="&#xbc;" horiz-adv-x="761" 
d="M199 267l43 354h-78l30 46h106l-49 -400h-52zM188 10l470 670l36 -22l-471 -671zM531 122h113l19 155zM731 422l-37 -300h49l-6 -46h-49l-9 -76h-50l9 76h-205z" />
    <glyph glyph-name="onehalf" unicode="&#xbd;" horiz-adv-x="761" 
d="M199 267l43 354h-78l30 46h106l-49 -400h-52zM148 10l470 670l36 -22l-471 -671zM707 0l-265 -0.000976562l167 169c32 33.333 51 54 57 62c17.333 22 26 44.333 26 67c0 18 -6 32.667 -18 44c-12.667 12 -30.667 18 -54 18c-24.667 0 -44 -7.33301 -58 -22
c-14 -15.333 -21.667 -35.333 -23 -60h-50c3.33301 38 17.666 69.333 42.999 94c23.333 22.667 54.333 34 93 34c36.667 0 65.667 -10 87 -30s32 -45 32 -75c0 -32 -14 -65 -42 -99c-11.333 -13.333 -32.666 -35.666 -63.999 -66.999l-88 -89h163z" />
    <glyph glyph-name="threequarters" unicode="&#xbe;" horiz-adv-x="761" 
d="M84 376l49.999 -0.00195312c0 -20 6.33301 -37 19 -51c12 -12.667 29.333 -19 52 -19c24 0 43 7 57 21c15.333 16.667 23 38 23 64c0 20.667 -5.66699 36.334 -17 47.001s-29.333 16 -54 16h-5l5 46h7c28.667 0 49.667 7 63 21c11.333 11.333 17 27.333 17 48
c0 16.667 -4.66699 30.334 -14 41.001c-10 11.333 -25.333 17 -46 17s-36.667 -5.66699 -48 -17c-12 -12 -19.333 -27.667 -22 -47h-50c6 35.333 19 62.333 39 81c20 19.333 47.667 29 83 29c34.667 0 62.334 -9.33301 83.001 -28c18.667 -16.667 28 -40.667 28 -72
c0 -24 -6 -44.333 -18 -61c-11.333 -15.333 -26.333 -27 -45 -35c14 -6.66699 25.333 -16.667 34 -30c8.66699 -14 13 -31 13 -51c0 -41.333 -12.333 -74.333 -37 -99c-24 -24.667 -57.333 -37 -100 -37c-32.667 0 -58.667 8.33301 -78 25c-24.667 22 -37.667 52.333 -39 91
zM207.999 9.99805l470 670l36 -22l-471 -671zM730.999 421.998l-37 -300h49l-6 -46h-49l-9 -76h-50l9 76h-205zM530.999 121.998h113l19 155z" />
    <glyph glyph-name="questiondown" unicode="&#xbf;" horiz-adv-x="440" 
d="M177 147h-72.0039c4.66699 49.333 21.334 87.666 50.001 114.999c25.333 25.333 60.666 38 105.999 38c42 0 75 -12 99 -36c23.333 -23.333 35 -53.333 35 -90c0 -42.667 -13.667 -77 -41 -103c-20 -18.667 -53.667 -36 -101 -52l-46 -15
c-25.333 -8.66699 -44.666 -21.667 -57.999 -39c-12 -16 -18 -36.333 -18 -61c0 -23.333 7.33301 -42.333 22 -57c15.333 -14 34 -21 56 -21c30.667 0 54.334 8 71.001 24c18.667 16.667 28 44 28 82c0 10.667 -0.333008 18.667 -1 24h74v-8c0 -62 -15 -109 -45 -141
c-30 -32.667 -74.667 -49 -134 -49c-41.333 0 -75.333 12 -102 36c-29.333 26.667 -44 61.334 -44 104.001c0 49.333 16 90 48 122c18.667 18.667 46.667 34.334 84 47.001l43 14c35.333 11.333 59 23.666 71 36.999c12.667 14 19 32 19 54c0 20.667 -6.33301 35.667 -19 45
c-12 10 -28 15 -48 15c-25.333 0 -44.666 -8.66699 -57.999 -26c-11.333 -16 -17.666 -35.667 -18.999 -59zM226.996 392c0 15.333 5.33301 28.332 16 38.999c10 10.667 23 16 39 16c13.333 0 24.333 -4.33301 33 -13s13 -20 13 -34c0 -15.333 -6.33301 -28.666 -19 -39.999
c-10.667 -8.66699 -22.667 -13 -36 -13c-14 0 -25.333 4.33301 -34 13c-8 8 -12 18.667 -12 32z" />
    <glyph glyph-name="Agrave" unicode="&#xc0;" horiz-adv-x="622" 
d="M534 0l-55 188h-284l-103 -188h-84l393 699l213 -699h-80zM233 258h226l-80 267zM409 720l-138 117l75 45l110 -130z" />
    <glyph glyph-name="Aacute" unicode="&#xc1;" horiz-adv-x="622" 
d="M534 0l-55 188h-284l-103 -188h-84l393 699l213 -699h-80zM233 258h226l-80 267zM501 882l65 -45l-168 -117l-39 32z" />
    <glyph glyph-name="Acircumflex" unicode="&#xc2;" horiz-adv-x="622" 
d="M534 0l-55 188h-284l-103 -188h-84l393 699l213 -699h-80zM233 258h226l-80 267zM412 797l-97 -76l-51 41l154 119l126 -119l-53 -41z" />
    <glyph glyph-name="Atilde" unicode="&#xc3;" horiz-adv-x="622" 
d="M534 0l-55 188h-284l-103 -188h-84l393 699l213 -699h-80zM233 258h226l-80 267zM526 842l39.002 -35.001c-7.33301 -15.333 -19 -30 -35 -44c-22.667 -18.667 -45.334 -28 -68.001 -28c-17.333 0 -35.333 5 -54 15l-21 12c-17.333 10 -32 15 -44 15
c-12.667 0 -23.334 -4.66699 -32.001 -14c-8 -8 -15 -18 -21 -30l-40 36c13.333 21.333 26.666 37.333 39.999 48c18.667 16 40 24 64 24c18 0 37 -5.66699 57 -17l25 -14c12.667 -7.33301 24.334 -11 35.001 -11c12.667 0 24 4.66699 34 14
c8.66699 8.66699 15.667 18.334 21 29.001z" />
    <glyph glyph-name="Adieresis" unicode="&#xc4;" horiz-adv-x="622" 
d="M534 0l-55 188h-284l-103 -188h-84l393 699l213 -699h-80zM233 258h226l-80 267zM448 778c0 14.667 4.99805 27.333 14.998 38c12 12.667 26 19 42 19c12.667 0 23.334 -4 32.001 -12c8.66699 -8.66699 13 -19 13 -31c0 -16 -5.33301 -30 -16 -42
c-11.333 -11.333 -24.666 -17 -39.999 -17c-14 0 -25.333 4.33301 -34 13c-8 8 -12 18.667 -12 32zM257.998 777.999c0 14.667 4.99902 27.333 14.999 38c12 12.667 26 19 42 19c12 0 22.667 -4 32 -12c8.66699 -8.66699 13 -19 13 -31c0 -16 -5.33301 -30 -16 -42
c-11.333 -11.333 -24.666 -17 -39.999 -17c-14 0 -25.333 4.33301 -34 13c-8 8 -12 18.667 -12 32z" />
    <glyph glyph-name="Aring" unicode="&#xc5;" horiz-adv-x="622" 
d="M534 0l-55 188h-284l-103 -188h-84l393 699l213 -699h-80zM233 258h226l-80 267zM319 809c0 28 9.66797 51.667 29.001 71c17.333 17.333 39.666 26 66.999 26c24.667 0 45 -8 61 -24c14 -16 21 -35.333 21 -58c0 -27.333 -9.33301 -50.333 -28 -69
c-18 -16.667 -40.667 -25 -68 -25c-24 0 -43.333 7 -58 21c-16 16 -24 35.333 -24 58zM367.001 814c0 -10.667 3.33301 -19.333 10 -26c7.33301 -7.33301 16.666 -11 27.999 -11c12.667 0 23.334 4 32.001 12c9.33301 8 14 19 14 33c0 12.667 -4 22.334 -12 29.001
c-6.66699 6.66699 -16 10 -28 10c-12.667 0 -23 -4 -31 -12c-8.66699 -8.66699 -13 -20.334 -13 -35.001z" />
    <glyph glyph-name="AE" unicode="&#xc6;" horiz-adv-x="900" 
d="M538 0l-56 187h-284l-102 -187h-82l379 667h293l20 -70h-269l59 -198h264l20 -70h-262l77 -259h271l20 -70h-348zM239 257h223l-78 261z" />
    <glyph glyph-name="Ccedilla" unicode="&#xc7;" horiz-adv-x="650" 
d="M675 612l-11.002 -92.002c-23.333 26 -49.333 46.333 -78 61c-35.333 18 -73 27 -113 27c-86.667 0 -159 -29 -217 -87c-58 -59.333 -87 -130.666 -87 -213.999c0 -70.667 23.333 -130.667 70 -180c44 -46 100 -69 168 -69c48.667 0 91 9.33301 127 28
c30 15.333 58 35 84 59l-11 -92c-32 -22 -60.333 -37.667 -85 -47c-32.667 -12 -72.667 -18 -120 -18c-94 0 -169.667 29.333 -227 88c-56 56.667 -84 131 -84 223c0 112.667 37.333 205.334 112 278.001c69.333 67.333 159.333 101 270 101
c50.667 0 94.334 -7.66699 131.001 -23c22.667 -10 46.334 -24.333 71.001 -43zM377.998 -52.002l66 -30l-120 -128l-47 26z" />
    <glyph glyph-name="Egrave" unicode="&#xc8;" horiz-adv-x="482" 
d="M514 667l-9 -70h-272l-24 -198h264l-9 -70h-264l-31 -259h272l-9 -70h-346l82 667h346zM359 720l-138 117l75 45l110 -130z" />
    <glyph glyph-name="Eacute" unicode="&#xc9;" horiz-adv-x="482" 
d="M514 667l-9 -70h-272l-24 -198h264l-9 -70h-264l-31 -259h272l-9 -70h-346l82 667h346zM440 882l65 -45l-168 -117l-39 32z" />
    <glyph glyph-name="Ecircumflex" unicode="&#xca;" horiz-adv-x="482" 
d="M514 667l-9 -70h-272l-24 -198h264l-9 -70h-264l-31 -259h272l-9 -70h-346l82 667h346zM362 797l-97 -76l-51 41l154 119l126 -119l-53 -41z" />
    <glyph glyph-name="Edieresis" unicode="&#xcb;" horiz-adv-x="482" 
d="M514 667l-9 -70h-272l-24 -198h264l-9 -70h-264l-31 -259h272l-9 -70h-346l82 667h346zM400 778c0 14.667 4.99805 27.333 14.998 38c12 12.667 26 19 42 19c12.667 0 23.334 -4 32.001 -12c8.66699 -8.66699 13 -19 13 -31c0 -16 -5.33301 -30 -16 -42
c-11.333 -11.333 -24.666 -17 -39.999 -17c-14 0 -25.333 4.33301 -34 13c-8 8 -12 18.667 -12 32zM209.998 777.999c0 14.667 4.99805 27.333 14.998 38c12 12.667 26 19 42 19c12.667 0 23.334 -4 32.001 -12c8.66699 -8.66699 13 -19 13 -31c0 -16 -5.33301 -30 -16 -42
c-11.333 -11.333 -24.666 -17 -39.999 -17c-14 0 -25.333 4.33301 -34 13c-8 8 -12 18.667 -12 32z" />
    <glyph glyph-name="Igrave" unicode="&#xcc;" horiz-adv-x="246" 
d="M168 667h74l-82 -667h-74zM212 720l-138 117l75 45l110 -130z" />
    <glyph glyph-name="Iacute" unicode="&#xcd;" horiz-adv-x="246" 
d="M168 667h74l-82 -667h-74zM318 882l65 -45l-168 -117l-39 32z" />
    <glyph glyph-name="Icircumflex" unicode="&#xce;" horiz-adv-x="246" 
d="M168 667h74l-82 -667h-74zM223 797l-97 -76l-51 41l154 119l126 -119l-53 -41z" />
    <glyph glyph-name="Idieresis" unicode="&#xcf;" horiz-adv-x="246" 
d="M168 667h74l-82 -667h-74zM234 778c0 18 5.99902 32.668 17.999 44.001c8.66699 8.66699 19.667 13 33 13c11.333 0 21 -4 29 -12c8 -8.66699 12 -20.334 12 -35.001c0 -15.333 -5.33301 -29 -16 -41c-9.33301 -9.33301 -20.666 -14 -33.999 -14c-12 0 -22 4 -30 12
s-12 19 -12 33zM111.999 778.001c0 18 5.99902 32.668 17.999 44.001c8.66699 8.66699 19.667 13 33 13c11.333 0 21 -4 29 -12c8 -8.66699 12 -20.334 12 -35.001c0 -15.333 -5.33301 -29 -16 -41c-9.33301 -9.33301 -20.666 -14 -33.999 -14c-12 0 -22 4 -30 12
s-12 19 -12 33z" />
    <glyph glyph-name="Eth" unicode="&#xd0;" horiz-adv-x="634" 
d="M84 0l42 335.999h-86l8 64h86l32 267h121c112.667 0 198.334 -27.667 257.001 -83c54 -52.667 81 -124.667 81 -216c0 -111.333 -32.333 -200 -97 -266c-38 -39.333 -82.333 -66.166 -133 -80.499s-111.334 -21.5 -182.001 -21.5h-129zM231 596.999l-24 -197h136l-8 -64
h-136l-32 -266h49c116.667 0 201.334 26.333 254.001 79c51.333 51.333 77 122.333 77 213c0 70 -20 125.333 -60 166c-44.667 46 -108.334 69 -191.001 69h-65z" />
    <glyph glyph-name="Ntilde" unicode="&#xd1;" horiz-adv-x="766" 
d="M160 0h-74l85 695l453 -547l64 519h74l-86 -697l-453 547zM598 842l39.002 -35.001c-7.33301 -15.333 -19 -30 -35 -44c-22.667 -18.667 -45.334 -28 -68.001 -28c-17.333 0 -35.333 5 -54 15l-21 12c-17.333 10 -32 15 -44 15c-12.667 0 -23.334 -4.66699 -32.001 -14
c-8 -8 -15 -18 -21 -30l-40 36c13.333 21.333 26.666 37.333 39.999 48c18.667 16 40 24 64 24c18 0 37 -5.66699 57 -17l25 -14c12.667 -7.33301 24.334 -11 35.001 -11c12.667 0 24 4.66699 34 14c8.66699 8.66699 15.667 18.334 21 29.001z" />
    <glyph glyph-name="Ograve" unicode="&#xd2;" horiz-adv-x="800" 
d="M399 -12c-92 0 -166.001 28.999 -222.001 86.999c-57.333 58.667 -86 132.334 -86 221.001c0 112.667 38 205 114 277c72.667 70 164 105 274 105c92.667 0 167.334 -28 224.001 -84c58.667 -57.333 88 -130 88 -218c0 -53.333 -9.5 -105 -28.5 -155
s-46.833 -92.667 -83.5 -128c-72.667 -70 -166 -105 -280 -105zM470.999 607.999c-83.333 0 -153.667 -26.334 -211 -79.001c-61.333 -57.333 -92 -130.333 -92 -219c0 -75.333 23 -136.666 69 -183.999c44 -45.333 100.667 -68 170 -68c89.333 0 161.333 26.667 216 80
c28.667 28 51 62.167 67 102.5s24 80.833 24 121.5c0 72 -23.333 131.333 -70 178c-45.333 45.333 -103 68 -173 68zM498.998 719.998l-138 117l75 45l110 -130z" />
    <glyph glyph-name="Oacute" unicode="&#xd3;" horiz-adv-x="800" 
d="M399 -12c-92 0 -166.001 28.999 -222.001 86.999c-57.333 58.667 -86 132.334 -86 221.001c0 112.667 38 205 114 277c72.667 70 164 105 274 105c92.667 0 167.334 -28 224.001 -84c58.667 -57.333 88 -130 88 -218c0 -53.333 -9.5 -105 -28.5 -155
s-46.833 -92.667 -83.5 -128c-72.667 -70 -166 -105 -280 -105zM470.999 607.999c-83.333 0 -153.667 -26.334 -211 -79.001c-61.333 -57.333 -92 -130.333 -92 -219c0 -75.333 23 -136.666 69 -183.999c44 -45.333 100.667 -68 170 -68c89.333 0 161.333 26.667 216 80
c28.667 28 51 62.167 67 102.5s24 80.833 24 121.5c0 72 -23.333 131.333 -70 178c-45.333 45.333 -103 68 -173 68zM569.998 881.998l65 -45l-168 -117l-39 32z" />
    <glyph glyph-name="Ocircumflex" unicode="&#xd4;" horiz-adv-x="800" 
d="M399 -12c-92 0 -166.001 28.999 -222.001 86.999c-57.333 58.667 -86 132.334 -86 221.001c0 112.667 38 205 114 277c72.667 70 164 105 274 105c92.667 0 167.334 -28 224.001 -84c58.667 -57.333 88 -130 88 -218c0 -53.333 -9.5 -105 -28.5 -155
s-46.833 -92.667 -83.5 -128c-72.667 -70 -166 -105 -280 -105zM470.999 607.999c-83.333 0 -153.667 -26.334 -211 -79.001c-61.333 -57.333 -92 -130.333 -92 -219c0 -75.333 23 -136.666 69 -183.999c44 -45.333 100.667 -68 170 -68c89.333 0 161.333 26.667 216 80
c28.667 28 51 62.167 67 102.5s24 80.833 24 121.5c0 72 -23.333 131.333 -70 178c-45.333 45.333 -103 68 -173 68zM498.998 796.998l-97 -76l-51 41l154 119l126 -119l-53 -41z" />
    <glyph glyph-name="Otilde" unicode="&#xd5;" horiz-adv-x="800" 
d="M399 -12c-92 0 -166.001 28.999 -222.001 86.999c-57.333 58.667 -86 132.334 -86 221.001c0 112.667 38 205 114 277c72.667 70 164 105 274 105c92.667 0 167.334 -28 224.001 -84c58.667 -57.333 88 -130 88 -218c0 -53.333 -9.5 -105 -28.5 -155
s-46.833 -92.667 -83.5 -128c-72.667 -70 -166 -105 -280 -105zM470.999 607.999c-83.333 0 -153.667 -26.334 -211 -79.001c-61.333 -57.333 -92 -130.333 -92 -219c0 -75.333 23 -136.666 69 -183.999c44 -45.333 100.667 -68 170 -68c89.333 0 161.333 26.667 216 80
c28.667 28 51 62.167 67 102.5s24 80.833 24 121.5c0 72 -23.333 131.333 -70 178c-45.333 45.333 -103 68 -173 68zM611.998 841.998l39.002 -35.001c-7.33301 -15.333 -19 -30 -35 -44c-22.667 -18.667 -45.334 -28 -68.001 -28c-17.333 0 -35.333 5 -54 15l-21 12
c-17.333 10 -32 15 -44 15c-12.667 0 -23.334 -4.66699 -32.001 -14c-8 -8 -15 -18 -21 -30l-40 36c13.333 21.333 26.666 37.333 39.999 48c18.667 16 40 24 64 24c18 0 37 -5.66699 57 -17l25 -14c12.667 -7.33301 24.334 -11 35.001 -11c12.667 0 24 4.66699 34 14
c8.66699 8.66699 15.667 18.334 21 29.001z" />
    <glyph glyph-name="Odieresis" unicode="&#xd6;" horiz-adv-x="800" 
d="M399 -12c-92 0 -166.001 28.999 -222.001 86.999c-57.333 58.667 -86 132.334 -86 221.001c0 112.667 38 205 114 277c72.667 70 164 105 274 105c92.667 0 167.334 -28 224.001 -84c58.667 -57.333 88 -130 88 -218c0 -53.333 -9.5 -105 -28.5 -155
s-46.833 -92.667 -83.5 -128c-72.667 -70 -166 -105 -280 -105zM470.999 607.999c-83.333 0 -153.667 -26.334 -211 -79.001c-61.333 -57.333 -92 -130.333 -92 -219c0 -75.333 23 -136.666 69 -183.999c44 -45.333 100.667 -68 170 -68c89.333 0 161.333 26.667 216 80
c28.667 28 51 62.167 67 102.5s24 80.833 24 121.5c0 72 -23.333 131.333 -70 178c-45.333 45.333 -103 68 -173 68zM529.998 777.998c0 14.667 4.99805 27.333 14.998 38c12 12.667 26 19 42 19c12.667 0 23.334 -4 32.001 -12c8.66699 -8.66699 13 -19 13 -31
c0 -16 -5.33301 -30 -16 -42c-11.333 -11.333 -24.666 -17 -39.999 -17c-14 0 -25.333 4.33301 -34 13c-8 8 -12 18.667 -12 32zM339.996 777.997c0 14.667 4.99805 27.333 14.998 38c12 12.667 26 19 42 19c12.667 0 23.334 -4 32.001 -12c8.66699 -8.66699 13 -19 13 -31
c0 -16 -5.33301 -30 -16 -42c-11.333 -11.333 -24.666 -17 -39.999 -17c-14 0 -25.333 4.33301 -34 13c-8 8 -12 18.667 -12 32z" />
    <glyph glyph-name="multiply" unicode="&#xd7;" 
d="M104 190l143 143l-149 149l47 47l149 -149l149 149l47 -47l-149 -149l143 -143l-47 -47l-143 143l-143 -143z" />
    <glyph glyph-name="Oslash" unicode="&#xd8;" horiz-adv-x="800" 
d="M828 635l-90.998 -81.002c36.667 -53.333 55 -112.666 55 -177.999c0 -53.333 -9.5 -105 -28.5 -155s-46.833 -92.667 -83.5 -128c-72.667 -70 -165.334 -105 -278.001 -105c-84 0 -155.667 26 -215 78l-89 -79l-43 50l90 80c-35.333 52.667 -53 112.334 -53 179.001
c0 112 38 204.333 114 277c73.333 70 164.666 105 273.999 105c83.333 0 154.333 -24.667 213 -74l91 81zM205.002 169.998l428 381c-42 38 -95.667 57 -161 57c-84 0 -154.333 -26.333 -211 -79c-61.333 -57.333 -92 -130.333 -92 -219c0 -53.333 12 -100 36 -140z
M676.002 499.998l-430 -381c44.667 -40.667 98.667 -61 162 -61c88.667 0 160.667 26.667 216 80c60.667 58 91 132.667 91 224c0 52.667 -13 98.667 -39 138z" />
    <glyph glyph-name="Ugrave" unicode="&#xd9;" horiz-adv-x="646" 
d="M242 667l-48.002 -392c-4.66699 -35.333 -7 -62 -7 -80c0 -41.333 14.333 -75 43 -101c26 -24 63.333 -36 112 -36c56 0 98 15.667 126 47c24 27.333 40.667 78.333 50 153l50 409h74l-53 -429c-5.33301 -44 -13.166 -80.5 -23.499 -109.5s-28.5 -55.833 -54.5 -80.5
c-42 -40 -101 -60 -177 -60c-69.333 0 -123.666 18.667 -162.999 56c-38.667 37.333 -58 83.333 -58 138c0 25.333 2.33301 59 7 101l48 384h74zM418.998 720l-138 117l75 45l110 -130z" />
    <glyph glyph-name="Uacute" unicode="&#xda;" horiz-adv-x="646" 
d="M242 667l-48.002 -392c-4.66699 -35.333 -7 -62 -7 -80c0 -41.333 14.333 -75 43 -101c26 -24 63.333 -36 112 -36c56 0 98 15.667 126 47c24 27.333 40.667 78.333 50 153l50 409h74l-53 -429c-5.33301 -44 -13.166 -80.5 -23.499 -109.5s-28.5 -55.833 -54.5 -80.5
c-42 -40 -101 -60 -177 -60c-69.333 0 -123.666 18.667 -162.999 56c-38.667 37.333 -58 83.333 -58 138c0 25.333 2.33301 59 7 101l48 384h74zM505.998 882l65 -45l-168 -117l-39 32z" />
    <glyph glyph-name="Ucircumflex" unicode="&#xdb;" horiz-adv-x="646" 
d="M242 667l-48.002 -392c-4.66699 -35.333 -7 -62 -7 -80c0 -41.333 14.333 -75 43 -101c26 -24 63.333 -36 112 -36c56 0 98 15.667 126 47c24 27.333 40.667 78.333 50 153l50 409h74l-53 -429c-5.33301 -44 -13.166 -80.5 -23.499 -109.5s-28.5 -55.833 -54.5 -80.5
c-42 -40 -101 -60 -177 -60c-69.333 0 -123.666 18.667 -162.999 56c-38.667 37.333 -58 83.333 -58 138c0 25.333 2.33301 59 7 101l48 384h74zM424.998 797l-97 -76l-51 41l154 119l126 -119l-53 -41z" />
    <glyph glyph-name="Udieresis" unicode="&#xdc;" horiz-adv-x="646" 
d="M242 667l-48.002 -392c-4.66699 -35.333 -7 -62 -7 -80c0 -41.333 14.333 -75 43 -101c26 -24 63.333 -36 112 -36c56 0 98 15.667 126 47c24 27.333 40.667 78.333 50 153l50 409h74l-53 -429c-5.33301 -44 -13.166 -80.5 -23.499 -109.5s-28.5 -55.833 -54.5 -80.5
c-42 -40 -101 -60 -177 -60c-69.333 0 -123.666 18.667 -162.999 56c-38.667 37.333 -58 83.333 -58 138c0 25.333 2.33301 59 7 101l48 384h74zM462.998 778c0 14.667 4.99902 27.333 14.999 38c12 12.667 26 19 42 19c12 0 22.667 -4 32 -12
c8.66699 -8.66699 13 -19 13 -31c0 -16 -5.33301 -30 -16 -42c-11.333 -11.333 -24.666 -17 -39.999 -17c-14 0 -25.333 4.33301 -34 13c-8 8 -12 18.667 -12 32zM272.997 777.999c0 14.667 4.99902 27.333 14.999 38c12 12.667 26 19 42 19c12 0 22.667 -4 32 -12
c8.66699 -8.66699 13 -19 13 -31c0 -16 -5.33301 -30 -16 -42c-11.333 -11.333 -24.666 -17 -39.999 -17c-14 0 -25.333 4.33301 -34 13c-8 8 -12 18.667 -12 32z" />
    <glyph glyph-name="Yacute" unicode="&#xdd;" horiz-adv-x="530" 
d="M227 0l35 287l-172 380h84l133 -298l209 298h88l-268 -380l-35 -287h-74zM455 882l65 -45l-168 -117l-39 32z" />
    <glyph glyph-name="Thorn" unicode="&#xde;" horiz-adv-x="457" 
d="M168 667h74l-12 -100h46c72 0 125.667 -17 161 -51c30.667 -29.333 46 -71.333 46 -126c0 -60 -18 -107.333 -54 -142c-40 -38.667 -103 -58 -189 -58h-57l-23 -190h-74zM221 497l-28.999 -237h63c54 0 94 12 120 36c24 21.333 36 52 36 92c0 38.667 -12.333 67 -37 85
c-20.667 16 -53.334 24 -98.001 24h-55z" />
    <glyph glyph-name="germandbls" unicode="&#xdf;" horiz-adv-x="529" 
d="M143 0h-71.998l43 349h-66l8 66h66l17 138c7.33301 58.667 26.333 104 57 136c33.333 34.667 77.333 52 132 52c47.333 0 86.666 -15 117.999 -45c29.333 -28.667 44 -67.334 44 -116.001c0 -37.333 -9 -69 -27 -95c-16 -24 -38.333 -41.333 -67 -52
c26.667 -10.667 53 -29 79 -55c26.667 -31.333 40 -71.666 40 -120.999c0 -76.667 -25.333 -139.334 -76 -188.001c-52.667 -51.333 -122 -78.333 -208 -81l8 70c58 3.33301 105.667 22 143 56c38 34.667 57 79.334 57 134.001c0 43.333 -13.667 78 -41 104
c-29.333 28 -68 42.667 -116 44l8 64c40 0 71.667 11.333 95 34c21.333 19.333 32 48 32 86c0 31.333 -8.33301 55.333 -25 72s-39 25 -67 25s-51.667 -9 -71 -27c-24.667 -24 -40.334 -67 -47.001 -129z" />
    <glyph glyph-name="agrave" unicode="&#xe0;" horiz-adv-x="528" 
d="M432 356l7.00195 59.001h72l-51 -415h-72l7 58c-16 -22 -33.333 -38.333 -52 -49c-24.667 -14 -53.334 -21 -86.001 -21c-57.333 0 -102.333 17 -135 51c-36 38 -54 87.333 -54 148c0 77.333 24 138.666 72 183.999c38 36 87.667 54 149 54c34 0 63.333 -6.66699 88 -20
c23.333 -12 41.666 -28.333 54.999 -49zM295.002 361.001c-39.333 0 -72.667 -13.001 -100 -39.001c-35.333 -33.333 -53 -76.666 -53 -129.999c0 -46 14.333 -82.333 43 -109c21.333 -20.667 49.333 -31 84 -31c43.333 0 77.666 13.667 102.999 41
c31.333 32.667 47 77.667 47 135c0 42.667 -13 76 -39 100c-23.333 22 -51.666 33 -84.999 33zM310.001 497l-118 135l78 34l87 -145z" />
    <glyph glyph-name="aacute" unicode="&#xe1;" horiz-adv-x="528" 
d="M432 356l7.00195 59.001h72l-51 -415h-72l7 58c-16 -22 -33.333 -38.333 -52 -49c-24.667 -14 -53.334 -21 -86.001 -21c-57.333 0 -102.333 17 -135 51c-36 38 -54 87.333 -54 148c0 77.333 24 138.666 72 183.999c38 36 87.667 54 149 54c34 0 63.333 -6.66699 88 -20
c23.333 -12 41.666 -28.333 54.999 -49zM295.002 361.001c-39.333 0 -72.667 -13.001 -100 -39.001c-35.333 -33.333 -53 -76.666 -53 -129.999c0 -46 14.333 -82.333 43 -109c21.333 -20.667 49.333 -31 84 -31c43.333 0 77.666 13.667 102.999 41
c31.333 32.667 47 77.667 47 135c0 42.667 -13 76 -39 100c-23.333 22 -51.666 33 -84.999 33zM394.001 666l70 -34l-151 -135l-42 24z" />
    <glyph glyph-name="acircumflex" unicode="&#xe2;" horiz-adv-x="528" 
d="M432 356l7.00195 59.001h72l-51 -415h-72l7 58c-16 -22 -33.333 -38.333 -52 -49c-24.667 -14 -53.334 -21 -86.001 -21c-57.333 0 -102.333 17 -135 51c-36 38 -54 87.333 -54 148c0 77.333 24 138.666 72 183.999c38 36 87.667 54 149 54c34 0 63.333 -6.66699 88 -20
c23.333 -12 41.666 -28.333 54.999 -49zM295.002 361.001c-39.333 0 -72.667 -13.001 -100 -39.001c-35.333 -33.333 -53 -76.666 -53 -129.999c0 -46 14.333 -82.333 43 -109c21.333 -20.667 49.333 -31 84 -31c43.333 0 77.666 13.667 102.999 41
c31.333 32.667 47 77.667 47 135c0 42.667 -13 76 -39 100c-23.333 22 -51.666 33 -84.999 33zM331.001 578l-102 -81l-46 36l153 121l123 -121l-46 -36z" />
    <glyph glyph-name="atilde" unicode="&#xe3;" horiz-adv-x="528" 
d="M432 356l7.00195 59.001h72l-51 -415h-72l7 58c-16 -22 -33.333 -38.333 -52 -49c-24.667 -14 -53.334 -21 -86.001 -21c-57.333 0 -102.333 17 -135 51c-36 38 -54 87.333 -54 148c0 77.333 24 138.666 72 183.999c38 36 87.667 54 149 54c34 0 63.333 -6.66699 88 -20
c23.333 -12 41.666 -28.333 54.999 -49zM295.002 361.001c-39.333 0 -72.667 -13.001 -100 -39.001c-35.333 -33.333 -53 -76.666 -53 -129.999c0 -46 14.333 -82.333 43 -109c21.333 -20.667 49.333 -31 84 -31c43.333 0 77.666 13.667 102.999 41
c31.333 32.667 47 77.667 47 135c0 42.667 -13 76 -39 100c-23.333 22 -51.666 33 -84.999 33zM199.001 497l-38 34.001c10.667 16 24 31 40 45c19.333 16 40 24 62 24c18 0 39.667 -6.66699 65 -20l17 -9c14.667 -7.33301 27 -11 37 -11c13.333 0 25 5 35 15
c6 7.33301 12.667 16.666 20 27.999l37 -34c-12 -21.333 -24 -37 -36 -47c-16.667 -14.667 -37 -22 -61 -22c-16.667 0 -35 4.66699 -55 14l-22 11c-21.333 10 -36 15 -44 15c-12 0 -23.333 -5.33301 -34 -16c-12 -10.667 -19.667 -19.667 -23 -27z" />
    <glyph glyph-name="adieresis" unicode="&#xe4;" horiz-adv-x="528" 
d="M432 356l7.00195 59.001h72l-51 -415h-72l7 58c-16 -22 -33.333 -38.333 -52 -49c-24.667 -14 -53.334 -21 -86.001 -21c-57.333 0 -102.333 17 -135 51c-36 38 -54 87.333 -54 148c0 77.333 24 138.666 72 183.999c38 36 87.667 54 149 54c34 0 63.333 -6.66699 88 -20
c23.333 -12 41.666 -28.333 54.999 -49zM295.002 361.001c-39.333 0 -72.667 -13.001 -100 -39.001c-35.333 -33.333 -53 -76.666 -53 -129.999c0 -46 14.333 -82.333 43 -109c21.333 -20.667 49.333 -31 84 -31c43.333 0 77.666 13.667 102.999 41
c31.333 32.667 47 77.667 47 135c0 42.667 -13 76 -39 100c-23.333 22 -51.666 33 -84.999 33zM371.001 543c0 15.333 5.66895 28.667 17.002 40s24.666 17 39.999 17c12 0 22.333 -4.16699 31 -12.5s13 -18.833 13 -31.5c0 -14.667 -6 -28 -18 -40
c-10.667 -10.667 -23.334 -16 -38.001 -16c-12 0 -22.5 4 -31.5 12s-13.5 18.333 -13.5 31zM197.003 543.001c0 15.333 5.66895 28.667 17.002 40s24.666 17 39.999 17c12 0 22.333 -4.16699 31 -12.5s13 -18.833 13 -31.5c0 -14.667 -6 -28 -18 -40
c-10.667 -10.667 -23.334 -16 -38.001 -16c-12 0 -22.5 4 -31.5 12s-13.5 18.333 -13.5 31z" />
    <glyph glyph-name="aring" unicode="&#xe5;" horiz-adv-x="528" 
d="M432 356l7.00195 59.001h72l-51 -415h-72l7 58c-16 -22 -33.333 -38.333 -52 -49c-24.667 -14 -53.334 -21 -86.001 -21c-57.333 0 -102.333 17 -135 51c-36 38 -54 87.333 -54 148c0 77.333 24 138.666 72 183.999c38 36 87.667 54 149 54c34 0 63.333 -6.66699 88 -20
c23.333 -12 41.666 -28.333 54.999 -49zM295.002 361.001c-39.333 0 -72.667 -13.001 -100 -39.001c-35.333 -33.333 -53 -76.666 -53 -129.999c0 -46 14.333 -82.333 43 -109c21.333 -20.667 49.333 -31 84 -31c43.333 0 77.666 13.667 102.999 41
c31.333 32.667 47 77.667 47 135c0 42.667 -13 76 -39 100c-23.333 22 -51.666 33 -84.999 33zM235.001 575c0 30 8.99902 53.334 26.999 70.001c16 16 37 24 63 24s46.333 -7.33301 61 -22s22 -34.667 22 -60c0 -26.667 -8.33301 -48.334 -25 -65.001
c-17.333 -16.667 -39.666 -25 -66.999 -25c-25.333 0 -45 7 -59 21c-14.667 14.667 -22 33.667 -22 57zM280 579.001c0 -10.667 3.33398 -19.333 10.001 -26c6.66699 -8 16.667 -12 30 -12c12.667 0 23 4 31 12c8.66699 8.66699 13 20 13 34c0 12.667 -3.66699 22 -11 28
c-6.66699 6.66699 -16.334 10 -29.001 10s-23 -4 -31 -12c-8.66699 -8.66699 -13 -20 -13 -34z" />
    <glyph glyph-name="ae" unicode="&#xe6;" horiz-adv-x="776" 
d="M415 348c17.333 22.667 39.3359 40.998 66.0029 54.998c29.333 14.667 61.666 22 96.999 22c56.667 0 100.667 -16.333 132 -49c40.667 -42 56.334 -102.667 47.001 -182h-327v-8c0 -42.667 12.333 -77 37 -103c20.667 -20.667 48 -31 82 -31s62 7.66699 84 23
c20.667 14.667 38.667 36 54 64l61 -33c-22.667 -38 -48.334 -66.667 -77.001 -86c-30.667 -21.333 -70.667 -32 -120 -32c-42 0 -76.333 8 -103 24c-22 12.667 -41.333 32.334 -58 59.001c-17.333 -28 -39 -48.667 -65 -62c-26 -14 -60.667 -21 -104 -21
c-50.667 0 -89.334 9.66699 -116.001 29c-32 21.333 -48 53 -48 95c0 48.667 19.333 86.667 58 114c32 22.667 74.333 34 127 34c46.667 0 87 -11.667 121 -35c5.33301 54.667 -3.33398 92 -26.001 112c-17.333 16 -45.333 24 -84 24c-38 0 -79 -8.66699 -123 -26l8 68
c42 14.667 84.667 22 128 22c40 0 73 -7.33301 99 -22c23.333 -13.333 40 -31.666 50 -54.999zM240.003 195.998c-35.333 0 -63.001 -7.66602 -83.001 -22.999c-18 -13.333 -27 -31 -27 -53c0 -21.333 9 -38.333 27 -51c16.667 -11.333 41.667 -17 75 -17
c28 0 53.333 5.66699 76 17c25.333 14 38 34.667 38 62c0 21.333 -10 37.666 -30 48.999c-17.333 10.667 -42.666 16 -75.999 16zM443.002 253.999h246.999c-0.666992 32.667 -12.334 59.667 -35.001 81c-18.667 17.333 -44.667 26 -78 26
c-39.333 0 -70.666 -11.667 -93.999 -35c-19.333 -19.333 -32.666 -43.333 -39.999 -72z" />
    <glyph glyph-name="ccedilla" unicode="&#xe7;" horiz-adv-x="440" 
d="M442 385l-10.001 -86c-17.333 19.333 -34.666 34 -51.999 44c-22 12 -47 18 -75 18c-43.333 0 -80.333 -14.333 -111 -43c-35.333 -34 -53 -76 -53 -126c0 -42.667 13.333 -77.334 40 -104.001c24 -24 56 -36 96 -36c28 0 53.667 6 77 18
c20.667 10.667 40 26.334 58 47.001l-10 -86c-20.667 -15.333 -40.667 -26 -60 -32c-22 -7.33301 -46.667 -11 -74 -11c-61.333 0 -110 18.333 -146 55c-36.667 38 -55 86.333 -55 145c0 69.333 24 127.333 72 174c42 42 98 63 168 63c50.667 0 95.667 -13.333 135 -40z
M239.999 -52l62 -27l-116 -128l-46 24z" />
    <glyph glyph-name="egrave" unicode="&#xe8;" horiz-adv-x="483" 
d="M395 139l61.001 -32.999c-22.667 -38 -48.334 -66.667 -77.001 -86c-32.667 -21.333 -72.667 -32 -120 -32c-58 0 -103.667 17.333 -137 52c-36.667 38 -55 87.667 -55 149c0 71.333 23.667 130.666 71 177.999c38.667 38.667 87 58 145 58
c57.333 0 102.333 -16.333 135 -49c40.667 -42 56.334 -103 47.001 -183h-323c-0.666992 -48 11.666 -84.667 36.999 -110c20.667 -20.667 48 -31 82 -31c31.333 0 58 7.66699 80 23c20.667 14.667 38.667 36 54 64zM154.001 253.001l241.998 0.000976562
c-1.33301 33.333 -13 60.666 -35 81.999c-18 17.333 -43.333 26 -76 26c-37.333 0 -67.666 -11.667 -90.999 -35c-19.333 -20 -32.666 -44.333 -39.999 -73zM309.999 497.002l-118 135l78 34l87 -145z" />
    <glyph glyph-name="eacute" unicode="&#xe9;" horiz-adv-x="483" 
d="M395 139l61.001 -32.999c-22.667 -38 -48.334 -66.667 -77.001 -86c-32.667 -21.333 -72.667 -32 -120 -32c-58 0 -103.667 17.333 -137 52c-36.667 38 -55 87.667 -55 149c0 71.333 23.667 130.666 71 177.999c38.667 38.667 87 58 145 58
c57.333 0 102.333 -16.333 135 -49c40.667 -42 56.334 -103 47.001 -183h-323c-0.666992 -48 11.666 -84.667 36.999 -110c20.667 -20.667 48 -31 82 -31c31.333 0 58 7.66699 80 23c20.667 14.667 38.667 36 54 64zM154.001 253.001l241.998 0.000976562
c-1.33301 33.333 -13 60.666 -35 81.999c-18 17.333 -43.333 26 -76 26c-37.333 0 -67.666 -11.667 -90.999 -35c-19.333 -20 -32.666 -44.333 -39.999 -73zM373.999 666.002l70 -34l-151 -135l-42 24z" />
    <glyph glyph-name="ecircumflex" unicode="&#xea;" horiz-adv-x="483" 
d="M395 139l61.001 -32.999c-22.667 -38 -48.334 -66.667 -77.001 -86c-32.667 -21.333 -72.667 -32 -120 -32c-58 0 -103.667 17.333 -137 52c-36.667 38 -55 87.667 -55 149c0 71.333 23.667 130.666 71 177.999c38.667 38.667 87 58 145 58
c57.333 0 102.333 -16.333 135 -49c40.667 -42 56.334 -103 47.001 -183h-323c-0.666992 -48 11.666 -84.667 36.999 -110c20.667 -20.667 48 -31 82 -31c31.333 0 58 7.66699 80 23c20.667 14.667 38.667 36 54 64zM154.001 253.001l241.998 0.000976562
c-1.33301 33.333 -13 60.666 -35 81.999c-18 17.333 -43.333 26 -76 26c-37.333 0 -67.666 -11.667 -90.999 -35c-19.333 -20 -32.666 -44.333 -39.999 -73zM304.999 578.002l-102 -81l-46 36l153 121l123 -121l-46 -36z" />
    <glyph glyph-name="edieresis" unicode="&#xeb;" horiz-adv-x="483" 
d="M395 139l61.001 -32.999c-22.667 -38 -48.334 -66.667 -77.001 -86c-32.667 -21.333 -72.667 -32 -120 -32c-58 0 -103.667 17.333 -137 52c-36.667 38 -55 87.667 -55 149c0 71.333 23.667 130.666 71 177.999c38.667 38.667 87 58 145 58
c57.333 0 102.333 -16.333 135 -49c40.667 -42 56.334 -103 47.001 -183h-323c-0.666992 -48 11.666 -84.667 36.999 -110c20.667 -20.667 48 -31 82 -31c31.333 0 58 7.66699 80 23c20.667 14.667 38.667 36 54 64zM154.001 253.001l241.998 0.000976562
c-1.33301 33.333 -13 60.666 -35 81.999c-18 17.333 -43.333 26 -76 26c-37.333 0 -67.666 -11.667 -90.999 -35c-19.333 -20 -32.666 -44.333 -39.999 -73zM332.999 543.002c0 15.333 5.66895 28.667 17.002 40s24.666 17 39.999 17c12 0 22.333 -4.16699 31 -12.5
s13 -18.833 13 -31.5c0 -14.667 -6 -28 -18 -40c-10.667 -10.667 -23.334 -16 -38.001 -16c-12 0 -22.5 4 -31.5 12s-13.5 18.333 -13.5 31zM159.001 543.003c0 15.333 5.66895 28.667 17.002 40s24.666 17 39.999 17c12 0 22.333 -4.16699 31 -12.5s13 -18.833 13 -31.5
c0 -14.667 -6 -28 -18 -40c-10.667 -10.667 -23.334 -16 -38.001 -16c-12 0 -22.5 4 -31.5 12s-13.5 18.333 -13.5 31z" />
    <glyph glyph-name="igrave" unicode="&#xec;" horiz-adv-x="208" 
d="M119 415h72l-51 -415h-72zM170 493l-105 147l80 27l72 -153z" />
    <glyph glyph-name="iacute" unicode="&#xed;" horiz-adv-x="208" 
d="M119 415h72l-51 -415h-72zM227 667l74 -27l-141 -147l-45 21z" />
    <glyph glyph-name="icircumflex" unicode="&#xee;" horiz-adv-x="208" 
d="M119 415h72l-51 -415h-72zM174 572l-83 -67l-39 35l131 106l105 -106l-47 -35z" />
    <glyph glyph-name="idieresis" unicode="&#xef;" horiz-adv-x="208" 
d="M119 415h72l-51 -415h-72zM204 543c0 15.333 5.66895 28.667 17.002 40s24.666 17 39.999 17c12 0 22.333 -4.16699 31 -12.5s13 -18.833 13 -31.5c0 -14.667 -6 -28 -18 -40c-10.667 -10.667 -23.334 -16 -38.001 -16c-12 0 -22.5 4 -31.5 12s-13.5 18.333 -13.5 31z
M30.002 543.001c0 15.333 5.66895 28.667 17.002 40s24.666 17 39.999 17c12 0 22.333 -4.16699 31 -12.5s13 -18.833 13 -31.5c0 -14.667 -6 -28 -18 -40c-10.667 -10.667 -23.334 -16 -38.001 -16c-12 0 -22.5 4 -31.5 12s-13.5 18.333 -13.5 31z" />
    <glyph glyph-name="eth" unicode="&#xf0;" horiz-adv-x="519" 
d="M161 612l25 61c76.667 -6 144 -29.667 202 -71l128 39l17 -51l-98 -31c22.667 -22.667 41.667 -51 57 -85c18.667 -42.667 28 -92 28 -148c0 -64.667 -6.16699 -119 -18.5 -163s-34.5 -81.333 -66.5 -112c-44 -42 -100.667 -63 -170 -63
c-56.667 0 -102.667 17.667 -138 53c-39.333 39.333 -59 89 -59 149c0 69.333 22.333 128 67 176c43.333 47.333 101 71 173 71c51.333 0 96 -16 134 -48c-7.33301 55.333 -35 104 -83 146l-191 -60l-14 54l146 45c-42.667 23.333 -89 36 -139 38zM439 241
c0 39.333 -12.333 71.333 -37 96c-24 24 -55.333 36 -94 36c-44.667 0 -82 -14.333 -112 -43c-34.667 -33.333 -52 -80 -52 -140c0 -43.333 12.333 -77.333 37 -102c24 -24 54.667 -36 92 -36c46 0 84 15 114 45c34.667 34.667 52 82.667 52 144z" />
    <glyph glyph-name="ntilde" unicode="&#xf1;" horiz-adv-x="469" 
d="M68 0l50.999 415h72l-6 -48c9.33301 14 23.333 27 42 39c20.667 12.667 46.334 19 77.001 19c42 0 75 -12 99 -36c22 -22 33 -53 33 -93c0 -12.667 -2 -35.667 -6 -69l-28 -227h-72l25 207c4 34 6 57.667 6 71c0 27.333 -7 48 -21 62s-33.333 21 -58 21
c-31.333 0 -56 -9.66699 -74 -29c-20 -20.667 -33.667 -59 -41 -115l-27 -217h-72zM178.999 497l-38 34.001c10.667 16 24 31 40 45c19.333 16 40 24 62 24c18 0 39.667 -6.66699 65 -20l17 -9c14.667 -7.33301 27 -11 37 -11c13.333 0 25 5 35 15
c6 7.33301 12.667 16.666 20 27.999l37 -34c-12 -21.333 -24 -37 -36 -47c-16.667 -14.667 -37 -22 -61 -22c-16.667 0 -35 4.66699 -55 14l-22 11c-21.333 10 -36 15 -44 15c-12 0 -23.333 -5.33301 -34 -16c-12 -10.667 -19.667 -19.667 -23 -27z" />
    <glyph glyph-name="ograve" unicode="&#xf2;" horiz-adv-x="528" 
d="M268 -12c-62.667 0 -111.999 18.999 -147.999 56.999c-35.333 38 -53 86.333 -53 145c0 68.667 25 126.334 75 173.001c45.333 41.333 100.666 62 165.999 62c63.333 0 114 -19 152 -57c34 -34 51 -79.333 51 -136c0 -74.667 -23.333 -134.667 -70 -180
c-43.333 -42.667 -101 -64 -173 -64zM307.001 360.999c-44 0 -81.667 -15.334 -113 -46.001c-35.333 -34 -53 -77.333 -53 -130c0 -37.333 12 -68.666 36 -93.999c24.667 -26 56.667 -39 96 -39c46 0 83.667 16 113 48c33.333 35.333 50 79 50 131
c0 37.333 -11.333 68 -34 92c-24 25.333 -55.667 38 -95 38zM322.001 496.998l-118 135l78 34l87 -145z" />
    <glyph glyph-name="oacute" unicode="&#xf3;" horiz-adv-x="528" 
d="M268 -12c-62.667 0 -111.999 18.999 -147.999 56.999c-35.333 38 -53 86.333 -53 145c0 68.667 25 126.334 75 173.001c45.333 41.333 100.666 62 165.999 62c63.333 0 114 -19 152 -57c34 -34 51 -79.333 51 -136c0 -74.667 -23.333 -134.667 -70 -180
c-43.333 -42.667 -101 -64 -173 -64zM307.001 360.999c-44 0 -81.667 -15.334 -113 -46.001c-35.333 -34 -53 -77.333 -53 -130c0 -37.333 12 -68.666 36 -93.999c24.667 -26 56.667 -39 96 -39c46 0 83.667 16 113 48c33.333 35.333 50 79 50 131
c0 37.333 -11.333 68 -34 92c-24 25.333 -55.667 38 -95 38zM406.001 665.998l70 -34l-151 -135l-42 24z" />
    <glyph glyph-name="ocircumflex" unicode="&#xf4;" horiz-adv-x="528" 
d="M268 -12c-62.667 0 -111.999 18.999 -147.999 56.999c-35.333 38 -53 86.333 -53 145c0 68.667 25 126.334 75 173.001c45.333 41.333 100.666 62 165.999 62c63.333 0 114 -19 152 -57c34 -34 51 -79.333 51 -136c0 -74.667 -23.333 -134.667 -70 -180
c-43.333 -42.667 -101 -64 -173 -64zM307.001 360.999c-44 0 -81.667 -15.334 -113 -46.001c-35.333 -34 -53 -77.333 -53 -130c0 -37.333 12 -68.666 36 -93.999c24.667 -26 56.667 -39 96 -39c46 0 83.667 16 113 48c33.333 35.333 50 79 50 131
c0 37.333 -11.333 68 -34 92c-24 25.333 -55.667 38 -95 38zM331.001 577.998l-102 -81l-46 36l153 121l123 -121l-46 -36z" />
    <glyph glyph-name="otilde" unicode="&#xf5;" horiz-adv-x="528" 
d="M268 -12c-62.667 0 -111.999 18.999 -147.999 56.999c-35.333 38 -53 86.333 -53 145c0 68.667 25 126.334 75 173.001c45.333 41.333 100.666 62 165.999 62c63.333 0 114 -19 152 -57c34 -34 51 -79.333 51 -136c0 -74.667 -23.333 -134.667 -70 -180
c-43.333 -42.667 -101 -64 -173 -64zM307.001 360.999c-44 0 -81.667 -15.334 -113 -46.001c-35.333 -34 -53 -77.333 -53 -130c0 -37.333 12 -68.666 36 -93.999c24.667 -26 56.667 -39 96 -39c46 0 83.667 16 113 48c33.333 35.333 50 79 50 131
c0 37.333 -11.333 68 -34 92c-24 25.333 -55.667 38 -95 38zM211.001 496.998l-38 34.001c10.667 16 24 31 40 45c19.333 16 40 24 62 24c18 0 39.667 -6.66699 65 -20l17 -9c14.667 -7.33301 27 -11 37 -11c13.333 0 25 5 35 15c6 7.33301 12.667 16.666 20 27.999l37 -34
c-12 -21.333 -24 -37 -36 -47c-16.667 -14.667 -37 -22 -61 -22c-16.667 0 -35 4.66699 -55 14l-22 11c-21.333 10 -36 15 -44 15c-12 0 -23.333 -5.33301 -34 -16c-12 -10.667 -19.667 -19.667 -23 -27z" />
    <glyph glyph-name="odieresis" unicode="&#xf6;" horiz-adv-x="528" 
d="M268 -12c-62.667 0 -111.999 18.999 -147.999 56.999c-35.333 38 -53 86.333 -53 145c0 68.667 25 126.334 75 173.001c45.333 41.333 100.666 62 165.999 62c63.333 0 114 -19 152 -57c34 -34 51 -79.333 51 -136c0 -74.667 -23.333 -134.667 -70 -180
c-43.333 -42.667 -101 -64 -173 -64zM307.001 360.999c-44 0 -81.667 -15.334 -113 -46.001c-35.333 -34 -53 -77.333 -53 -130c0 -37.333 12 -68.666 36 -93.999c24.667 -26 56.667 -39 96 -39c46 0 83.667 16 113 48c33.333 35.333 50 79 50 131
c0 37.333 -11.333 68 -34 92c-24 25.333 -55.667 38 -95 38zM366.001 542.998c0 15.333 5.66895 28.667 17.002 40s24.666 17 39.999 17c12 0 22.333 -4.16699 31 -12.5s13 -18.833 13 -31.5c0 -14.667 -6 -28 -18 -40c-10.667 -10.667 -23.334 -16 -38.001 -16
c-12 0 -22.5 4 -31.5 12s-13.5 18.333 -13.5 31zM192.003 542.999c0 15.333 5.66895 28.667 17.002 40s24.666 17 39.999 17c12 0 22.333 -4.16699 31 -12.5s13 -18.833 13 -31.5c0 -14.667 -6 -28 -18 -40c-10.667 -10.667 -23.334 -16 -38.001 -16c-12 0 -22.5 4 -31.5 12
s-13.5 18.333 -13.5 31z" />
    <glyph glyph-name="divide" unicode="&#xf7;" 
d="M242 515c0 13.333 4.83301 24.833 14.5 34.5s21.167 14.5 34.5 14.5s24.833 -4.83301 34.5 -14.5s14.5 -21.167 14.5 -34.5s-4.83301 -24.833 -14.5 -34.5s-21.167 -14.5 -34.5 -14.5s-24.833 4.83301 -34.5 14.5s-14.5 21.167 -14.5 34.5zM242 151
c0 13.333 4.83301 24.833 14.5 34.5s21.167 14.5 34.5 14.5s24.833 -4.83301 34.5 -14.5s14.5 -21.167 14.5 -34.5s-4.83301 -24.833 -14.5 -34.5s-21.167 -14.5 -34.5 -14.5s-24.833 4.83301 -34.5 14.5s-14.5 21.167 -14.5 34.5zM74 300v66h434v-66h-434z" />
    <glyph glyph-name="oslash" unicode="&#xf8;" horiz-adv-x="524" 
d="M546 400l-67.999 -61.001c18.667 -32.667 28 -69 28 -109c0 -73.333 -23.333 -132.666 -70 -177.999c-43.333 -42.667 -101.333 -64 -174 -64c-52 0 -95.667 14 -131 42l-68 -60l-40 45l69 61c-20 34 -30 72 -30 114c0 69.333 25 127 75 173
c45.333 41.333 100.666 62 165.999 62c52 0 97 -14 135 -42l70 62zM150.001 123.999l236 210c-24.667 18 -52.667 27 -84 27c-46 0 -84.333 -15.333 -115 -46c-34 -34 -51 -77.667 -51 -131c0 -21.333 4.66699 -41.333 14 -60zM420.001 287.999l-233.999 -208.998
c23.333 -18 50.666 -27 81.999 -27c45.333 0 83 16 113 48c33.333 35.333 50 80.666 50 135.999c0 19.333 -3.66699 36.666 -11 51.999z" />
    <glyph glyph-name="ugrave" unicode="&#xf9;" horiz-adv-x="465" 
d="M190 415l-27.0039 -218.999c-2.66699 -25.333 -4 -43.333 -4 -54c0 -31.333 8.33301 -54.333 25 -69c16 -14 36.667 -21 62 -21c26.667 0 49 8.33301 67 25c7.33301 7.33301 13.5 17.166 18.5 29.499s8.33301 23.5 10 33.5s3.83398 25 6.50098 45l28 230h72l-29 -238
c-3.33301 -24 -6.16602 -42.5 -8.49902 -55.5s-7.16602 -28.333 -14.499 -46s-16.666 -32.5 -27.999 -44.5c-28.667 -28.667 -68.667 -43 -120 -43c-52 0 -92.333 12.667 -121 38c-27.333 24 -41 59 -41 105c0 11.333 2 35 6 71l26 213h72zM299.996 497.001l-118 135l78 34
l87 -145z" />
    <glyph glyph-name="uacute" unicode="&#xfa;" horiz-adv-x="465" 
d="M190 415l-27.0039 -218.999c-2.66699 -25.333 -4 -43.333 -4 -54c0 -31.333 8.33301 -54.333 25 -69c16 -14 36.667 -21 62 -21c26.667 0 49 8.33301 67 25c7.33301 7.33301 13.5 17.166 18.5 29.499s8.33301 23.5 10 33.5s3.83398 25 6.50098 45l28 230h72l-29 -238
c-3.33301 -24 -6.16602 -42.5 -8.49902 -55.5s-7.16602 -28.333 -14.499 -46s-16.666 -32.5 -27.999 -44.5c-28.667 -28.667 -68.667 -43 -120 -43c-52 0 -92.333 12.667 -121 38c-27.333 24 -41 59 -41 105c0 11.333 2 35 6 71l26 213h72zM367.996 666.001l70 -34
l-151 -135l-42 24z" />
    <glyph glyph-name="ucircumflex" unicode="&#xfb;" horiz-adv-x="465" 
d="M190 415l-27.0039 -218.999c-2.66699 -25.333 -4 -43.333 -4 -54c0 -31.333 8.33301 -54.333 25 -69c16 -14 36.667 -21 62 -21c26.667 0 49 8.33301 67 25c7.33301 7.33301 13.5 17.166 18.5 29.499s8.33301 23.5 10 33.5s3.83398 25 6.50098 45l28 230h72l-29 -238
c-3.33301 -24 -6.16602 -42.5 -8.49902 -55.5s-7.16602 -28.333 -14.499 -46s-16.666 -32.5 -27.999 -44.5c-28.667 -28.667 -68.667 -43 -120 -43c-52 0 -92.333 12.667 -121 38c-27.333 24 -41 59 -41 105c0 11.333 2 35 6 71l26 213h72zM307.996 578.001l-102 -81l-46 36
l153 121l123 -121l-46 -36z" />
    <glyph glyph-name="udieresis" unicode="&#xfc;" horiz-adv-x="465" 
d="M190 415l-27.0039 -218.999c-2.66699 -25.333 -4 -43.333 -4 -54c0 -31.333 8.33301 -54.333 25 -69c16 -14 36.667 -21 62 -21c26.667 0 49 8.33301 67 25c7.33301 7.33301 13.5 17.166 18.5 29.499s8.33301 23.5 10 33.5s3.83398 25 6.50098 45l28 230h72l-29 -238
c-3.33301 -24 -6.16602 -42.5 -8.49902 -55.5s-7.16602 -28.333 -14.499 -46s-16.666 -32.5 -27.999 -44.5c-28.667 -28.667 -68.667 -43 -120 -43c-52 0 -92.333 12.667 -121 38c-27.333 24 -41 59 -41 105c0 11.333 2 35 6 71l26 213h72zM336.996 543.001
c0 15.333 5.66895 28.667 17.002 40s24.666 17 39.999 17c12 0 22.333 -4.16699 31 -12.5s13 -18.833 13 -31.5c0 -14.667 -6 -28 -18 -40c-10.667 -10.667 -23.334 -16 -38.001 -16c-12 0 -22.5 4 -31.5 12s-13.5 18.333 -13.5 31zM162.998 543.002
c0 15.333 5.66895 28.667 17.002 40s24.666 17 39.999 17c12 0 22.333 -4.16699 31 -12.5s13 -18.833 13 -31.5c0 -14.667 -6 -28 -18 -40c-10.667 -10.667 -23.334 -16 -38.001 -16c-12 0 -22.5 4 -31.5 12s-13.5 18.333 -13.5 31z" />
    <glyph glyph-name="yacute" unicode="&#xfd;" horiz-adv-x="460" 
d="M39 -230l165 269l-145 376h80l110 -297l172 297h82l-384 -645h-80zM374 666l70 -34l-151 -135l-42 24z" />
    <glyph glyph-name="thorn" unicode="&#xfe;" horiz-adv-x="528" 
d="M147 58l-35.9951 -287.999h-72l118 959h72l-45 -372c15.333 20.667 34.666 37 57.999 49c23.333 12.667 51.666 19 84.999 19c54 0 97.333 -16 130 -48c36 -34.667 54 -82.334 54 -143.001c0 -80.667 -24.333 -144.667 -73 -192c-36.667 -36 -86.334 -54 -149.001 -54
c-38.667 0 -70.334 7.66699 -95.001 23c-18.667 12 -34.334 27.667 -47.001 47zM287.005 52.001c37.333 0 68.666 11.667 93.999 35c37.333 34.667 56 82 56 142c0 40.667 -12 73 -36 97c-22 23.333 -52.667 35 -92 35c-41.333 0 -75.666 -14.667 -102.999 -44
c-30.667 -32.667 -46 -74.667 -46 -126c0 -40 11.333 -73 34 -99c24 -26.667 55 -40 93 -40z" />
    <glyph glyph-name="ydieresis" unicode="&#xff;" horiz-adv-x="460" 
d="M39 -230l165 269l-145 376h80l110 -297l172 297h82l-384 -645h-80zM334 543c0 15.333 5.66895 28.667 17.002 40s24.666 17 39.999 17c12 0 22.333 -4.16699 31 -12.5s13 -18.833 13 -31.5c0 -14.667 -6 -28 -18 -40c-10.667 -10.667 -23.334 -16 -38.001 -16
c-12 0 -22.5 4 -31.5 12s-13.5 18.333 -13.5 31zM160.002 543.001c0 15.333 5.66895 28.667 17.002 40s24.666 17 39.999 17c12 0 22.333 -4.16699 31 -12.5s13 -18.833 13 -31.5c0 -14.667 -6 -28 -18 -40c-10.667 -10.667 -23.334 -16 -38.001 -16c-12 0 -22.5 4 -31.5 12
s-13.5 18.333 -13.5 31z" />
    <glyph glyph-name="Amacron" unicode="&#x100;" horiz-adv-x="622" 
d="M534 0l-55 188h-284l-103 -188h-84l393 699l213 -699h-80zM233 258h226l-80 267zM240 733l8 64h320l-8 -64h-320z" />
    <glyph glyph-name="amacron" unicode="&#x101;" horiz-adv-x="528" 
d="M432 356l7.00195 59.001h72l-51 -415h-72l7 58c-16 -22 -33.333 -38.333 -52 -49c-24.667 -14 -53.334 -21 -86.001 -21c-57.333 0 -102.333 17 -135 51c-36 38 -54 87.333 -54 148c0 77.333 24 138.666 72 183.999c38 36 87.667 54 149 54c34 0 63.333 -6.66699 88 -20
c23.333 -12 41.666 -28.333 54.999 -49zM295.002 361.001c-39.333 0 -72.667 -13.001 -100 -39.001c-35.333 -33.333 -53 -76.666 -53 -129.999c0 -46 14.333 -82.333 43 -109c21.333 -20.667 49.333 -31 84 -31c43.333 0 77.666 13.667 102.999 41
c31.333 32.667 47 77.667 47 135c0 42.667 -13 76 -39 100c-23.333 22 -51.666 33 -84.999 33zM176.001 513l7 60h302l-7 -60h-302z" />
    <glyph glyph-name="Abreve" unicode="&#x102;" horiz-adv-x="622" 
d="M534 0l-55 188h-284l-103 -188h-84l393 699l213 -699h-80zM233 258h226l-80 267zM500 841h68c-8.66699 -37.333 -27.334 -66.333 -56.001 -87c-28.667 -22 -65 -33 -109 -33c-45.333 0 -81 13 -107 39c-22 22 -34.667 49 -38 81h64c4.66699 -17.333 13.667 -31 27 -41
s32.333 -15 57 -15s44.334 4.66699 59.001 14c15.333 8.66699 27 22.667 35 42z" />
    <glyph glyph-name="abreve" unicode="&#x103;" horiz-adv-x="528" 
d="M432 356l7.00195 59.001h72l-51 -415h-72l7 58c-16 -22 -33.333 -38.333 -52 -49c-24.667 -14 -53.334 -21 -86.001 -21c-57.333 0 -102.333 17 -135 51c-36 38 -54 87.333 -54 148c0 77.333 24 138.666 72 183.999c38 36 87.667 54 149 54c34 0 63.333 -6.66699 88 -20
c23.333 -12 41.666 -28.333 54.999 -49zM295.002 361.001c-39.333 0 -72.667 -13.001 -100 -39.001c-35.333 -33.333 -53 -76.666 -53 -129.999c0 -46 14.333 -82.333 43 -109c21.333 -20.667 49.333 -31 84 -31c43.333 0 77.666 13.667 102.999 41
c31.333 32.667 47 77.667 47 135c0 42.667 -13 76 -39 100c-23.333 22 -51.666 33 -84.999 33zM181.001 617h59.0029c3.33301 -18.667 10.666 -33 21.999 -43c12.667 -11.333 30.667 -17 54 -17c25.333 0 45.666 6 60.999 18c14 10.667 24.333 24.667 31 42h63
c-9.33301 -32 -24.333 -58.333 -45 -79c-27.333 -27.333 -63.333 -41 -108 -41c-42.667 0 -75.334 10.667 -98.001 32c-24 22.667 -37 52 -39 88z" />
    <glyph glyph-name="Aogonek" unicode="&#x104;" horiz-adv-x="622" 
d="M8 0l393.001 699l213 -699h-18c-18.667 -13.333 -34.334 -26.333 -47.001 -39c-19.333 -19.333 -29 -38.333 -29 -57c0 -12 4.66699 -21 14 -27c7.33301 -4.66699 16.333 -7 27 -7c16.667 0 33.667 4.33301 51 13l-16 -59c-18.667 -9.33301 -37.667 -14 -57 -14
c-26 0 -46.667 6.66699 -62 20c-16 14.667 -24 34 -24 58c0 21.333 9 43 27 65c15.333 18 33.333 33.667 54 47l-55 188h-284l-103 -188h-84zM233.001 258h226l-80 267z" />
    <glyph glyph-name="aogonek" unicode="&#x105;" horiz-adv-x="528" 
d="M432 356l7 58.999h72l-51 -415h-14c-23.333 -14.667 -40.666 -27.667 -51.999 -39c-19.333 -19.333 -29 -38.333 -29 -57c0 -9.33301 2.66699 -16.666 8 -21.999c8 -8 20.667 -12 38 -12c16 0 33 4.33301 51 13l-15 -55c-18 -9.33301 -38 -14 -60 -14
c-25.333 0 -46.333 7.66699 -63 23c-14 14 -21 30.667 -21 50c0 26.667 10.667 51.334 32 74.001c14.667 15.333 32.334 28.333 53.001 39l7 58c-16 -22 -33.333 -38.333 -52 -49c-24.667 -14 -53.334 -21 -86.001 -21c-57.333 0 -102.333 17 -135 51
c-36 38 -54 87.333 -54 148c0 77.333 24 138.666 72 183.999c38 36 87.667 54 149 54c34 0 63.333 -6.66699 88 -20c23.333 -12 41.666 -28.333 54.999 -49zM295 360.999c-39.333 0 -72.667 -13.001 -100 -39.001c-35.333 -33.333 -53 -76.666 -53 -129.999
c0 -46 14.333 -82.333 43 -109c21.333 -20.667 49.333 -31 84 -31c43.333 0 77.666 13.667 102.999 41c31.333 32.667 47 77.667 47 135c0 42.667 -13 76 -39 100c-23.333 22 -51.666 33 -84.999 33z" />
    <glyph glyph-name="Cacute" unicode="&#x106;" horiz-adv-x="650" 
d="M675 612l-11.002 -92.002c-23.333 26 -49.333 46.333 -78 61c-35.333 18 -73 27 -113 27c-86.667 0 -159 -29 -217 -87c-58 -59.333 -87 -130.666 -87 -213.999c0 -70.667 23.333 -130.667 70 -180c44 -46 100 -69 168 -69c48.667 0 91 9.33301 127 28
c30 15.333 58 35 84 59l-11 -92c-32 -22 -60.333 -37.667 -85 -47c-32.667 -12 -72.667 -18 -120 -18c-94 0 -169.667 29.333 -227 88c-56 56.667 -84 131 -84 223c0 112.667 37.333 205.334 112 278.001c69.333 67.333 159.333 101 270 101
c50.667 0 94.334 -7.66699 131.001 -23c22.667 -10 46.334 -24.333 71.001 -43zM559.998 881.998l65 -45l-168 -117l-39 32z" />
    <glyph glyph-name="cacute" unicode="&#x107;" horiz-adv-x="440" 
d="M442 385l-10.001 -86c-17.333 19.333 -34.666 34 -51.999 44c-22 12 -47 18 -75 18c-43.333 0 -80.333 -14.333 -111 -43c-35.333 -34 -53 -76 -53 -126c0 -42.667 13.333 -77.334 40 -104.001c24 -24 56 -36 96 -36c28 0 53.667 6 77 18
c20.667 10.667 40 26.334 58 47.001l-10 -86c-20.667 -15.333 -40.667 -26 -60 -32c-22 -7.33301 -46.667 -11 -74 -11c-61.333 0 -110 18.333 -146 55c-36.667 38 -55 86.333 -55 145c0 69.333 24 127.333 72 174c42 42 98 63 168 63c50.667 0 95.667 -13.333 135 -40z
M382.999 666l70 -34l-151 -135l-42 24z" />
    <glyph glyph-name="Ccircumflex" unicode="&#x108;" horiz-adv-x="650" 
d="M675 612l-11.002 -92.002c-23.333 26 -49.333 46.333 -78 61c-35.333 18 -73 27 -113 27c-86.667 0 -159 -29 -217 -87c-58 -59.333 -87 -130.666 -87 -213.999c0 -70.667 23.333 -130.667 70 -180c44 -46 100 -69 168 -69c48.667 0 91 9.33301 127 28
c30 15.333 58 35 84 59l-11 -92c-32 -22 -60.333 -37.667 -85 -47c-32.667 -12 -72.667 -18 -120 -18c-94 0 -169.667 29.333 -227 88c-56 56.667 -84 131 -84 223c0 112.667 37.333 205.334 112 278.001c69.333 67.333 159.333 101 270 101
c50.667 0 94.334 -7.66699 131.001 -23c22.667 -10 46.334 -24.333 71.001 -43zM491.998 796.998l-97 -76l-51 41l154 119l126 -119l-53 -41z" />
    <glyph glyph-name="ccircumflex" unicode="&#x109;" horiz-adv-x="440" 
d="M442 385l-10.001 -86c-17.333 19.333 -34.666 34 -51.999 44c-22 12 -47 18 -75 18c-43.333 0 -80.333 -14.333 -111 -43c-35.333 -34 -53 -76 -53 -126c0 -42.667 13.333 -77.334 40 -104.001c24 -24 56 -36 96 -36c28 0 53.667 6 77 18
c20.667 10.667 40 26.334 58 47.001l-10 -86c-20.667 -15.333 -40.667 -26 -60 -32c-22 -7.33301 -46.667 -11 -74 -11c-61.333 0 -110 18.333 -146 55c-36.667 38 -55 86.333 -55 145c0 69.333 24 127.333 72 174c42 42 98 63 168 63c50.667 0 95.667 -13.333 135 -40z
M324.999 578l-102 -81l-46 36l153 121l123 -121l-46 -36z" />
    <glyph glyph-name="Cdotaccent" unicode="&#x10a;" horiz-adv-x="650" 
d="M675 612l-11.002 -92.002c-23.333 26 -49.333 46.333 -78 61c-35.333 18 -73 27 -113 27c-86.667 0 -159 -29 -217 -87c-58 -59.333 -87 -130.666 -87 -213.999c0 -70.667 23.333 -130.667 70 -180c44 -46 100 -69 168 -69c48.667 0 91 9.33301 127 28
c30 15.333 58 35 84 59l-11 -92c-32 -22 -60.333 -37.667 -85 -47c-32.667 -12 -72.667 -18 -120 -18c-94 0 -169.667 29.333 -227 88c-56 56.667 -84 131 -84 223c0 112.667 37.333 205.334 112 278.001c69.333 67.333 159.333 101 270 101
c50.667 0 94.334 -7.66699 131.001 -23c22.667 -10 46.334 -24.333 71.001 -43zM448.998 775.998c0 19.333 6.66602 34.999 19.999 46.999c11.333 10.667 25 16 41 16c14 0 26.333 -4.66699 37 -14c8.66699 -8 13 -19.667 13 -35c0 -17.333 -5.33301 -31.666 -16 -42.999
c-11.333 -12 -25.666 -18 -42.999 -18s-30.333 4.33301 -39 13s-13 20 -13 34z" />
    <glyph glyph-name="cdotaccent" unicode="&#x10b;" horiz-adv-x="440" 
d="M442 385l-10.001 -86c-17.333 19.333 -34.666 34 -51.999 44c-22 12 -47 18 -75 18c-43.333 0 -80.333 -14.333 -111 -43c-35.333 -34 -53 -76 -53 -126c0 -42.667 13.333 -77.334 40 -104.001c24 -24 56 -36 96 -36c28 0 53.667 6 77 18
c20.667 10.667 40 26.334 58 47.001l-10 -86c-20.667 -15.333 -40.667 -26 -60 -32c-22 -7.33301 -46.667 -11 -74 -11c-61.333 0 -110 18.333 -146 55c-36.667 38 -55 86.333 -55 145c0 69.333 24 127.333 72 174c42 42 98 63 168 63c50.667 0 95.667 -13.333 135 -40z
M278.999 546c0 17.333 5.66699 31.668 17 43.001s25.333 17 42 17c14 0 25.333 -4.33301 34 -13s13 -20.334 13 -35.001c0 -16.667 -5.66699 -30.667 -17 -42c-10.667 -10.667 -24 -16 -40 -16s-28.333 4.33301 -37 13c-8 10.667 -12 21.667 -12 33z" />
    <glyph glyph-name="Ccaron" unicode="&#x10c;" horiz-adv-x="650" 
d="M675 612l-11.002 -92.002c-23.333 26 -49.333 46.333 -78 61c-35.333 18 -73 27 -113 27c-86.667 0 -159 -29 -217 -87c-58 -59.333 -87 -130.666 -87 -213.999c0 -70.667 23.333 -130.667 70 -180c44 -46 100 -69 168 -69c48.667 0 91 9.33301 127 28
c30 15.333 58 35 84 59l-11 -92c-32 -22 -60.333 -37.667 -85 -47c-32.667 -12 -72.667 -18 -120 -18c-94 0 -169.667 29.333 -227 88c-56 56.667 -84 131 -84 223c0 112.667 37.333 205.334 112 278.001c69.333 67.333 159.333 101 270 101
c50.667 0 94.334 -7.66699 131.001 -23c22.667 -10 46.334 -24.333 71.001 -43zM484.998 804.998l97 76l51 -41l-154 -119l-126 119l53 41z" />
    <glyph glyph-name="ccaron" unicode="&#x10d;" horiz-adv-x="440" 
d="M442 385l-10.001 -86c-17.333 19.333 -34.666 34 -51.999 44c-22 12 -47 18 -75 18c-43.333 0 -80.333 -14.333 -111 -43c-35.333 -34 -53 -76 -53 -126c0 -42.667 13.333 -77.334 40 -104.001c24 -24 56 -36 96 -36c28 0 53.667 6 77 18
c20.667 10.667 40 26.334 58 47.001l-10 -86c-20.667 -15.333 -40.667 -26 -60 -32c-22 -7.33301 -46.667 -11 -74 -11c-61.333 0 -110 18.333 -146 55c-36.667 38 -55 86.333 -55 145c0 69.333 24 127.333 72 174c42 42 98 63 168 63c50.667 0 95.667 -13.333 135 -40z
M315.999 573l102 81l46 -36l-153 -121l-123 121l46 36z" />
    <glyph glyph-name="Dcaron" unicode="&#x10e;" horiz-adv-x="636" 
d="M86 0l82 666.999h121c112.667 0 198.334 -27.667 257.001 -83c54 -52.667 81 -124.667 81 -216c0 -111.333 -32.333 -200 -97 -266c-38 -39.333 -82.333 -66.166 -133 -80.499s-111.334 -21.5 -182.001 -21.5h-129zM233 596.999l-64 -527h49
c116.667 0 201.334 26.333 254.001 79c51.333 51.333 77 122.333 77 213c0 70 -20 125.333 -60 166c-44.667 46 -108.334 69 -191.001 69h-65zM365 804.999l97 76l51 -41l-154 -119l-126 119l53 41z" />
    <glyph glyph-name="dcaron" unicode="&#x10f;" horiz-adv-x="600" 
d="M432 356l46 373h72l-90 -729h-72l7 58c-14.667 -22 -34 -39.333 -58 -52c-23.333 -12 -50.333 -18 -81 -18c-51.333 0 -93.666 15.667 -126.999 47c-40.667 39.333 -61 90.333 -61 153c0 34 6.5 67.167 19.5 99.5s30.5 59.166 52.5 80.499
c39.333 38 88.666 57 147.999 57c33.333 0 63.333 -6.66699 90 -20c21.333 -11.333 39.333 -27.666 54 -48.999zM291 361c-38 0 -70.334 -12.333 -97.001 -37c-34.667 -32 -52 -75 -52 -129c0 -43.333 13 -78.666 39 -105.999c23.333 -24.667 54 -37 92 -37
c40.667 0 73.334 12 98.001 36c32 32 48 75.667 48 131c0 43.333 -12.667 78.666 -38 105.999c-22 24 -52 36 -90 36zM559.999 532l76 158l64 -30l-94 -150z" />
    <glyph glyph-name="Dcroat" unicode="&#x110;" horiz-adv-x="634" 
d="M84 0l42 335.999h-86l8 64h86l32 267h121c112.667 0 198.334 -27.667 257.001 -83c54 -52.667 81 -124.667 81 -216c0 -111.333 -32.333 -200 -97 -266c-38 -39.333 -82.333 -66.166 -133 -80.499s-111.334 -21.5 -182.001 -21.5h-129zM231 596.999l-24 -197h136l-8 -64
h-136l-32 -266h49c116.667 0 201.334 26.333 254.001 79c51.333 51.333 77 122.333 77 213c0 70 -20 125.333 -60 166c-44.667 46 -108.334 69 -191.001 69h-65z" />
    <glyph glyph-name="dcroat" unicode="&#x111;" horiz-adv-x="528" 
d="M388 0l7 58c-14.667 -22 -34 -39.333 -58 -52c-23.333 -12 -50.333 -18 -81 -18c-51.333 0 -93.666 15.667 -126.999 47c-40.667 39.333 -61 90.333 -61 153c0 34 6.5 67.167 19.5 99.5s30.5 59.166 52.5 80.499c39.333 38 88.666 57 147.999 57
c33.333 0 63.333 -6.66699 90 -20c21.333 -11.333 39.333 -27.666 54 -48.999l24 198h-200l7 60h200l15 115h72l-15 -115h98l-7 -60h-98l-68 -554h-72zM291 361c-38 0 -70.334 -12.333 -97.001 -37c-34.667 -32 -52 -75 -52 -129c0 -43.333 13 -78.666 39 -105.999
c23.333 -24.667 54 -37 92 -37c40.667 0 73.334 12 98.001 36c32 32 48 75.667 48 131c0 43.333 -12.667 78.666 -38 105.999c-22 24 -52 36 -90 36z" />
    <glyph glyph-name="Emacron" unicode="&#x112;" horiz-adv-x="482" 
d="M514 667l-9 -70h-272l-24 -198h264l-9 -70h-264l-31 -259h272l-9 -70h-346l82 667h346zM190 733l8 64h320l-8 -64h-320z" />
    <glyph glyph-name="emacron" unicode="&#x113;" horiz-adv-x="483" 
d="M395 139l61.001 -32.999c-22.667 -38 -48.334 -66.667 -77.001 -86c-32.667 -21.333 -72.667 -32 -120 -32c-58 0 -103.667 17.333 -137 52c-36.667 38 -55 87.667 -55 149c0 71.333 23.667 130.666 71 177.999c38.667 38.667 87 58 145 58
c57.333 0 102.333 -16.333 135 -49c40.667 -42 56.334 -103 47.001 -183h-323c-0.666992 -48 11.666 -84.667 36.999 -110c20.667 -20.667 48 -31 82 -31c31.333 0 58 7.66699 80 23c20.667 14.667 38.667 36 54 64zM154.001 253.001l241.998 0.000976562
c-1.33301 33.333 -13 60.666 -35 81.999c-18 17.333 -43.333 26 -76 26c-37.333 0 -67.666 -11.667 -90.999 -35c-19.333 -20 -32.666 -44.333 -39.999 -73zM140.999 513.002l7 60h302l-7 -60h-302z" />
    <glyph glyph-name="Edotaccent" unicode="&#x116;" horiz-adv-x="482" 
d="M514 667l-9 -70h-272l-24 -198h264l-9 -70h-264l-31 -259h272l-9 -70h-346l82 667h346zM300 776c0 19.333 6.66602 34.999 19.999 46.999c11.333 10.667 25 16 41 16c14 0 26.333 -4.66699 37 -14c8.66699 -8 13 -19.667 13 -35c0 -17.333 -5.33301 -31.666 -16 -42.999
c-11.333 -12 -25.666 -18 -42.999 -18s-30.333 4.33301 -39 13s-13 20 -13 34z" />
    <glyph glyph-name="edotaccent" unicode="&#x117;" horiz-adv-x="483" 
d="M395 139l61.001 -32.999c-22.667 -38 -48.334 -66.667 -77.001 -86c-32.667 -21.333 -72.667 -32 -120 -32c-58 0 -103.667 17.333 -137 52c-36.667 38 -55 87.667 -55 149c0 71.333 23.667 130.666 71 177.999c38.667 38.667 87 58 145 58
c57.333 0 102.333 -16.333 135 -49c40.667 -42 56.334 -103 47.001 -183h-323c-0.666992 -48 11.666 -84.667 36.999 -110c20.667 -20.667 48 -31 82 -31c31.333 0 58 7.66699 80 23c20.667 14.667 38.667 36 54 64zM154.001 253.001l241.998 0.000976562
c-1.33301 33.333 -13 60.666 -35 81.999c-18 17.333 -43.333 26 -76 26c-37.333 0 -67.666 -11.667 -90.999 -35c-19.333 -20 -32.666 -44.333 -39.999 -73zM243.999 546.002c0 17.333 5.66699 31.668 17 43.001s25.333 17 42 17c14 0 25.333 -4.33301 34 -13
s13 -20.334 13 -35.001c0 -16.667 -5.66699 -30.667 -17 -42c-10.667 -10.667 -24 -16 -40 -16s-28.333 4.33301 -37 13c-8 10.667 -12 21.667 -12 33z" />
    <glyph glyph-name="Eogonek" unicode="&#x118;" horiz-adv-x="482" 
d="M514 667l-8.99902 -70h-272l-24 -198h264l-9 -70h-264l-31 -259h272l-9 -70h-40c-18.667 -13.333 -34.334 -26.333 -47.001 -39c-19.333 -19.333 -29 -38.333 -29 -57c0 -12 4.66699 -21 14 -27c7.33301 -4.66699 16.333 -7 27 -7c16.667 0 33.667 4.33301 51 13l-16 -59
c-18.667 -9.33301 -37.667 -14 -57 -14c-26 0 -46.667 6.66699 -62 20c-16 14.667 -24 34 -24 58c0 21.333 9 43 27 65c15.333 18 33.333 33.667 54 47h-244l82 667h346z" />
    <glyph glyph-name="eogonek" unicode="&#x119;" horiz-adv-x="483" 
d="M395 139l61 -33c-10.667 -21.333 -25 -40.666 -43 -57.999c-16.667 -16 -35.667 -30.667 -57 -44c-29.333 -20 -48 -34.333 -56 -43c-19.333 -20 -29 -39 -29 -57c0 -9.33301 2.66699 -16.666 8 -21.999c8 -8 20.667 -12 38 -12c16 0 33 4.33301 51 13l-15 -55
c-18 -9.33301 -38 -14 -60 -14c-25.333 0 -46.333 7.66699 -63 23c-14 12.667 -21 29.667 -21 51s7 41 21 59c12 15.333 25 29 39 41c-64.667 0 -113.667 17.333 -147 52c-36.667 38 -55 87.667 -55 149c0 71.333 23.667 130.666 71 177.999c38.667 38.667 87 58 145 58
c57.333 0 102.333 -16.333 135 -49c32.667 -34 49 -81.333 49 -142c0 -18 -0.666992 -31.667 -2 -41h-323c0 -48.667 12.333 -85.334 37 -110.001c20.667 -20.667 48 -31 82 -31c31.333 0 58 7.66699 80 23c20.667 14.667 38.667 36 54 64zM154 253l241.998 0.000976562
c-1.33301 33.333 -13 60.666 -35 81.999c-18 17.333 -43.333 26 -76 26c-37.333 0 -67.666 -11.667 -90.999 -35c-19.333 -20 -32.666 -44.333 -39.999 -73z" />
    <glyph glyph-name="Ecaron" unicode="&#x11a;" horiz-adv-x="482" 
d="M514 667l-9 -70h-272l-24 -198h264l-9 -70h-264l-31 -259h272l-9 -70h-346l82 667h346zM355 805l97 76l51 -41l-154 -119l-126 119l53 41z" />
    <glyph glyph-name="ecaron" unicode="&#x11b;" horiz-adv-x="483" 
d="M395 139l61.001 -32.999c-22.667 -38 -48.334 -66.667 -77.001 -86c-32.667 -21.333 -72.667 -32 -120 -32c-58 0 -103.667 17.333 -137 52c-36.667 38 -55 87.667 -55 149c0 71.333 23.667 130.666 71 177.999c38.667 38.667 87 58 145 58
c57.333 0 102.333 -16.333 135 -49c40.667 -42 56.334 -103 47.001 -183h-323c-0.666992 -48 11.666 -84.667 36.999 -110c20.667 -20.667 48 -31 82 -31c31.333 0 58 7.66699 80 23c20.667 14.667 38.667 36 54 64zM154.001 253.001l241.998 0.000976562
c-1.33301 33.333 -13 60.666 -35 81.999c-18 17.333 -43.333 26 -76 26c-37.333 0 -67.666 -11.667 -90.999 -35c-19.333 -20 -32.666 -44.333 -39.999 -73zM294.999 573.002l102 81l46 -36l-153 -121l-123 121l46 36z" />
    <glyph glyph-name="Gcircumflex" unicode="&#x11c;" horiz-adv-x="760" 
d="M465 265l7.99902 69.999h278l-2 -16c-12.667 -98.667 -45.334 -176 -98.001 -232c-61.333 -66 -142.666 -99 -243.999 -99c-93.333 0 -169.333 29.333 -228 88s-88 133 -88 223c0 108 36.667 198.667 110 272c70.667 71.333 162.334 107 275.001 107
c68.667 0 127 -15.333 175 -46c39.333 -24 71 -57 95 -99l-61 -50c-18.667 36.667 -45.667 66.334 -81 89.001c-37.333 24 -80.333 36 -129 36c-89.333 0 -162.333 -27.667 -219 -83c-29.333 -29.333 -51.5 -64 -66.5 -104s-22.5 -80 -22.5 -120
c0 -69.333 23 -127.666 69 -174.999c44 -45.333 103.333 -68 178 -68s134 22.667 178 68c35.333 35.333 59 81.666 71 138.999h-198zM491.999 796.999l-97 -76l-51 41l154 119l126 -119l-53 -41z" />
    <glyph glyph-name="gcircumflex" unicode="&#x11d;" horiz-adv-x="526" 
d="M430 356l7.00098 58.999h72l-49 -405c-3.33301 -28.667 -6.5 -50.834 -9.5 -66.501s-9.16699 -34.667 -18.5 -57s-21.666 -41.166 -36.999 -56.499c-38.667 -40 -92.667 -60 -162 -60c-60.667 0 -107.334 16.333 -140.001 49c-31.333 32 -47 77 -47 135v6h71v-4
c0 -41.333 11 -72.333 33 -93c20.667 -19.333 49.334 -29 86.001 -29c45.333 0 80.333 12.333 105 37c11.333 11.333 20.5 25.5 27.5 42.5s11.333 30.667 13 41s3.5 24.833 5.5 43.5l6 60c-14 -22 -33.667 -39.333 -59 -52c-25.333 -12 -52 -18 -80 -18
c-58 0 -103.667 17.667 -137 53c-34.667 35.333 -52 82.333 -52 141c0 75.333 22.333 136 67 182c39.333 40.667 90.666 61 153.999 61c37.333 0 68 -6.66699 92 -20c21.333 -11.333 38.666 -27.666 51.999 -48.999zM294.001 360.999c-39.333 0 -72.667 -12.667 -100 -38
c-36 -34 -54 -79.333 -54 -136c0 -43.333 12.333 -77.333 37 -102c22 -22 50.333 -33 85 -33c41.333 0 75.333 12 102 36c17.333 15.333 30.5 36 39.5 62s13.5 51.333 13.5 76c0 40.667 -12 74 -36 100c-22 23.333 -51 35 -87 35zM325 577.999l-102 -81l-46 36l153 121
l123 -121l-46 -36z" />
    <glyph glyph-name="Gbreve" unicode="&#x11e;" horiz-adv-x="760" 
d="M465 265l7.99902 69.999h278l-2 -16c-12.667 -98.667 -45.334 -176 -98.001 -232c-61.333 -66 -142.666 -99 -243.999 -99c-93.333 0 -169.333 29.333 -228 88s-88 133 -88 223c0 108 36.667 198.667 110 272c70.667 71.333 162.334 107 275.001 107
c68.667 0 127 -15.333 175 -46c39.333 -24 71 -57 95 -99l-61 -50c-18.667 36.667 -45.667 66.334 -81 89.001c-37.333 24 -80.333 36 -129 36c-89.333 0 -162.333 -27.667 -219 -83c-29.333 -29.333 -51.5 -64 -66.5 -104s-22.5 -80 -22.5 -120
c0 -69.333 23 -127.666 69 -174.999c44 -45.333 103.333 -68 178 -68s134 22.667 178 68c35.333 35.333 59 81.666 71 138.999h-198zM585.999 840.999h68c-8.66699 -37.333 -27.334 -66.333 -56.001 -87c-28.667 -22 -65 -33 -109 -33c-45.333 0 -81 13 -107 39
c-22 22 -34.667 49 -38 81h64c4.66699 -17.333 13.667 -31 27 -41s32.333 -15 57 -15s44.334 4.66699 59.001 14c15.333 8.66699 27 22.667 35 42z" />
    <glyph glyph-name="gbreve" unicode="&#x11f;" horiz-adv-x="526" 
d="M430 356l7.00098 58.999h72l-49 -405c-3.33301 -28.667 -6.5 -50.834 -9.5 -66.501s-9.16699 -34.667 -18.5 -57s-21.666 -41.166 -36.999 -56.499c-38.667 -40 -92.667 -60 -162 -60c-60.667 0 -107.334 16.333 -140.001 49c-31.333 32 -47 77 -47 135v6h71v-4
c0 -41.333 11 -72.333 33 -93c20.667 -19.333 49.334 -29 86.001 -29c45.333 0 80.333 12.333 105 37c11.333 11.333 20.5 25.5 27.5 42.5s11.333 30.667 13 41s3.5 24.833 5.5 43.5l6 60c-14 -22 -33.667 -39.333 -59 -52c-25.333 -12 -52 -18 -80 -18
c-58 0 -103.667 17.667 -137 53c-34.667 35.333 -52 82.333 -52 141c0 75.333 22.333 136 67 182c39.333 40.667 90.666 61 153.999 61c37.333 0 68 -6.66699 92 -20c21.333 -11.333 38.666 -27.666 51.999 -48.999zM294.001 360.999c-39.333 0 -72.667 -12.667 -100 -38
c-36 -34 -54 -79.333 -54 -136c0 -43.333 12.333 -77.333 37 -102c22 -22 50.333 -33 85 -33c41.333 0 75.333 12 102 36c17.333 15.333 30.5 36 39.5 62s13.5 51.333 13.5 76c0 40.667 -12 74 -36 100c-22 23.333 -51 35 -87 35zM181 616.999h59.0029
c3.33301 -18.667 10.666 -33 21.999 -43c12.667 -11.333 30.667 -17 54 -17c25.333 0 45.666 6 60.999 18c14 10.667 24.333 24.667 31 42h63c-9.33301 -32 -24.333 -58.333 -45 -79c-27.333 -27.333 -63.333 -41 -108 -41c-42.667 0 -75.334 10.667 -98.001 32
c-24 22.667 -37 52 -39 88z" />
    <glyph glyph-name="Gdotaccent" unicode="&#x120;" horiz-adv-x="760" 
d="M465 265l7.99902 69.999h278l-2 -16c-12.667 -98.667 -45.334 -176 -98.001 -232c-61.333 -66 -142.666 -99 -243.999 -99c-93.333 0 -169.333 29.333 -228 88s-88 133 -88 223c0 108 36.667 198.667 110 272c70.667 71.333 162.334 107 275.001 107
c68.667 0 127 -15.333 175 -46c39.333 -24 71 -57 95 -99l-61 -50c-18.667 36.667 -45.667 66.334 -81 89.001c-37.333 24 -80.333 36 -129 36c-89.333 0 -162.333 -27.667 -219 -83c-29.333 -29.333 -51.5 -64 -66.5 -104s-22.5 -80 -22.5 -120
c0 -69.333 23 -127.666 69 -174.999c44 -45.333 103.333 -68 178 -68s134 22.667 178 68c35.333 35.333 59 81.666 71 138.999h-198zM431.999 775.999c0 19.333 6.66602 34.999 19.999 46.999c11.333 10.667 25 16 41 16c14 0 26.333 -4.66699 37 -14
c8.66699 -8 13 -19.667 13 -35c0 -17.333 -5.33301 -31.666 -16 -42.999c-11.333 -12 -25.666 -18 -42.999 -18s-30.333 4.33301 -39 13s-13 20 -13 34z" />
    <glyph glyph-name="gdotaccent" unicode="&#x121;" horiz-adv-x="526" 
d="M430 356l7.00098 58.999h72l-49 -405c-3.33301 -28.667 -6.5 -50.834 -9.5 -66.501s-9.16699 -34.667 -18.5 -57s-21.666 -41.166 -36.999 -56.499c-38.667 -40 -92.667 -60 -162 -60c-60.667 0 -107.334 16.333 -140.001 49c-31.333 32 -47 77 -47 135v6h71v-4
c0 -41.333 11 -72.333 33 -93c20.667 -19.333 49.334 -29 86.001 -29c45.333 0 80.333 12.333 105 37c11.333 11.333 20.5 25.5 27.5 42.5s11.333 30.667 13 41s3.5 24.833 5.5 43.5l6 60c-14 -22 -33.667 -39.333 -59 -52c-25.333 -12 -52 -18 -80 -18
c-58 0 -103.667 17.667 -137 53c-34.667 35.333 -52 82.333 -52 141c0 75.333 22.333 136 67 182c39.333 40.667 90.666 61 153.999 61c37.333 0 68 -6.66699 92 -20c21.333 -11.333 38.666 -27.666 51.999 -48.999zM294.001 360.999c-39.333 0 -72.667 -12.667 -100 -38
c-36 -34 -54 -79.333 -54 -136c0 -43.333 12.333 -77.333 37 -102c22 -22 50.333 -33 85 -33c41.333 0 75.333 12 102 36c17.333 15.333 30.5 36 39.5 62s13.5 51.333 13.5 76c0 40.667 -12 74 -36 100c-22 23.333 -51 35 -87 35zM263 545.999
c0 17.333 5.66699 31.668 17 43.001s25.333 17 42 17c14 0 25.333 -4.33301 34 -13s13 -20.334 13 -35.001c0 -16.667 -5.66699 -30.667 -17 -42c-10.667 -10.667 -24 -16 -40 -16s-28.333 4.33301 -37 13c-8 10.667 -12 21.667 -12 33z" />
    <glyph glyph-name="Gcommaaccent" unicode="&#x122;" horiz-adv-x="760" 
d="M465 265l7.99902 69.999h278l-2 -16c-12.667 -98.667 -45.334 -176 -98.001 -232c-61.333 -66 -142.666 -99 -243.999 -99c-93.333 0 -169.333 29.333 -228 88s-88 133 -88 223c0 108 36.667 198.667 110 272c70.667 71.333 162.334 107 275.001 107
c68.667 0 127 -15.333 175 -46c39.333 -24 71 -57 95 -99l-61 -50c-18.667 36.667 -45.667 66.334 -81 89.001c-37.333 24 -80.333 36 -129 36c-89.333 0 -162.333 -27.667 -219 -83c-29.333 -29.333 -51.5 -64 -66.5 -104s-22.5 -80 -22.5 -120
c0 -69.333 23 -127.666 69 -174.999c44 -45.333 103.333 -68 178 -68s134 22.667 178 68c35.333 35.333 59 81.666 71 138.999h-198zM300.999 -206.001l76 156l64 -30l-92 -150z" />
    <glyph glyph-name="gcommaaccent" unicode="&#x123;" horiz-adv-x="526" 
d="M430 356l7.00098 58.999h72l-49 -405c-3.33301 -28.667 -6.5 -50.834 -9.5 -66.501s-9.16699 -34.667 -18.5 -57s-21.666 -41.166 -36.999 -56.499c-38.667 -40 -92.667 -60 -162 -60c-60.667 0 -107.334 16.333 -140.001 49c-31.333 32 -47 77 -47 135v6h71v-4
c0 -41.333 11 -72.333 33 -93c20.667 -19.333 49.334 -29 86.001 -29c45.333 0 80.333 12.333 105 37c11.333 11.333 20.5 25.5 27.5 42.5s11.333 30.667 13 41s3.5 24.833 5.5 43.5l6 60c-14 -22 -33.667 -39.333 -59 -52c-25.333 -12 -52 -18 -80 -18
c-58 0 -103.667 17.667 -137 53c-34.667 35.333 -52 82.333 -52 141c0 75.333 22.333 136 67 182c39.333 40.667 90.666 61 153.999 61c37.333 0 68 -6.66699 92 -20c21.333 -11.333 38.666 -27.666 51.999 -48.999zM294.001 360.999c-39.333 0 -72.667 -12.667 -100 -38
c-36 -34 -54 -79.333 -54 -136c0 -43.333 12.333 -77.333 37 -102c22 -22 50.333 -33 85 -33c41.333 0 75.333 12 102 36c17.333 15.333 30.5 36 39.5 62s13.5 51.333 13.5 76c0 40.667 -12 74 -36 100c-22 23.333 -51 35 -87 35zM394 645.999l-76 -156l-64 30l92 150z" />
    <glyph glyph-name="Hcircumflex" unicode="&#x124;" horiz-adv-x="662" 
d="M242 667l-33 -271h342l33 271h74l-82 -667h-74l40 326h-342l-40 -326h-74l82 667h74zM433 797l-97 -76l-51 41l154 119l126 -119l-53 -41z" />
    <glyph glyph-name="hcircumflex" unicode="&#x125;" horiz-adv-x="469" 
d="M68 0l90 729h72l-45 -362c9.33301 14 23.333 27 42 39c20.667 12.667 46 19 76 19c42 0 75.333 -12 100 -36c22 -22 33 -53 33 -93c0 -12.667 -2 -35.667 -6 -69l-28 -227h-72l25 207c4 34 6 57.667 6 71c0 27.333 -7 48 -21 62s-33.333 21 -58 21
c-31.333 0 -56 -9.66699 -74 -29c-20 -20.667 -33.667 -59 -41 -115l-27 -217h-72zM200 818l-102 -81l-46 36l153 121l123 -121l-46 -36z" />
    <glyph glyph-name="Hbar" unicode="&#x126;" horiz-adv-x="663" 
d="M242 667l-7 -53h342l7 53h74l-7 -53h60l-7 -62h-60l-68 -552h-74l40 326h-342l-40 -326h-74l68 552h-60l7 62h60l7 53h74zM570 552h-342l-19 -156h342z" />
    <glyph glyph-name="hbar" unicode="&#x127;" horiz-adv-x="469" 
d="M68 0l68 554h-98l7 60h99l14 115h72l-14 -115h199l-7 -60h-200l-23 -187c9.33301 14 23.333 27 42 39c20.667 12.667 46 19 76 19c42 0 75.333 -12 100 -36c22 -22 33 -53 33 -93c0 -12.667 -2 -35.667 -6 -69l-28 -227h-72l25 207c4 34 6 57.667 6 71
c0 27.333 -7 48 -21 62s-33.333 21 -58 21c-31.333 0 -56 -9.66699 -74 -29c-20 -20.667 -33.667 -59 -41 -115l-27 -217h-72z" />
    <glyph glyph-name="Imacron" unicode="&#x12a;" horiz-adv-x="246" 
d="M168 667h74l-82 -667h-74zM90 733l8 64h246l-8 -64h-246z" />
    <glyph glyph-name="imacron" unicode="&#x12b;" horiz-adv-x="208" 
d="M119 415h72l-51 -415h-72zM63 513l7 60h208l-7 -60h-208z" />
    <glyph glyph-name="Iogonek" unicode="&#x12e;" horiz-adv-x="246" 
d="M168 667h74.001l-82 -667c-18.667 -13.333 -34.334 -26.333 -47.001 -39c-19.333 -19.333 -29 -38.333 -29 -57c0 -12 4.66699 -21 14 -27c7.33301 -4.66699 16.333 -7 27 -7c16.667 0 33.667 4.33301 51 13l-16 -59c-18.667 -9.33301 -37.667 -14 -57 -14
c-26 0 -46.667 6.66699 -62 20c-16 14.667 -24 34 -24 58c0 21.333 9 43 27 65c15.333 18 33.333 33.667 54 47h-12z" />
    <glyph glyph-name="iogonek" unicode="&#x12f;" horiz-adv-x="208" 
d="M119 415l71.998 -0.00195312l-51 -415c-23.333 -14.667 -40.666 -27.667 -51.999 -39c-19.333 -19.333 -29 -38.333 -29 -57c0 -9.33301 2.66699 -16.666 8 -21.999c8 -8 20.667 -12 38 -12c16 0 33 4.33301 51 13l-15 -55c-18 -9.33301 -38 -14 -60 -14
c-25.333 0 -46.333 7.66699 -63 23c-14 14 -21 30.667 -21 50c0 26.667 10.667 51.334 32 74.001c14.667 15.333 32.334 28.333 53.001 39h-14zM122.998 565.998c0 14.667 4.66602 27.333 13.999 38c10 12.667 24.333 19 43 19c13.333 0 24 -4 32 -12
c8.66699 -8.66699 13 -19.667 13 -33c0 -16 -5.33301 -29.333 -16 -40c-10.667 -11.333 -24 -17 -40 -17c-13.333 0 -24.666 4.66699 -33.999 14c-8 8 -12 18.333 -12 31z" />
    <glyph glyph-name="Idotaccent" unicode="&#x130;" horiz-adv-x="246" 
d="M168 667h74l-82 -667h-74zM164 776c0 19.333 6.66602 34.999 19.999 46.999c11.333 10.667 25 16 41 16c14 0 26.333 -4.66699 37 -14c8.66699 -8 13 -19.667 13 -35c0 -17.333 -5.33301 -31.666 -16 -42.999c-11.333 -12 -25.666 -18 -42.999 -18
s-30.333 4.33301 -39 13s-13 20 -13 34z" />
    <glyph glyph-name="dotlessi" unicode="&#x131;" horiz-adv-x="208" 
d="M119 415h72l-51 -415h-72z" />
    <glyph glyph-name="Jcircumflex" unicode="&#x134;" horiz-adv-x="299" 
d="M221 667h74l-59 -482c-9.33301 -76.667 -27.666 -128.667 -54.999 -156s-66 -41 -116 -41c-24.667 0 -47 5 -67 15c-18 8.66699 -33.333 20 -46 34l48 58c6.66699 -8 16.667 -16.333 30 -25c14 -8 28.333 -12 43 -12c21.333 0 38.666 6.66699 51.999 20
c18 18 30.333 53.667 37 107zM277 797l-97 -76l-51 41l154 119l126 -119l-53 -41z" />
    <glyph glyph-name="jcircumflex" unicode="&#x135;" horiz-adv-x="208" 
d="M119 415h72l-80 -645h-72zM174 572l-83 -67l-39 35l131 106l105 -106l-47 -35z" />
    <glyph glyph-name="Kcommaaccent" unicode="&#x136;" horiz-adv-x="568" 
d="M242 667l-35 -286l319 286h100l-354 -312l278 -355h-98l-235 306l-22 -19l-35 -287h-74l82 667h74zM192 -206l76 156l64 -30l-92 -150z" />
    <glyph glyph-name="kcommaaccent" unicode="&#x137;" horiz-adv-x="422" 
d="M158 729h72l-58 -468l171 154h94l-202 -178l181 -237h-92l-143 189l-20 -18l-21 -171h-72zM120 -206l76 156l64 -30l-92 -150z" />
    <glyph glyph-name="Lacute" unicode="&#x139;" horiz-adv-x="358" 
d="M168 667h74l-73 -597h184l-9 -70h-258zM350 882l65 -45l-168 -117l-39 32z" />
    <glyph glyph-name="lacute" unicode="&#x13a;" horiz-adv-x="208" 
d="M158 729h72l-90 -729h-72zM253 926l70 -34l-151 -135l-42 24z" />
    <glyph glyph-name="Lcommaaccent" unicode="&#x13b;" horiz-adv-x="358" 
d="M168 667h74l-73 -597h184l-9 -70h-258zM121 -206l76 156l64 -30l-92 -150z" />
    <glyph glyph-name="lcommaaccent" unicode="&#x13c;" horiz-adv-x="208" 
d="M158 729h72l-90 -729h-72zM1 -206l76 156l64 -30l-92 -150z" />
    <glyph glyph-name="Lcaron" unicode="&#x13d;" horiz-adv-x="358" 
d="M168 667h74l-73 -597h184l-9 -70h-258zM280 522l76 158l64 -30l-94 -150z" />
    <glyph glyph-name="lcaron" unicode="&#x13e;" horiz-adv-x="280" 
d="M158 729h72l-90 -729h-72zM240 532l76 158l64 -30l-94 -150z" />
    <glyph glyph-name="Ldot" unicode="&#x13f;" horiz-adv-x="358" 
d="M168 667h74l-73 -597h184l-9 -70h-258zM286 326c0 19.333 6.66602 34.999 19.999 46.999c11.333 10.667 25 16 41 16c14 0 26.333 -4.66699 37 -14c8.66699 -8 13 -19.667 13 -35c0 -17.333 -5.33301 -31.666 -16 -42.999c-11.333 -12 -25.666 -18 -42.999 -18
s-30.333 4.33301 -39 13s-13 20 -13 34z" />
    <glyph glyph-name="ldot" unicode="&#x140;" horiz-adv-x="334" 
d="M158 729h72l-90 -729h-72zM258 357c0 17.333 5.66699 31.668 17 43.001s25.333 17 42 17c14 0 25.333 -4.33301 34 -13s13 -20.334 13 -35.001c0 -16.667 -5.66699 -30.667 -17 -42c-10.667 -10.667 -24 -16 -40 -16s-28.333 4.33301 -37 13c-8 10.667 -12 21.667 -12 33
z" />
    <glyph glyph-name="Lslash" unicode="&#x141;" horiz-adv-x="358" 
d="M168 667h74l-32 -261l108 64l-8 -64l-108 -64l-33 -272h184l-9 -70h-258l37 305l-92 -55l8 64l92 55z" />
    <glyph glyph-name="lslash" unicode="&#x142;" horiz-adv-x="208" 
d="M158 729h72l-29 -230l75 53l-8 -60l-74 -53l-54 -439h-72l48 393l-74 -53l7 60l75 53z" />
    <glyph glyph-name="Nacute" unicode="&#x143;" horiz-adv-x="766" 
d="M160 0h-74l85 695l453 -547l64 519h74l-86 -697l-453 547zM573 882l65 -45l-168 -117l-39 32z" />
    <glyph glyph-name="nacute" unicode="&#x144;" horiz-adv-x="469" 
d="M68 0l50.999 415h72l-6 -48c9.33301 14 23.333 27 42 39c20.667 12.667 46.334 19 77.001 19c42 0 75 -12 99 -36c22 -22 33 -53 33 -93c0 -12.667 -2 -35.667 -6 -69l-28 -227h-72l25 207c4 34 6 57.667 6 71c0 27.333 -7 48 -21 62s-33.333 21 -58 21
c-31.333 0 -56 -9.66699 -74 -29c-20 -20.667 -33.667 -59 -41 -115l-27 -217h-72zM393.999 666l70 -34l-151 -135l-42 24z" />
    <glyph glyph-name="Ncommaaccent" unicode="&#x145;" horiz-adv-x="766" 
d="M160 0h-74l85 695l453 -547l64 519h74l-86 -697l-453 547zM281 -206l76 156l64 -30l-92 -150z" />
    <glyph glyph-name="ncommaaccent" unicode="&#x146;" horiz-adv-x="469" 
d="M68 0l50.999 415h72l-6 -48c9.33301 14 23.333 27 42 39c20.667 12.667 46.334 19 77.001 19c42 0 75 -12 99 -36c22 -22 33 -53 33 -93c0 -12.667 -2 -35.667 -6 -69l-28 -227h-72l25 207c4 34 6 57.667 6 71c0 27.333 -7 48 -21 62s-33.333 21 -58 21
c-31.333 0 -56 -9.66699 -74 -29c-20 -20.667 -33.667 -59 -41 -115l-27 -217h-72zM120.999 -206l76 156l64 -30l-92 -150z" />
    <glyph glyph-name="Ncaron" unicode="&#x147;" horiz-adv-x="766" 
d="M160 0h-74l85 695l453 -547l64 519h74l-86 -697l-453 547zM478 805l97 76l51 -41l-154 -119l-126 119l53 41z" />
    <glyph glyph-name="ncaron" unicode="&#x148;" horiz-adv-x="469" 
d="M68 0l50.999 415h72l-6 -48c9.33301 14 23.333 27 42 39c20.667 12.667 46.334 19 77.001 19c42 0 75 -12 99 -36c22 -22 33 -53 33 -93c0 -12.667 -2 -35.667 -6 -69l-28 -227h-72l25 207c4 34 6 57.667 6 71c0 27.333 -7 48 -21 62s-33.333 21 -58 21
c-31.333 0 -56 -9.66699 -74 -29c-20 -20.667 -33.667 -59 -41 -115l-27 -217h-72zM305.999 573l102 81l46 -36l-153 -121l-123 121l46 36z" />
    <glyph glyph-name="Omacron" unicode="&#x14c;" horiz-adv-x="800" 
d="M399 -12c-92 0 -166.001 28.999 -222.001 86.999c-57.333 58.667 -86 132.334 -86 221.001c0 112.667 38 205 114 277c72.667 70 164 105 274 105c92.667 0 167.334 -28 224.001 -84c58.667 -57.333 88 -130 88 -218c0 -53.333 -9.5 -105 -28.5 -155
s-46.833 -92.667 -83.5 -128c-72.667 -70 -166 -105 -280 -105zM470.999 607.999c-83.333 0 -153.667 -26.334 -211 -79.001c-61.333 -57.333 -92 -130.333 -92 -219c0 -75.333 23 -136.666 69 -183.999c44 -45.333 100.667 -68 170 -68c89.333 0 161.333 26.667 216 80
c28.667 28 51 62.167 67 102.5s24 80.833 24 121.5c0 72 -23.333 131.333 -70 178c-45.333 45.333 -103 68 -173 68zM319.998 732.998l8 64h320l-8 -64h-320z" />
    <glyph glyph-name="omacron" unicode="&#x14d;" horiz-adv-x="528" 
d="M268 -12c-62.667 0 -111.999 18.999 -147.999 56.999c-35.333 38 -53 86.333 -53 145c0 68.667 25 126.334 75 173.001c45.333 41.333 100.666 62 165.999 62c63.333 0 114 -19 152 -57c34 -34 51 -79.333 51 -136c0 -74.667 -23.333 -134.667 -70 -180
c-43.333 -42.667 -101 -64 -173 -64zM307.001 360.999c-44 0 -81.667 -15.334 -113 -46.001c-35.333 -34 -53 -77.333 -53 -130c0 -37.333 12 -68.666 36 -93.999c24.667 -26 56.667 -39 96 -39c46 0 83.667 16 113 48c33.333 35.333 50 79 50 131
c0 37.333 -11.333 68 -34 92c-24 25.333 -55.667 38 -95 38zM168.001 512.998l7 60h302l-7 -60h-302z" />
    <glyph glyph-name="Obreve" unicode="&#x14e;" horiz-adv-x="800" 
d="M399 -12c-92 0 -166.001 28.999 -222.001 86.999c-57.333 58.667 -86 132.334 -86 221.001c0 112.667 38 205 114 277c72.667 70 164 105 274 105c92.667 0 167.334 -28 224.001 -84c58.667 -57.333 88 -130 88 -218c0 -53.333 -9.5 -105 -28.5 -155
s-46.833 -92.667 -83.5 -128c-72.667 -70 -166 -105 -280 -105zM470.999 607.999c-83.333 0 -153.667 -26.334 -211 -79.001c-61.333 -57.333 -92 -130.333 -92 -219c0 -75.333 23 -136.666 69 -183.999c44 -45.333 100.667 -68 170 -68c89.333 0 161.333 26.667 216 80
c28.667 28 51 62.167 67 102.5s24 80.833 24 121.5c0 72 -23.333 131.333 -70 178c-45.333 45.333 -103 68 -173 68zM579.998 840.998h68c-8.66699 -37.333 -27.334 -66.333 -56.001 -87c-28.667 -22 -65 -33 -109 -33c-45.333 0 -81 13 -107 39c-22 22 -34.667 49 -38 81
h64c4.66699 -17.333 13.667 -31 27 -41s32.333 -15 57 -15s44.334 4.66699 59.001 14c15.333 8.66699 27 22.667 35 42z" />
    <glyph glyph-name="obreve" unicode="&#x14f;" horiz-adv-x="528" 
d="M268 -12c-62.667 0 -111.999 18.999 -147.999 56.999c-35.333 38 -53 86.333 -53 145c0 68.667 25 126.334 75 173.001c45.333 41.333 100.666 62 165.999 62c63.333 0 114 -19 152 -57c34 -34 51 -79.333 51 -136c0 -74.667 -23.333 -134.667 -70 -180
c-43.333 -42.667 -101 -64 -173 -64zM307.001 360.999c-44 0 -81.667 -15.334 -113 -46.001c-35.333 -34 -53 -77.333 -53 -130c0 -37.333 12 -68.666 36 -93.999c24.667 -26 56.667 -39 96 -39c46 0 83.667 16 113 48c33.333 35.333 50 79 50 131
c0 37.333 -11.333 68 -34 92c-24 25.333 -55.667 38 -95 38zM181.001 616.998h59.0029c3.33301 -18.667 10.666 -33 21.999 -43c12.667 -11.333 30.667 -17 54 -17c25.333 0 45.666 6 60.999 18c14 10.667 24.333 24.667 31 42h63c-9.33301 -32 -24.333 -58.333 -45 -79
c-27.333 -27.333 -63.333 -41 -108 -41c-42.667 0 -75.334 10.667 -98.001 32c-24 22.667 -37 52 -39 88z" />
    <glyph glyph-name="Ohungarumlaut" unicode="&#x150;" horiz-adv-x="800" 
d="M399 -12c-92 0 -166.001 28.999 -222.001 86.999c-57.333 58.667 -86 132.334 -86 221.001c0 112.667 38 205 114 277c72.667 70 164 105 274 105c92.667 0 167.334 -28 224.001 -84c58.667 -57.333 88 -130 88 -218c0 -53.333 -9.5 -105 -28.5 -155
s-46.833 -92.667 -83.5 -128c-72.667 -70 -166 -105 -280 -105zM470.999 607.999c-83.333 0 -153.667 -26.334 -211 -79.001c-61.333 -57.333 -92 -130.333 -92 -219c0 -75.333 23 -136.666 69 -183.999c44 -45.333 100.667 -68 170 -68c89.333 0 161.333 26.667 216 80
c28.667 28 51 62.167 67 102.5s24 80.833 24 121.5c0 72 -23.333 131.333 -70 178c-45.333 45.333 -103 68 -173 68zM501.998 881.998l65 -40l-162 -122l-39 26zM651.998 881.998l65 -40l-162 -122l-39 26z" />
    <glyph glyph-name="ohungarumlaut" unicode="&#x151;" horiz-adv-x="528" 
d="M268 -12c-62.667 0 -111.999 18.999 -147.999 56.999c-35.333 38 -53 86.333 -53 145c0 68.667 25 126.334 75 173.001c45.333 41.333 100.666 62 165.999 62c63.333 0 114 -19 152 -57c34 -34 51 -79.333 51 -136c0 -74.667 -23.333 -134.667 -70 -180
c-43.333 -42.667 -101 -64 -173 -64zM307.001 360.999c-44 0 -81.667 -15.334 -113 -46.001c-35.333 -34 -53 -77.333 -53 -130c0 -37.333 12 -68.666 36 -93.999c24.667 -26 56.667 -39 96 -39c46 0 83.667 16 113 48c33.333 35.333 50 79 50 131
c0 37.333 -11.333 68 -34 92c-24 25.333 -55.667 38 -95 38zM332.001 665.998l68 -32l-154 -136l-38 23zM466.001 665.998l66 -32l-152 -136l-38 23z" />
    <glyph glyph-name="OE" unicode="&#x152;" horiz-adv-x="1059" 
d="M1091 667l-8.99902 -70h-267l-24 -198h260l-9 -70h-260l-31 -259h267l-9 -70h-341l15 113c-37.333 -43.333 -75.333 -74.333 -114 -93c-42.667 -21.333 -96.334 -32 -161.001 -32c-97.333 0 -174.333 29 -231 87c-57.333 58.667 -86 133.667 -86 225
c0 110.667 37.667 201.667 113 273c74 70 164.667 105 272 105c66 0 123.667 -17 173 -51c32 -20.667 60.333 -51.667 85 -93l16 133h341zM467.001 608c-81.333 0 -150.333 -26.334 -207 -79.001c-61.333 -57.333 -92 -130.333 -92 -219c0 -75.333 23 -136.666 69 -183.999
c44 -45.333 101.667 -68 173 -68c85.333 0 155.333 26.667 210 80c28.667 28 51 62.167 67 102.5s24 80.833 24 121.5c0 72 -23.333 131.333 -70 178c-45.333 45.333 -103.333 68 -174 68z" />
    <glyph glyph-name="oe" unicode="&#x153;" horiz-adv-x="854" 
d="M766 139l61.002 -32.999c-22.667 -38 -48.334 -66.667 -77.001 -86c-31.333 -21.333 -71.333 -32 -120 -32c-42.667 0 -78.667 9.33301 -108 28c-26.667 17.333 -47.667 41.666 -63 72.999c-23.333 -31.333 -47.666 -55 -72.999 -71c-32.667 -20 -72 -30 -118 -30
c-62.667 0 -112 19 -148 57c-35.333 38 -53 86.333 -53 145c0 70 24.333 127.667 73 173c43.333 41.333 99.666 62 168.999 62c39.333 0 74.666 -8.66699 105.999 -26c29.333 -16.667 51.333 -39 66 -67c16.667 28.667 39.667 51 69 67c31.333 17.333 67.333 26 108 26
c56 0 99.667 -16.333 131 -49c40.667 -42 56.334 -102.667 47.001 -182h-327c-0.666992 -48.667 11.666 -85.667 36.999 -111c20.667 -20.667 48 -31 82 -31s62 7.66699 84 23c20.667 14.667 38.667 36 54 64zM522.002 254.001h246.999
c-0.666992 32.667 -12.334 59.667 -35.001 81c-18.667 17.333 -44.667 26 -78 26c-39.333 0 -70.666 -11.667 -93.999 -35c-19.333 -19.333 -32.666 -43.333 -39.999 -72zM305.001 361.001c-44.667 0 -82 -14.999 -112 -44.999c-34 -34 -51 -77 -51 -129
c0 -38.667 12 -70.667 36 -96c24.667 -26 57 -39 97 -39c43.333 0 80 15.667 110 47c32.667 33.333 49 76.666 49 129.999c0 38.667 -11.333 70 -34 94c-24 25.333 -55.667 38 -95 38z" />
    <glyph glyph-name="Racute" unicode="&#x154;" horiz-adv-x="505" 
d="M168 667h106.999c76.667 0 132.334 -16.333 167.001 -49c32 -29.333 48 -69 48 -119c0 -61.333 -17.667 -108.666 -53 -141.999c-35.333 -34.667 -82 -54.334 -140 -59.001l175 -298h-90l-167 292h-19l-36 -292h-74zM232.999 597l-29.001 -239h47
c56.667 0 98 11.667 124 35s39 55 39 95c0 42 -15 72 -45 90c-21.333 12.667 -52.666 19 -93.999 19h-42zM419.998 882l65 -45l-168 -117l-39 32z" />
    <glyph glyph-name="racute" unicode="&#x155;" horiz-adv-x="296" 
d="M68 0l51.001 415h72l-6 -45c10 16.667 24 30 42 40s38 15 60 15c23.333 0 43.666 -5.66699 60.999 -17l-42 -65c-12.667 9.33301 -27 14 -43 14c-22 0 -40.333 -7.33301 -55 -22c-20 -19.333 -33.667 -58 -41 -116l-27 -219h-72zM334.001 666l70 -34l-151 -135l-42 24z
" />
    <glyph glyph-name="Rcommaaccent" unicode="&#x156;" horiz-adv-x="505" 
d="M168 667h106.999c76.667 0 132.334 -16.333 167.001 -49c32 -29.333 48 -69 48 -119c0 -61.333 -17.667 -108.666 -53 -141.999c-35.333 -34.667 -82 -54.334 -140 -59.001l175 -298h-90l-167 292h-19l-36 -292h-74zM232.999 597l-29.001 -239h47
c56.667 0 98 11.667 124 35s39 55 39 95c0 42 -15 72 -45 90c-21.333 12.667 -52.666 19 -93.999 19h-42zM160.998 -206l76 156l64 -30l-92 -150z" />
    <glyph glyph-name="rcommaaccent" unicode="&#x157;" horiz-adv-x="296" 
d="M68 0l51.001 415h72l-6 -45c10 16.667 24 30 42 40s38 15 60 15c23.333 0 43.666 -5.66699 60.999 -17l-42 -65c-12.667 9.33301 -27 14 -43 14c-22 0 -40.333 -7.33301 -55 -22c-20 -19.333 -33.667 -58 -41 -116l-27 -219h-72zM41.001 -206l76 156l64 -30l-92 -150z
" />
    <glyph glyph-name="Rcaron" unicode="&#x158;" horiz-adv-x="505" 
d="M168 667h106.999c76.667 0 132.334 -16.333 167.001 -49c32 -29.333 48 -69 48 -119c0 -61.333 -17.667 -108.666 -53 -141.999c-35.333 -34.667 -82 -54.334 -140 -59.001l175 -298h-90l-167 292h-19l-36 -292h-74zM232.999 597l-29.001 -239h47
c56.667 0 98 11.667 124 35s39 55 39 95c0 42 -15 72 -45 90c-21.333 12.667 -52.666 19 -93.999 19h-42zM324.998 805l97 76l51 -41l-154 -119l-126 119l53 41z" />
    <glyph glyph-name="rcaron" unicode="&#x159;" horiz-adv-x="296" 
d="M68 0l51.001 415h72l-6 -45c10 16.667 24 30 42 40s38 15 60 15c23.333 0 43.666 -5.66699 60.999 -17l-42 -65c-12.667 9.33301 -27 14 -43 14c-22 0 -40.333 -7.33301 -55 -22c-20 -19.333 -33.667 -58 -41 -116l-27 -219h-72zM266.001 573l102 81l46 -36l-153 -121
l-123 121l46 36z" />
    <glyph glyph-name="Sacute" unicode="&#x15a;" horiz-adv-x="518" 
d="M513 574l-63.001 -39c-7.33301 20.667 -19.666 38 -36.999 52c-18.667 14 -43.667 21 -75 21c-34.667 0 -62.667 -9.33301 -84 -28c-23.333 -21.333 -35 -47.666 -35 -78.999c0 -24 9.33301 -44.333 28 -61c11.333 -10 30 -21.667 56 -35l60 -28
c35.333 -16 63.666 -35 84.999 -57c30 -30.667 45 -69.667 45 -117c0 -62 -18.667 -112.333 -56 -151c-41.333 -42.667 -99 -64 -173 -64c-58.667 0 -104.667 16.667 -138 50c-32.667 33.333 -51.334 74 -56.001 122l74 20c2 -35.333 14 -64.333 36 -87
c22.667 -23.333 54.334 -35 95.001 -35c45.333 0 80 12.333 104 37s36 57 36 97c0 35.333 -12 63.666 -36 84.999c-13.333 12.667 -35 26 -65 40l-53 25c-35.333 15.333 -61.666 32.333 -78.999 51c-25.333 26.667 -38 61 -38 103c0 50 17.333 92 52 126
c38 37.333 87 56 147 56c45.333 0 82 -9.33301 110 -28c27.333 -18 47.333 -43.333 60 -76zM448.999 882l65 -45l-168 -117l-39 32z" />
    <glyph glyph-name="sacute" unicode="&#x15b;" horiz-adv-x="350" 
d="M339 350l-62.999 -30.9971c-3.33301 10.667 -9 20 -17 28c-9.33301 9.33301 -21.333 14 -36 14c-16 0 -29.333 -4.33301 -40 -13c-10.667 -10 -16 -22.333 -16 -37c0 -11.333 4 -21 12 -29c6 -6 19.667 -14 41 -24l38 -19c21.333 -10.667 39 -23 53 -37
c18 -20 27 -44.667 27 -74c0 -38.667 -11.667 -70.667 -35 -96c-27.333 -29.333 -67 -44 -119 -44c-36 0 -65 9 -87 27c-24 20 -40.333 46.333 -49 79l63 26c5.33301 -20.667 13.666 -37 24.999 -49c12.667 -12.667 29.334 -19 50.001 -19c24 0 42.667 6 56 18
c14 13.333 21 31 21 53c0 17.333 -7.33301 31.666 -22 42.999c-6.66699 5.33301 -21 13.666 -43 24.999l-23 11c-24.667 12 -43 24.667 -55 38c-15.333 17.333 -23 39 -23 65c0 33.333 11.667 61.666 35 84.999s54.666 35 93.999 35c29.333 0 54.333 -8.33301 75 -25
c17.333 -14 30 -30.667 38 -50zM320.001 666.003l70 -34l-151 -135l-42 24z" />
    <glyph glyph-name="Scircumflex" unicode="&#x15c;" horiz-adv-x="518" 
d="M513 574l-63.001 -39c-7.33301 20.667 -19.666 38 -36.999 52c-18.667 14 -43.667 21 -75 21c-34.667 0 -62.667 -9.33301 -84 -28c-23.333 -21.333 -35 -47.666 -35 -78.999c0 -24 9.33301 -44.333 28 -61c11.333 -10 30 -21.667 56 -35l60 -28
c35.333 -16 63.666 -35 84.999 -57c30 -30.667 45 -69.667 45 -117c0 -62 -18.667 -112.333 -56 -151c-41.333 -42.667 -99 -64 -173 -64c-58.667 0 -104.667 16.667 -138 50c-32.667 33.333 -51.334 74 -56.001 122l74 20c2 -35.333 14 -64.333 36 -87
c22.667 -23.333 54.334 -35 95.001 -35c45.333 0 80 12.333 104 37s36 57 36 97c0 35.333 -12 63.666 -36 84.999c-13.333 12.667 -35 26 -65 40l-53 25c-35.333 15.333 -61.666 32.333 -78.999 51c-25.333 26.667 -38 61 -38 103c0 50 17.333 92 52 126
c38 37.333 87 56 147 56c45.333 0 82 -9.33301 110 -28c27.333 -18 47.333 -43.333 60 -76zM361.999 797l-97 -76l-51 41l154 119l126 -119l-53 -41z" />
    <glyph glyph-name="scircumflex" unicode="&#x15d;" horiz-adv-x="350" 
d="M339 350l-62.999 -30.9971c-3.33301 10.667 -9 20 -17 28c-9.33301 9.33301 -21.333 14 -36 14c-16 0 -29.333 -4.33301 -40 -13c-10.667 -10 -16 -22.333 -16 -37c0 -11.333 4 -21 12 -29c6 -6 19.667 -14 41 -24l38 -19c21.333 -10.667 39 -23 53 -37
c18 -20 27 -44.667 27 -74c0 -38.667 -11.667 -70.667 -35 -96c-27.333 -29.333 -67 -44 -119 -44c-36 0 -65 9 -87 27c-24 20 -40.333 46.333 -49 79l63 26c5.33301 -20.667 13.666 -37 24.999 -49c12.667 -12.667 29.334 -19 50.001 -19c24 0 42.667 6 56 18
c14 13.333 21 31 21 53c0 17.333 -7.33301 31.666 -22 42.999c-6.66699 5.33301 -21 13.666 -43 24.999l-23 11c-24.667 12 -43 24.667 -55 38c-15.333 17.333 -23 39 -23 65c0 33.333 11.667 61.666 35 84.999s54.666 35 93.999 35c29.333 0 54.333 -8.33301 75 -25
c17.333 -14 30 -30.667 38 -50zM249.001 578.003l-102 -81l-46 36l153 121l123 -121l-46 -36z" />
    <glyph glyph-name="Scedilla" unicode="&#x15e;" horiz-adv-x="518" 
d="M513 574l-63.001 -39c-7.33301 20.667 -19.666 38 -36.999 52c-18.667 14 -43.667 21 -75 21c-34.667 0 -62.667 -9.33301 -84 -28c-23.333 -21.333 -35 -47.666 -35 -78.999c0 -24 9.33301 -44.333 28 -61c11.333 -10 30 -21.667 56 -35l60 -28
c35.333 -16 63.666 -35 84.999 -57c30 -30.667 45 -69.667 45 -117c0 -62 -18.667 -112.333 -56 -151c-41.333 -42.667 -99 -64 -173 -64c-58.667 0 -104.667 16.667 -138 50c-32.667 33.333 -51.334 74 -56.001 122l74 20c2 -35.333 14 -64.333 36 -87
c22.667 -23.333 54.334 -35 95.001 -35c45.333 0 80 12.333 104 37s36 57 36 97c0 35.333 -12 63.666 -36 84.999c-13.333 12.667 -35 26 -65 40l-53 25c-35.333 15.333 -61.666 32.333 -78.999 51c-25.333 26.667 -38 61 -38 103c0 50 17.333 92 52 126
c38 37.333 87 56 147 56c45.333 0 82 -9.33301 110 -28c27.333 -18 47.333 -43.333 60 -76zM247.999 -52l66 -30l-120 -128l-47 26z" />
    <glyph glyph-name="scedilla" unicode="&#x15f;" horiz-adv-x="350" 
d="M339 350l-62.999 -30.9971c-3.33301 10.667 -9 20 -17 28c-9.33301 9.33301 -21.333 14 -36 14c-16 0 -29.333 -4.33301 -40 -13c-10.667 -10 -16 -22.333 -16 -37c0 -11.333 4 -21 12 -29c6 -6 19.667 -14 41 -24l38 -19c21.333 -10.667 39 -23 53 -37
c18 -20 27 -44.667 27 -74c0 -38.667 -11.667 -70.667 -35 -96c-27.333 -29.333 -67 -44 -119 -44c-36 0 -65 9 -87 27c-24 20 -40.333 46.333 -49 79l63 26c5.33301 -20.667 13.666 -37 24.999 -49c12.667 -12.667 29.334 -19 50.001 -19c24 0 42.667 6 56 18
c14 13.333 21 31 21 53c0 17.333 -7.33301 31.666 -22 42.999c-6.66699 5.33301 -21 13.666 -43 24.999l-23 11c-24.667 12 -43 24.667 -55 38c-15.333 17.333 -23 39 -23 65c0 33.333 11.667 61.666 35 84.999s54.666 35 93.999 35c29.333 0 54.333 -8.33301 75 -25
c17.333 -14 30 -30.667 38 -50zM170.001 -51.9971l62 -27l-116 -128l-46 24z" />
    <glyph glyph-name="Scaron" unicode="&#x160;" horiz-adv-x="518" 
d="M513 574l-63.001 -39c-7.33301 20.667 -19.666 38 -36.999 52c-18.667 14 -43.667 21 -75 21c-34.667 0 -62.667 -9.33301 -84 -28c-23.333 -21.333 -35 -47.666 -35 -78.999c0 -24 9.33301 -44.333 28 -61c11.333 -10 30 -21.667 56 -35l60 -28
c35.333 -16 63.666 -35 84.999 -57c30 -30.667 45 -69.667 45 -117c0 -62 -18.667 -112.333 -56 -151c-41.333 -42.667 -99 -64 -173 -64c-58.667 0 -104.667 16.667 -138 50c-32.667 33.333 -51.334 74 -56.001 122l74 20c2 -35.333 14 -64.333 36 -87
c22.667 -23.333 54.334 -35 95.001 -35c45.333 0 80 12.333 104 37s36 57 36 97c0 35.333 -12 63.666 -36 84.999c-13.333 12.667 -35 26 -65 40l-53 25c-35.333 15.333 -61.666 32.333 -78.999 51c-25.333 26.667 -38 61 -38 103c0 50 17.333 92 52 126
c38 37.333 87 56 147 56c45.333 0 82 -9.33301 110 -28c27.333 -18 47.333 -43.333 60 -76zM354.999 805l97 76l51 -41l-154 -119l-126 119l53 41z" />
    <glyph glyph-name="scaron" unicode="&#x161;" horiz-adv-x="350" 
d="M339 350l-62.999 -30.9971c-3.33301 10.667 -9 20 -17 28c-9.33301 9.33301 -21.333 14 -36 14c-16 0 -29.333 -4.33301 -40 -13c-10.667 -10 -16 -22.333 -16 -37c0 -11.333 4 -21 12 -29c6 -6 19.667 -14 41 -24l38 -19c21.333 -10.667 39 -23 53 -37
c18 -20 27 -44.667 27 -74c0 -38.667 -11.667 -70.667 -35 -96c-27.333 -29.333 -67 -44 -119 -44c-36 0 -65 9 -87 27c-24 20 -40.333 46.333 -49 79l63 26c5.33301 -20.667 13.666 -37 24.999 -49c12.667 -12.667 29.334 -19 50.001 -19c24 0 42.667 6 56 18
c14 13.333 21 31 21 53c0 17.333 -7.33301 31.666 -22 42.999c-6.66699 5.33301 -21 13.666 -43 24.999l-23 11c-24.667 12 -43 24.667 -55 38c-15.333 17.333 -23 39 -23 65c0 33.333 11.667 61.666 35 84.999s54.666 35 93.999 35c29.333 0 54.333 -8.33301 75 -25
c17.333 -14 30 -30.667 38 -50zM240.001 573.003l102 81l46 -36l-153 -121l-123 121l46 36z" />
    <glyph glyph-name="Tcedilla" unicode="&#x162;" horiz-adv-x="426" 
d="M485 597h-162l-73 -597h-74l73 597h-162l9 70h398zM198 -52l66 -30l-120 -128l-47 26z" />
    <glyph glyph-name="tcedilla" unicode="&#x163;" horiz-adv-x="214" 
d="M257 349h-72l-43 -349h-72l43 349h-44l8 66h44l18 150h72l-18 -150h72zM90 -52l62 -27l-116 -128l-46 24z" />
    <glyph glyph-name="Tcaron" unicode="&#x164;" horiz-adv-x="426" 
d="M485 597h-162l-73 -597h-74l73 597h-162l9 70h398zM308 805l97 76l51 -41l-154 -119l-126 119l53 41z" />
    <glyph glyph-name="tcaron" unicode="&#x165;" horiz-adv-x="280" 
d="M257 349h-72l-43 -349h-72l43 349h-44l8 66h44l18 150h72l-18 -150h72zM240 532l76 158l64 -30l-94 -150z" />
    <glyph glyph-name="Utilde" unicode="&#x168;" horiz-adv-x="646" 
d="M242 667l-48.002 -392c-4.66699 -35.333 -7 -62 -7 -80c0 -41.333 14.333 -75 43 -101c26 -24 63.333 -36 112 -36c56 0 98 15.667 126 47c24 27.333 40.667 78.333 50 153l50 409h74l-53 -429c-5.33301 -44 -13.166 -80.5 -23.499 -109.5s-28.5 -55.833 -54.5 -80.5
c-42 -40 -101 -60 -177 -60c-69.333 0 -123.666 18.667 -162.999 56c-38.667 37.333 -58 83.333 -58 138c0 25.333 2.33301 59 7 101l48 384h74zM537.998 842l39.002 -35.001c-7.33301 -15.333 -19 -30 -35 -44c-22.667 -18.667 -45.334 -28 -68.001 -28
c-17.333 0 -35.333 5 -54 15l-21 12c-17.333 10 -32 15 -44 15c-12.667 0 -23.334 -4.66699 -32.001 -14c-8 -8 -15 -18 -21 -30l-40 36c13.333 21.333 26.666 37.333 39.999 48c18.667 16 40 24 64 24c18 0 37 -5.66699 57 -17l25 -14
c12.667 -7.33301 24.334 -11 35.001 -11c12.667 0 24 4.66699 34 14c8.66699 8.66699 15.667 18.334 21 29.001z" />
    <glyph glyph-name="utilde" unicode="&#x169;" horiz-adv-x="465" 
d="M190 415l-27.0039 -218.999c-2.66699 -25.333 -4 -43.333 -4 -54c0 -31.333 8.33301 -54.333 25 -69c16 -14 36.667 -21 62 -21c26.667 0 49 8.33301 67 25c7.33301 7.33301 13.5 17.166 18.5 29.499s8.33301 23.5 10 33.5s3.83398 25 6.50098 45l28 230h72l-29 -238
c-3.33301 -24 -6.16602 -42.5 -8.49902 -55.5s-7.16602 -28.333 -14.499 -46s-16.666 -32.5 -27.999 -44.5c-28.667 -28.667 -68.667 -43 -120 -43c-52 0 -92.333 12.667 -121 38c-27.333 24 -41 59 -41 105c0 11.333 2 35 6 71l26 213h72zM180.996 497.001l-38 34.001
c10.667 16 24 31 40 45c19.333 16 40 24 62 24c18 0 39.667 -6.66699 65 -20l17 -9c14.667 -7.33301 27 -11 37 -11c13.333 0 25 5 35 15c6 7.33301 12.667 16.666 20 27.999l37 -34c-12 -21.333 -24 -37 -36 -47c-16.667 -14.667 -37 -22 -61 -22
c-16.667 0 -35 4.66699 -55 14l-22 11c-21.333 10 -36 15 -44 15c-12 0 -23.333 -5.33301 -34 -16c-12 -10.667 -19.667 -19.667 -23 -27z" />
    <glyph glyph-name="Umacron" unicode="&#x16a;" horiz-adv-x="646" 
d="M242 667l-48.002 -392c-4.66699 -35.333 -7 -62 -7 -80c0 -41.333 14.333 -75 43 -101c26 -24 63.333 -36 112 -36c56 0 98 15.667 126 47c24 27.333 40.667 78.333 50 153l50 409h74l-53 -429c-5.33301 -44 -13.166 -80.5 -23.499 -109.5s-28.5 -55.833 -54.5 -80.5
c-42 -40 -101 -60 -177 -60c-69.333 0 -123.666 18.667 -162.999 56c-38.667 37.333 -58 83.333 -58 138c0 25.333 2.33301 59 7 101l48 384h74zM252.998 733l8 64h320l-8 -64h-320z" />
    <glyph glyph-name="umacron" unicode="&#x16b;" horiz-adv-x="465" 
d="M190 415l-27.0039 -218.999c-2.66699 -25.333 -4 -43.333 -4 -54c0 -31.333 8.33301 -54.333 25 -69c16 -14 36.667 -21 62 -21c26.667 0 49 8.33301 67 25c7.33301 7.33301 13.5 17.166 18.5 29.499s8.33301 23.5 10 33.5s3.83398 25 6.50098 45l28 230h72l-29 -238
c-3.33301 -24 -6.16602 -42.5 -8.49902 -55.5s-7.16602 -28.333 -14.499 -46s-16.666 -32.5 -27.999 -44.5c-28.667 -28.667 -68.667 -43 -120 -43c-52 0 -92.333 12.667 -121 38c-27.333 24 -41 59 -41 105c0 11.333 2 35 6 71l26 213h72zM144.996 513.001l7 60h302l-7 -60
h-302z" />
    <glyph glyph-name="Ubreve" unicode="&#x16c;" horiz-adv-x="646" 
d="M242 667l-48.002 -392c-4.66699 -35.333 -7 -62 -7 -80c0 -41.333 14.333 -75 43 -101c26 -24 63.333 -36 112 -36c56 0 98 15.667 126 47c24 27.333 40.667 78.333 50 153l50 409h74l-53 -429c-5.33301 -44 -13.166 -80.5 -23.499 -109.5s-28.5 -55.833 -54.5 -80.5
c-42 -40 -101 -60 -177 -60c-69.333 0 -123.666 18.667 -162.999 56c-38.667 37.333 -58 83.333 -58 138c0 25.333 2.33301 59 7 101l48 384h74zM512.998 841h68c-8.66699 -37.333 -27.334 -66.333 -56.001 -87c-28.667 -22 -65 -33 -109 -33c-45.333 0 -81 13 -107 39
c-22 22 -34.667 49 -38 81h64c4.66699 -17.333 13.667 -31 27 -41s32.333 -15 57 -15s44.334 4.66699 59.001 14c15.333 8.66699 27 22.667 35 42z" />
    <glyph glyph-name="ubreve" unicode="&#x16d;" horiz-adv-x="465" 
d="M190 415l-27.0039 -218.999c-2.66699 -25.333 -4 -43.333 -4 -54c0 -31.333 8.33301 -54.333 25 -69c16 -14 36.667 -21 62 -21c26.667 0 49 8.33301 67 25c7.33301 7.33301 13.5 17.166 18.5 29.499s8.33301 23.5 10 33.5s3.83398 25 6.50098 45l28 230h72l-29 -238
c-3.33301 -24 -6.16602 -42.5 -8.49902 -55.5s-7.16602 -28.333 -14.499 -46s-16.666 -32.5 -27.999 -44.5c-28.667 -28.667 -68.667 -43 -120 -43c-52 0 -92.333 12.667 -121 38c-27.333 24 -41 59 -41 105c0 11.333 2 35 6 71l26 213h72zM155.996 617.001h59.0029
c3.33301 -18.667 10.666 -33 21.999 -43c12.667 -11.333 30.667 -17 54 -17c25.333 0 45.666 6 60.999 18c14 10.667 24.333 24.667 31 42h63c-9.33301 -32 -24.333 -58.333 -45 -79c-27.333 -27.333 -63.333 -41 -108 -41c-42.667 0 -75.334 10.667 -98.001 32
c-24 22.667 -37 52 -39 88z" />
    <glyph glyph-name="Uring" unicode="&#x16e;" horiz-adv-x="646" 
d="M242 667l-48.002 -392c-4.66699 -35.333 -7 -62 -7 -80c0 -41.333 14.333 -75 43 -101c26 -24 63.333 -36 112 -36c56 0 98 15.667 126 47c24 27.333 40.667 78.333 50 153l50 409h74l-53 -429c-5.33301 -44 -13.166 -80.5 -23.499 -109.5s-28.5 -55.833 -54.5 -80.5
c-42 -40 -101 -60 -177 -60c-69.333 0 -123.666 18.667 -162.999 56c-38.667 37.333 -58 83.333 -58 138c0 25.333 2.33301 59 7 101l48 384h74zM333.998 809c0 28 9.66797 51.667 29.001 71c17.333 17.333 39.666 26 66.999 26c24.667 0 45 -8 61 -24
c14 -16 21 -35.333 21 -58c0 -27.333 -9.33301 -50.333 -28 -69c-18 -16.667 -40.667 -25 -68 -25c-24 0 -43.333 7 -58 21c-16 16 -24 35.333 -24 58zM381.999 814c0 -10.667 3.33398 -19.333 10.001 -26c7.33301 -7.33301 16.666 -11 27.999 -11c12 0 22.667 4 32 12
s14 19 14 33c0 12.667 -4 22.334 -12 29.001c-6.66699 6.66699 -16 10 -28 10c-12.667 0 -23 -4 -31 -12c-8.66699 -8.66699 -13 -20.334 -13 -35.001z" />
    <glyph glyph-name="uring" unicode="&#x16f;" horiz-adv-x="465" 
d="M190 415l-27.0039 -218.999c-2.66699 -25.333 -4 -43.333 -4 -54c0 -31.333 8.33301 -54.333 25 -69c16 -14 36.667 -21 62 -21c26.667 0 49 8.33301 67 25c7.33301 7.33301 13.5 17.166 18.5 29.499s8.33301 23.5 10 33.5s3.83398 25 6.50098 45l28 230h72l-29 -238
c-3.33301 -24 -6.16602 -42.5 -8.49902 -55.5s-7.16602 -28.333 -14.499 -46s-16.666 -32.5 -27.999 -44.5c-28.667 -28.667 -68.667 -43 -120 -43c-52 0 -92.333 12.667 -121 38c-27.333 24 -41 59 -41 105c0 11.333 2 35 6 71l26 213h72zM209.996 575.001
c0 30 8.99902 53.334 26.999 70.001c16 16 37 24 63 24s46.333 -7.33301 61 -22s22 -34.667 22 -60c0 -26.667 -8.33301 -48.334 -25 -65.001c-17.333 -16.667 -39.666 -25 -66.999 -25c-25.333 0 -45 7 -59 21c-14.667 14.667 -22 33.667 -22 57zM254.995 579.002
c0 -10.667 3.33398 -19.333 10.001 -26c6.66699 -8 16.667 -12 30 -12c12.667 0 23 4 31 12c8.66699 8.66699 13 20 13 34c0 12.667 -3.66699 22 -11 28c-6.66699 6.66699 -16.334 10 -29.001 10s-23 -4 -31 -12c-8.66699 -8.66699 -13 -20 -13 -34z" />
    <glyph glyph-name="Uhungarumlaut" unicode="&#x170;" horiz-adv-x="646" 
d="M242 667l-48.002 -392c-4.66699 -35.333 -7 -62 -7 -80c0 -41.333 14.333 -75 43 -101c26 -24 63.333 -36 112 -36c56 0 98 15.667 126 47c24 27.333 40.667 78.333 50 153l50 409h74l-53 -429c-5.33301 -44 -13.166 -80.5 -23.499 -109.5s-28.5 -55.833 -54.5 -80.5
c-42 -40 -101 -60 -177 -60c-69.333 0 -123.666 18.667 -162.999 56c-38.667 37.333 -58 83.333 -58 138c0 25.333 2.33301 59 7 101l48 384h74zM434.998 882l65 -40l-162 -122l-39 26zM584.998 882l65 -40l-162 -122l-39 26z" />
    <glyph glyph-name="uhungarumlaut" unicode="&#x171;" horiz-adv-x="465" 
d="M190 415l-27.0039 -218.999c-2.66699 -25.333 -4 -43.333 -4 -54c0 -31.333 8.33301 -54.333 25 -69c16 -14 36.667 -21 62 -21c26.667 0 49 8.33301 67 25c7.33301 7.33301 13.5 17.166 18.5 29.499s8.33301 23.5 10 33.5s3.83398 25 6.50098 45l28 230h72l-29 -238
c-3.33301 -24 -6.16602 -42.5 -8.49902 -55.5s-7.16602 -28.333 -14.499 -46s-16.666 -32.5 -27.999 -44.5c-28.667 -28.667 -68.667 -43 -120 -43c-52 0 -92.333 12.667 -121 38c-27.333 24 -41 59 -41 105c0 11.333 2 35 6 71l26 213h72zM306.996 666.001l68 -32
l-154 -136l-38 23zM440.996 666.001l66 -32l-152 -136l-38 23z" />
    <glyph glyph-name="Uogonek" unicode="&#x172;" horiz-adv-x="646" 
d="M242 667l-47.9971 -392.002c-4.66699 -35.333 -7 -62 -7 -80c0 -41.333 14.333 -75 43 -101c26 -24 63.333 -36 112 -36c56 0 98 15.667 126 47c24 26 40.333 74.333 49 145l51 417h74l-53 -429c-2.66699 -21.333 -4.83398 -37 -6.50098 -47
s-4.83398 -24.167 -9.50098 -42.5s-11.667 -35 -21 -50s-21 -29.833 -35 -44.5c-16.667 -18 -43.667 -37.333 -81 -58c-32 -17.333 -53.667 -31.666 -65 -42.999c-15.333 -15.333 -23 -31.666 -23 -48.999c0 -12 4.66699 -21 14 -27c6.66699 -4.66699 16 -7 28 -7
c17.333 0 34 4.33301 50 13l-16 -59c-18.667 -9.33301 -37.667 -14 -57 -14c-26 0 -46.667 6.66699 -62 20c-16 12.667 -24 32 -24 58c0 20.667 7 40 21 58c12.667 17.333 28.667 31.666 48 42.999c-4.66699 -0.666992 -11.334 -1 -20.001 -1
c-64.667 0 -117.667 18.667 -159 56c-38.667 34.667 -58 81.334 -58 140.001c0 24 2.33301 57 7 99l48 384h74z" />
    <glyph glyph-name="uogonek" unicode="&#x173;" horiz-adv-x="465" 
d="M190 415l-27.001 -219.001c-2.66699 -25.333 -4 -43.333 -4 -54c0 -31.333 8.33301 -54.333 25 -69c16 -14 36.667 -21 62 -21c26.667 0 49 8.33301 67 25c7.33301 7.33301 13.5 17.166 18.5 29.499s8.33301 23.5 10 33.5s3.83398 25 6.50098 45l28 230h72l-29 -238
c-4.66699 -39.333 -10.5 -69.5 -17.5 -90.5s-20.167 -41.5 -39.5 -61.5c-4.66699 -4.66699 -17.667 -16 -39 -34c-16 -13.333 -27.333 -23.333 -34 -30c-19.333 -20 -29 -39 -29 -57c0 -9.33301 2.66699 -16.666 8 -21.999c8 -8 20.667 -12 38 -12c16 0 33 4.33301 51 13
l-15 -55c-18 -9.33301 -38 -14 -60 -14c-25.333 0 -46.333 7.66699 -63 23c-14 14 -21 30.667 -21 50c0 20 6.66699 39.667 20 59c10.667 14 24.667 28 42 42c-58.667 -1.33301 -103 11.334 -133 38.001c-27.333 24 -41 59 -41 105c0 11.333 2 35 6 71l26 213h72z" />
    <glyph glyph-name="Ydieresis" unicode="&#x178;" horiz-adv-x="530" 
d="M227 0l35 287l-172 380h84l133 -298l209 298h88l-268 -380l-35 -287h-74zM405 778c0 14.667 4.99902 27.333 14.999 38c12 12.667 26 19 42 19c12 0 22.667 -4 32 -12c8.66699 -8.66699 13 -19 13 -31c0 -16 -5.33301 -30 -16 -42
c-11.333 -11.333 -24.666 -17 -39.999 -17c-14 0 -25.333 4.33301 -34 13c-8 8 -12 18.667 -12 32zM214.999 777.999c0 14.667 4.99902 27.333 14.999 38c12 12.667 26 19 42 19c12 0 22.667 -4 32 -12c8.66699 -8.66699 13 -19 13 -31c0 -16 -5.33301 -30 -16 -42
c-11.333 -11.333 -24.666 -17 -39.999 -17c-14 0 -25.333 4.33301 -34 13c-8 8 -12 18.667 -12 32z" />
    <glyph glyph-name="Zacute" unicode="&#x179;" horiz-adv-x="536" 
d="M594 667l-437 -597h354l-9 -70h-478l437 597h-317l9 70h441zM458 882l65 -45l-168 -117l-39 32z" />
    <glyph glyph-name="zacute" unicode="&#x17a;" horiz-adv-x="460" 
d="M503 415l-343 -349h288l-8 -66h-432l343 349h-242l8 66h386zM384 666l70 -34l-151 -135l-42 24z" />
    <glyph glyph-name="Zdotaccent" unicode="&#x17b;" horiz-adv-x="536" 
d="M594 667l-437 -597h354l-9 -70h-478l437 597h-317l9 70h441zM320 776c0 19.333 6.66602 34.999 19.999 46.999c11.333 10.667 25 16 41 16c14 0 26.333 -4.66699 37 -14c8.66699 -8 13 -19.667 13 -35c0 -17.333 -5.33301 -31.666 -16 -42.999
c-11.333 -12 -25.666 -18 -42.999 -18s-30.333 4.33301 -39 13s-13 20 -13 34z" />
    <glyph glyph-name="zdotaccent" unicode="&#x17c;" horiz-adv-x="460" 
d="M503 415l-343 -349h288l-8 -66h-432l343 349h-242l8 66h386zM265 546c0 17.333 5.66699 31.668 17 43.001s25.333 17 42 17c14 0 25.333 -4.33301 34 -13s13 -20.334 13 -35.001c0 -16.667 -5.66699 -30.667 -17 -42c-10.667 -10.667 -24 -16 -40 -16
s-28.333 4.33301 -37 13c-8 10.667 -12 21.667 -12 33z" />
    <glyph glyph-name="Zcaron" unicode="&#x17d;" horiz-adv-x="536" 
d="M594 667l-437 -597h354l-9 -70h-478l437 597h-317l9 70h441zM375 805l97 76l51 -41l-154 -119l-126 119l53 41z" />
    <glyph glyph-name="zcaron" unicode="&#x17e;" horiz-adv-x="460" 
d="M503 415l-343 -349h288l-8 -66h-432l343 349h-242l8 66h386zM322 573l102 81l46 -36l-153 -121l-123 121l46 36z" />
    <glyph glyph-name="uni018F" unicode="&#x18f;" horiz-adv-x="759" 
d="M192 483l-62 35.002c36.667 50 77.667 88 123 114c54 30.667 114 46 180 46c95.333 0 172.333 -28.333 231 -85c57.333 -56 86 -130.667 86 -224c0 -116 -35 -210.333 -105 -283c-63.333 -65.333 -149.666 -98 -258.999 -98c-89.333 0 -159.333 25.333 -210 76
c-58 58 -87 133 -87 225c0 15.333 1 30.666 3 45.999h580c6.66699 40.667 4 79.167 -8 115.5s-31 66.833 -57 91.5c-46.667 44 -105.667 66 -177 66c-55.333 0 -104 -13 -146 -39c-32.667 -20.667 -63.334 -49.334 -92.001 -86.001zM657 265.002l-496.998 -0.000976562
c1.33301 -30 8.16602 -58.667 20.499 -86s27.833 -49.666 46.5 -66.999c39.333 -36 93.666 -54 162.999 -54c79.333 0 143 23 191 69c38.667 37.333 64 83.333 76 138z" />
    <glyph glyph-name="florin" unicode="&#x192;" horiz-adv-x="568" 
d="M465 355l-108 -0.000976562l-85 -329c-18.667 -72 -43 -121.667 -73 -149c-34.667 -31.333 -82 -47 -142 -47c-12 0 -26 1.33301 -42 4l19 64c9.33301 -1.33301 17.333 -2 24 -2c40.667 0 71.334 9.66699 92.001 29c21.333 20.667 40.333 63.334 57 128.001l77 302h-72
l13 60h74l46 179c13.333 52 32.333 89.667 57 113c23.333 22 55 33 95 33c22 0 43 -3.33301 63 -10l-18 -67c-16 7.33301 -31 11 -45 11c-18.667 0 -33.667 -5.33301 -45 -16c-14.667 -13.333 -27.334 -41.333 -38.001 -84l-42 -159h106z" />
    <glyph glyph-name="uni01CF" unicode="&#x1cf;" horiz-adv-x="246" 
d="M168 667h74l-82 -667h-74zM218 805l97 76l51 -41l-154 -119l-126 119l53 41z" />
    <glyph glyph-name="uni01D0" unicode="&#x1d0;" horiz-adv-x="208" 
d="M119 415h72l-51 -415h-72zM172 579l83 67l42 -35l-131 -106l-105 106l44 35z" />
    <glyph glyph-name="uni01DD" unicode="&#x1dd;" horiz-adv-x="483" 
d="M138 274l-56.001 33c20 35.333 44.333 63 73 83c34 23.333 75 35 123 35c55.333 0 99.666 -15.333 132.999 -46c37.333 -34.667 56 -82.667 56 -144c0 -44 -7.66699 -84.667 -23 -122s-36.666 -66.333 -63.999 -87c-33.333 -25.333 -78.666 -38 -135.999 -38
c-56 0 -99.333 16 -130 48c-42 44 -57.333 105.333 -46 184h324c2.66699 22 0.5 43 -6.5 63s-16.833 36 -29.5 48c-21.333 20 -49.333 30 -84 30c-33.333 0 -62.333 -10 -87 -30c-16 -12.667 -31.667 -31.667 -47 -57zM378.999 160l-244.001 0.000976562
c1.33301 -33.333 12 -60 32 -80c18.667 -18.667 46 -28 82 -28c32.667 0 60.334 8.66699 83.001 26c25.333 19.333 41 46.666 47 81.999z" />
    <glyph glyph-name="Gcaron" unicode="&#x1e6;" horiz-adv-x="760" 
d="M465 265l7.99902 69.999h278l-2 -16c-12.667 -98.667 -45.334 -176 -98.001 -232c-61.333 -66 -142.666 -99 -243.999 -99c-93.333 0 -169.333 29.333 -228 88s-88 133 -88 223c0 108 36.667 198.667 110 272c70.667 71.333 162.334 107 275.001 107
c68.667 0 127 -15.333 175 -46c39.333 -24 71 -57 95 -99l-61 -50c-18.667 36.667 -45.667 66.334 -81 89.001c-37.333 24 -80.333 36 -129 36c-89.333 0 -162.333 -27.667 -219 -83c-29.333 -29.333 -51.5 -64 -66.5 -104s-22.5 -80 -22.5 -120
c0 -69.333 23 -127.666 69 -174.999c44 -45.333 103.333 -68 178 -68s134 22.667 178 68c35.333 35.333 59 81.666 71 138.999h-198zM484.999 804.999l97 76l51 -41l-154 -119l-126 119l53 41z" />
    <glyph glyph-name="gcaron" unicode="&#x1e7;" horiz-adv-x="526" 
d="M430 356l7.00098 58.999h72l-49 -405c-3.33301 -28.667 -6.5 -50.834 -9.5 -66.501s-9.16699 -34.667 -18.5 -57s-21.666 -41.166 -36.999 -56.499c-38.667 -40 -92.667 -60 -162 -60c-60.667 0 -107.334 16.333 -140.001 49c-31.333 32 -47 77 -47 135v6h71v-4
c0 -41.333 11 -72.333 33 -93c20.667 -19.333 49.334 -29 86.001 -29c45.333 0 80.333 12.333 105 37c11.333 11.333 20.5 25.5 27.5 42.5s11.333 30.667 13 41s3.5 24.833 5.5 43.5l6 60c-14 -22 -33.667 -39.333 -59 -52c-25.333 -12 -52 -18 -80 -18
c-58 0 -103.667 17.667 -137 53c-34.667 35.333 -52 82.333 -52 141c0 75.333 22.333 136 67 182c39.333 40.667 90.666 61 153.999 61c37.333 0 68 -6.66699 92 -20c21.333 -11.333 38.666 -27.666 51.999 -48.999zM294.001 360.999c-39.333 0 -72.667 -12.667 -100 -38
c-36 -34 -54 -79.333 -54 -136c0 -43.333 12.333 -77.333 37 -102c22 -22 50.333 -33 85 -33c41.333 0 75.333 12 102 36c17.333 15.333 30.5 36 39.5 62s13.5 51.333 13.5 76c0 40.667 -12 74 -36 100c-22 23.333 -51 35 -87 35zM316 572.999l102 81l46 -36l-153 -121
l-123 121l46 36z" />
    <glyph glyph-name="AEacute" unicode="&#x1fc;" horiz-adv-x="900" 
d="M538 0l-56 187h-284l-102 -187h-82l379 667h293l20 -70h-269l59 -198h264l20 -70h-262l77 -259h271l20 -70h-348zM239 257h223l-78 261zM640 882l65 -45l-168 -117l-39 32z" />
    <glyph glyph-name="aeacute" unicode="&#x1fd;" horiz-adv-x="776" 
d="M415 348c17.333 22.667 39.3359 40.998 66.0029 54.998c29.333 14.667 61.666 22 96.999 22c56.667 0 100.667 -16.333 132 -49c40.667 -42 56.334 -102.667 47.001 -182h-327v-8c0 -42.667 12.333 -77 37 -103c20.667 -20.667 48 -31 82 -31s62 7.66699 84 23
c20.667 14.667 38.667 36 54 64l61 -33c-22.667 -38 -48.334 -66.667 -77.001 -86c-30.667 -21.333 -70.667 -32 -120 -32c-42 0 -76.333 8 -103 24c-22 12.667 -41.333 32.334 -58 59.001c-17.333 -28 -39 -48.667 -65 -62c-26 -14 -60.667 -21 -104 -21
c-50.667 0 -89.334 9.66699 -116.001 29c-32 21.333 -48 53 -48 95c0 48.667 19.333 86.667 58 114c32 22.667 74.333 34 127 34c46.667 0 87 -11.667 121 -35c5.33301 54.667 -3.33398 92 -26.001 112c-17.333 16 -45.333 24 -84 24c-38 0 -79 -8.66699 -123 -26l8 68
c42 14.667 84.667 22 128 22c40 0 73 -7.33301 99 -22c23.333 -13.333 40 -31.666 50 -54.999zM240.003 195.998c-35.333 0 -63.001 -7.66602 -83.001 -22.999c-18 -13.333 -27 -31 -27 -53c0 -21.333 9 -38.333 27 -51c16.667 -11.333 41.667 -17 75 -17
c28 0 53.333 5.66699 76 17c25.333 14 38 34.667 38 62c0 21.333 -10 37.666 -30 48.999c-17.333 10.667 -42.666 16 -75.999 16zM443.002 253.999h246.999c-0.666992 32.667 -12.334 59.667 -35.001 81c-18.667 17.333 -44.667 26 -78 26
c-39.333 0 -70.666 -11.667 -93.999 -35c-19.333 -19.333 -32.666 -43.333 -39.999 -72zM532.001 665.999l70 -34l-151 -135l-42 24z" />
    <glyph glyph-name="Scommaaccent" unicode="&#x218;" horiz-adv-x="518" 
d="M513 574l-63.001 -39c-7.33301 20.667 -19.666 38 -36.999 52c-18.667 14 -43.667 21 -75 21c-34.667 0 -62.667 -9.33301 -84 -28c-23.333 -21.333 -35 -47.666 -35 -78.999c0 -24 9.33301 -44.333 28 -61c11.333 -10 30 -21.667 56 -35l60 -28
c35.333 -16 63.666 -35 84.999 -57c30 -30.667 45 -69.667 45 -117c0 -62 -18.667 -112.333 -56 -151c-41.333 -42.667 -99 -64 -173 -64c-58.667 0 -104.667 16.667 -138 50c-32.667 33.333 -51.334 74 -56.001 122l74 20c2 -35.333 14 -64.333 36 -87
c22.667 -23.333 54.334 -35 95.001 -35c45.333 0 80 12.333 104 37s36 57 36 97c0 35.333 -12 63.666 -36 84.999c-13.333 12.667 -35 26 -65 40l-53 25c-35.333 15.333 -61.666 32.333 -78.999 51c-25.333 26.667 -38 61 -38 103c0 50 17.333 92 52 126
c38 37.333 87 56 147 56c45.333 0 82 -9.33301 110 -28c27.333 -18 47.333 -43.333 60 -76zM160.999 -206l76 156l64 -30l-92 -150z" />
    <glyph glyph-name="scommaaccent" unicode="&#x219;" horiz-adv-x="350" 
d="M339 350l-62.999 -30.9971c-3.33301 10.667 -9 20 -17 28c-9.33301 9.33301 -21.333 14 -36 14c-16 0 -29.333 -4.33301 -40 -13c-10.667 -10 -16 -22.333 -16 -37c0 -11.333 4 -21 12 -29c6 -6 19.667 -14 41 -24l38 -19c21.333 -10.667 39 -23 53 -37
c18 -20 27 -44.667 27 -74c0 -38.667 -11.667 -70.667 -35 -96c-27.333 -29.333 -67 -44 -119 -44c-36 0 -65 9 -87 27c-24 20 -40.333 46.333 -49 79l63 26c5.33301 -20.667 13.666 -37 24.999 -49c12.667 -12.667 29.334 -19 50.001 -19c24 0 42.667 6 56 18
c14 13.333 21 31 21 53c0 17.333 -7.33301 31.666 -22 42.999c-6.66699 5.33301 -21 13.666 -43 24.999l-23 11c-24.667 12 -43 24.667 -55 38c-15.333 17.333 -23 39 -23 65c0 33.333 11.667 61.666 35 84.999s54.666 35 93.999 35c29.333 0 54.333 -8.33301 75 -25
c17.333 -14 30 -30.667 38 -50zM81.001 -205.997l76 156l64 -30l-92 -150z" />
    <glyph glyph-name="Tcommaaccent" unicode="&#x21a;" horiz-adv-x="426" 
d="M485 597h-162l-73 -597h-74l73 597h-162l9 70h398zM121 -206l76 156l64 -30l-92 -150z" />
    <glyph glyph-name="tcommaaccent" unicode="&#x21b;" horiz-adv-x="214" 
d="M257 349h-72l-43 -349h-72l43 349h-44l8 66h44l18 150h72l-18 -150h72zM21 -206l76 156l64 -30l-92 -150z" />
    <glyph glyph-name="uni0228" unicode="&#x228;" horiz-adv-x="482" 
d="M514 667l-9 -70h-272l-24 -198h264l-9 -70h-264l-31 -259h272l-9 -70h-346l82 667h346zM249 -52l66 -30l-120 -128l-47 26z" />
    <glyph glyph-name="uni0229" unicode="&#x229;" horiz-adv-x="483" 
d="M395 139l61.001 -32.999c-22.667 -38 -48.334 -66.667 -77.001 -86c-32.667 -21.333 -72.667 -32 -120 -32c-58 0 -103.667 17.333 -137 52c-36.667 38 -55 87.667 -55 149c0 71.333 23.667 130.666 71 177.999c38.667 38.667 87 58 145 58
c57.333 0 102.333 -16.333 135 -49c40.667 -42 56.334 -103 47.001 -183h-323c-0.666992 -48 11.666 -84.667 36.999 -110c20.667 -20.667 48 -31 82 -31c31.333 0 58 7.66699 80 23c20.667 14.667 38.667 36 54 64zM154.001 253.001l241.998 0.000976562
c-1.33301 33.333 -13 60.666 -35 81.999c-18 17.333 -43.333 26 -76 26c-37.333 0 -67.666 -11.667 -90.999 -35c-19.333 -20 -32.666 -44.333 -39.999 -73zM251.999 -51.998l62 -27l-116 -128l-46 24z" />
    <glyph glyph-name="uni0237" unicode="&#x237;" horiz-adv-x="207" 
d="M119 415h72l-80 -645h-72z" />
    <glyph glyph-name="uni0259" unicode="&#x259;" horiz-adv-x="483" 
d="M138 274l-56.001 33c20 35.333 44.333 63 73 83c34 23.333 75 35 123 35c55.333 0 99.666 -15.333 132.999 -46c37.333 -34.667 56 -82.667 56 -144c0 -44 -7.66699 -84.667 -23 -122s-36.666 -66.333 -63.999 -87c-33.333 -25.333 -78.666 -38 -135.999 -38
c-56 0 -99.333 16 -130 48c-42 44 -57.333 105.333 -46 184h324c2.66699 22 0.5 43 -6.5 63s-16.833 36 -29.5 48c-21.333 20 -49.333 30 -84 30c-33.333 0 -62.333 -10 -87 -30c-16 -12.667 -31.667 -31.667 -47 -57zM378.999 160l-244.001 0.000976562
c1.33301 -33.333 12 -60 32 -80c18.667 -18.667 46 -28 82 -28c32.667 0 60.334 8.66699 83.001 26c25.333 19.333 41 46.666 47 81.999z" />
    <glyph glyph-name="afii57929" unicode="&#x2bc;" 
d="M220 532l76 158l64 -30l-94 -150z" />
    <glyph glyph-name="circumflex" unicode="&#x2c6;" 
d="M325 578l-102 -81l-46 36l153 121l123 -121l-46 -36z" />
    <glyph glyph-name="caron" unicode="&#x2c7;" 
d="M316 573l102 81l46 -36l-153 -121l-123 121l46 36z" />
    <glyph glyph-name="uni02C9" unicode="&#x2c9;" 
d="M162 513l7 60h302l-7 -60h-302z" />
    <glyph glyph-name="breve" unicode="&#x2d8;" 
d="M181 617h59.0029c3.33301 -18.667 10.666 -33 21.999 -43c12.667 -11.333 30.667 -17 54 -17c25.333 0 45.666 6 60.999 18c14 10.667 24.333 24.667 31 42h63c-9.33301 -32 -24.333 -58.333 -45 -79c-27.333 -27.333 -63.333 -41 -108 -41
c-42.667 0 -75.334 10.667 -98.001 32c-24 22.667 -37 52 -39 88z" />
    <glyph glyph-name="dotaccent" unicode="&#x2d9;" 
d="M265 546c0 17.333 5.66699 31.668 17 43.001s25.333 17 42 17c14 0 25.333 -4.33301 34 -13s13 -20.334 13 -35.001c0 -16.667 -5.66699 -30.667 -17 -42c-10.667 -10.667 -24 -16 -40 -16s-28.333 4.33301 -37 13c-8 10.667 -12 21.667 -12 33z" />
    <glyph glyph-name="ring" unicode="&#x2da;" 
d="M235 575c0 30 8.99902 53.334 26.999 70.001c16 16 37 24 63 24s46.333 -7.33301 61 -22s22 -34.667 22 -60c0 -26.667 -8.33301 -48.334 -25 -65.001c-17.333 -16.667 -39.666 -25 -66.999 -25c-25.333 0 -45 7 -59 21c-14.667 14.667 -22 33.667 -22 57z
M279.999 579.001c0 -10.667 3.33398 -19.333 10.001 -26c6.66699 -8 16.667 -12 30 -12c12.667 0 23 4 31 12c8.66699 8.66699 13 20 13 34c0 12.667 -3.66699 22 -11 28c-6.66699 6.66699 -16.334 10 -29.001 10s-23 -4 -31 -12c-8.66699 -8.66699 -13 -20 -13 -34z" />
    <glyph glyph-name="ogonek" unicode="&#x2db;" 
d="M350 -117l-15.002 -55.002c-18 -9.33301 -38 -14 -60 -14c-25.333 0 -46.333 7.66699 -63 23c-14 14 -21 30.667 -21 50c0 26.667 10.667 51.334 32 74.001c14.667 15.333 32.334 28.333 53.001 39h58c-23.333 -14.667 -40.666 -27.667 -51.999 -39
c-19.333 -19.333 -29 -38.333 -29 -57c0 -9.33301 2.66699 -16.666 8 -21.999c8 -8 20.667 -12 38 -12c16 0 33 4.33301 51 13z" />
    <glyph glyph-name="tilde" unicode="&#x2dc;" 
d="M199 497l-38 34.001c10.667 16 24 31 40 45c19.333 16 40 24 62 24c18 0 39.667 -6.66699 65 -20l17 -9c14.667 -7.33301 27 -11 37 -11c13.333 0 25 5 35 15c6 7.33301 12.667 16.666 20 27.999l37 -34c-12 -21.333 -24 -37 -36 -47c-16.667 -14.667 -37 -22 -61 -22
c-16.667 0 -35 4.66699 -55 14l-22 11c-21.333 10 -36 15 -44 15c-12 0 -23.333 -5.33301 -34 -16c-12 -10.667 -19.667 -19.667 -23 -27z" />
    <glyph glyph-name="hungarumlaut" unicode="&#x2dd;" 
d="M332 666l68 -32l-154 -136l-38 23zM466 666l66 -32l-152 -136l-38 23z" />
    <glyph glyph-name="acutecomb" unicode="&#x301;" horiz-adv-x="2" 
d="M-128 666l70 -34l-151 -135l-42 24z" />
    <glyph glyph-name="uni0394" unicode="&#x394;" horiz-adv-x="668" 
d="M640 0h-612l268 667h76zM334 574l-200 -504h400z" />
    <glyph glyph-name="uni0394" unicode="&#x2206;" horiz-adv-x="668" 
d="M640 0h-612l268 667h76zM334 574l-200 -504h400z" />
    <glyph glyph-name="uni03A9" unicode="&#x3a9;" horiz-adv-x="623" 
d="M379 0l-0.00195312 70c56.667 30 101 67.667 133 113c34 49.333 51 105.666 51 168.999c0 83.333 -25.333 149 -76 197c-42 39.333 -93 59 -153 59s-111 -19.667 -153 -59c-50.667 -48 -76 -113.667 -76 -197c0 -63.333 17 -119.666 51 -168.999
c32 -45.333 76.333 -83 133 -113v-70h-260v70h179c-49.333 26 -89.666 60.333 -120.999 103c-38.667 53.333 -58 115.333 -58 186c0 98 30.667 177 92 237c54.667 54.667 125.667 82 213 82s158.333 -27.333 213 -82c61.333 -60 92 -139 92 -237
c0 -70.667 -19.333 -132.667 -58 -186c-31.333 -42.667 -71.666 -77 -120.999 -103h179v-70h-260z" />
    <glyph glyph-name="uni03A9" unicode="&#x2126;" horiz-adv-x="623" 
d="M379 0l-0.00195312 70c56.667 30 101 67.667 133 113c34 49.333 51 105.666 51 168.999c0 83.333 -25.333 149 -76 197c-42 39.333 -93 59 -153 59s-111 -19.667 -153 -59c-50.667 -48 -76 -113.667 -76 -197c0 -63.333 17 -119.666 51 -168.999
c32 -45.333 76.333 -83 133 -113v-70h-260v70h179c-49.333 26 -89.666 60.333 -120.999 103c-38.667 53.333 -58 115.333 -58 186c0 98 30.667 177 92 237c54.667 54.667 125.667 82 213 82s158.333 -27.333 213 -82c61.333 -60 92 -139 92 -237
c0 -70.667 -19.333 -132.667 -58 -186c-31.333 -42.667 -71.666 -77 -120.999 -103h179v-70h-260z" />
    <glyph glyph-name="pi" unicode="&#x3c0;" horiz-adv-x="530" 
d="M217 0h-72v349h-74v66h482v-66h-74v-349h-72v349h-190v-349z" />
    <glyph glyph-name="afii10023" unicode="&#x401;" horiz-adv-x="482" 
d="M514 667l-9 -70h-272l-24 -198h264l-9 -70h-264l-31 -259h272l-9 -70h-346l82 667h346zM399 778c0 14.667 4.99902 27.333 14.999 38c12 12.667 26 19 42 19c12 0 22.667 -4 32 -12c8.66699 -8.66699 13 -19 13 -31c0 -16 -5.33301 -30 -16 -42
c-11.333 -11.333 -24.666 -17 -39.999 -17c-14 0 -25.333 4.33301 -34 13c-8 8 -12 18.667 -12 32zM208.999 777.999c0 14.667 4.99902 27.333 14.999 38c12 12.667 26 19 42 19c12 0 22.667 -4 32 -12c8.66699 -8.66699 13 -19 13 -31c0 -16 -5.33301 -30 -16 -42
c-11.333 -11.333 -24.666 -17 -39.999 -17c-14 0 -25.333 4.33301 -34 13c-8 8 -12 18.667 -12 32z" />
    <glyph glyph-name="afii10051" unicode="&#x402;" horiz-adv-x="648" 
d="M523 597l-202.001 0.00195312l-26 -212c42.667 15.333 87.334 23 134.001 23c62 0 110 -16.333 144 -49c37.333 -34.667 56 -86.667 56 -156c0 -30.667 -5.16699 -60.334 -15.5 -89.001s-25.166 -52.334 -44.499 -71.001c-34 -33.333 -83.333 -50 -148 -50
c-26.667 0 -54.334 2.66699 -83.001 8l9 69c24 -4.66699 47 -7 69 -7c42 0 74.333 10.667 97 32c25.333 23.333 38 59.333 38 108c0 42.667 -10.333 75.667 -31 99c-22 24 -56.667 36 -104 36c-44.667 0 -87.667 -7.66699 -129 -23l-39 -315h-74l73 597h-160l9 70h436z" />
    <glyph glyph-name="afii10052" unicode="&#x403;" horiz-adv-x="404" 
d="M86 0l82 667h304l-9 -70h-230l-73 -597h-74zM430 882l65 -45l-168 -117l-39 32z" />
    <glyph glyph-name="afii10053" unicode="&#x404;" horiz-adv-x="650" 
d="M675 612l-11.002 -92.001c-21.333 24.667 -47.333 45 -78 61c-34.667 18 -72 27 -112 27c-76 0 -141 -21.667 -195 -65s-86.667 -97.666 -98 -162.999h385l-9 -70h-387c-0.666992 -75.333 22.333 -137 69 -185c43.333 -44.667 99.333 -67 168 -67
c48.667 0 91 9.33301 127 28c30 15.333 58 35 84 59l-11 -92c-32 -22 -60.333 -37.667 -85 -47c-32.667 -12 -72.667 -18 -120 -18c-94 0 -169.667 30 -227 90c-56 58.667 -84 132.667 -84 222c0 112.667 37.333 205 112 277c69.333 67.333 159.333 101 270 101
c50.667 0 94.334 -7.66699 131.001 -23c22.667 -10 46.334 -24.333 71.001 -43z" />
    <glyph glyph-name="afii10054" unicode="&#x405;" horiz-adv-x="518" 
d="M513 574l-63.001 -39c-7.33301 20.667 -19.666 38 -36.999 52c-18.667 14 -43.667 21 -75 21c-34.667 0 -62.667 -9.33301 -84 -28c-23.333 -21.333 -35 -47.666 -35 -78.999c0 -24 9.33301 -44.333 28 -61c11.333 -10 30 -21.667 56 -35l60 -28
c35.333 -16 63.666 -35 84.999 -57c30 -30.667 45 -69.667 45 -117c0 -62 -18.667 -112.333 -56 -151c-41.333 -42.667 -99 -64 -173 -64c-58.667 0 -104.667 16.667 -138 50c-32.667 33.333 -51.334 74 -56.001 122l74 20c2 -35.333 14 -64.333 36 -87
c22.667 -23.333 54.334 -35 95.001 -35c45.333 0 80 12.333 104 37s36 57 36 97c0 35.333 -12 63.666 -36 84.999c-13.333 12.667 -35 26 -65 40l-53 25c-35.333 15.333 -61.666 32.333 -78.999 51c-25.333 26.667 -38 61 -38 103c0 50 17.333 92 52 126
c38 37.333 87 56 147 56c45.333 0 82 -9.33301 110 -28c27.333 -18 47.333 -43.333 60 -76z" />
    <glyph glyph-name="afii10055" unicode="&#x406;" horiz-adv-x="246" 
d="M168 667h74l-82 -667h-74z" />
    <glyph glyph-name="afii10056" unicode="&#x407;" horiz-adv-x="246" 
d="M168 667h74l-82 -667h-74zM234 778c0 18 5.99902 32.668 17.999 44.001c8.66699 8.66699 19.667 13 33 13c11.333 0 21 -4 29 -12c8 -8.66699 12 -20.334 12 -35.001c0 -15.333 -5.33301 -29 -16 -41c-9.33301 -9.33301 -20.666 -14 -33.999 -14c-12 0 -22 4 -30 12
s-12 19 -12 33zM111.999 778.001c0 18 5.99902 32.668 17.999 44.001c8.66699 8.66699 19.667 13 33 13c11.333 0 21 -4 29 -12c8 -8.66699 12 -20.334 12 -35.001c0 -15.333 -5.33301 -29 -16 -41c-9.33301 -9.33301 -20.666 -14 -33.999 -14c-12 0 -22 4 -30 12
s-12 19 -12 33z" />
    <glyph glyph-name="afii10057" unicode="&#x408;" horiz-adv-x="299" 
d="M221 667h74l-59 -482c-9.33301 -76.667 -27.666 -128.667 -54.999 -156s-66 -41 -116 -41c-24.667 0 -47 5 -67 15c-18 8.66699 -33.333 20 -46 34l48 58c6.66699 -8 16.667 -16.333 30 -25c14 -8 28.333 -12 43 -12c21.333 0 38.666 6.66699 51.999 20
c18 18 30.333 53.667 37 107z" />
    <glyph glyph-name="afii10058" unicode="&#x409;" horiz-adv-x="924" 
d="M486 0l71.999 597.002h-257l-39 -319c-14.667 -118.667 -41 -197 -79 -235c-31.333 -32.667 -73.666 -49 -126.999 -49c-14.667 0 -28.667 2 -42 6l9 70c10.667 -4 21.667 -6 33 -6c28.667 0 53 9.33301 73 28c12 11.333 22.167 27.166 30.5 47.499s14 39.5 17 57.5
s6.5 42 10.5 72l49 398h406l-34 -277h74c83.333 0 143.333 -18.667 180 -56c30 -30.667 45 -70.334 45 -119.001c0 -66.667 -20.333 -119 -61 -157c-41.333 -38.667 -106 -58 -194 -58h-166zM598.999 320.002l-30 -250h86c62 0 106.333 11.333 133 34
c28 24.667 42 59 42 103c0 41.333 -15 72 -45 92c-20 14 -56.667 21 -110 21h-76z" />
    <glyph glyph-name="afii10059" unicode="&#x40a;" horiz-adv-x="939" 
d="M623 390h74c83.333 0 143.333 -18.667 180 -56c30 -30.667 45 -71 45 -121c0 -65.333 -20.333 -117 -61 -155c-41.333 -38.667 -106 -58 -194 -58h-166l40 320h-342l-39 -320h-74l82 667h74l-34 -277h342l32 277h75zM614 320l-30 -250h86c62 0 106.333 11.333 133 34
c28 23.333 42 57.333 42 102c0 43.333 -15 74.333 -45 93c-20 14 -56.667 21 -110 21h-76z" />
    <glyph glyph-name="afii10060" unicode="&#x40b;" horiz-adv-x="681" 
d="M523 597l-201.998 -0.00195312l-24 -196c33.333 4.66699 72.666 7 117.999 7c79.333 0 136.666 -12.333 171.999 -37c36.667 -25.333 55 -62 55 -110c0 -2 -2 -25 -6 -69l-24 -192h-74l23 182c3.33301 24.667 5 44.334 5 59.001c0 38.667 -15.667 65.334 -47 80.001
c-24.667 11.333 -60 17 -106 17c-42 0 -83.333 -2.33301 -124 -7l-41 -331h-74l73 597h-160l9 70h436z" />
    <glyph glyph-name="afii10061" unicode="&#x40c;" horiz-adv-x="568" 
d="M242 667l-35 -286l319 286h100l-354 -312l278 -355h-98l-235 306l-22 -19l-35 -287h-74l82 667h74zM474 882l65 -45l-168 -117l-39 32z" />
    <glyph glyph-name="afii10062" unicode="&#x40e;" horiz-adv-x="568" 
d="M90 667h85l160 -393l222 393h85l-383 -667h-80l108 186zM221 818l71.002 23c3.33301 -16.667 11.333 -30 24 -40c13.333 -10.667 32.666 -16 57.999 -16c24.667 0 44.667 5.33301 60 16c15.333 10 24.666 23.333 27.999 40l67 -23
c-10.667 -32 -31.334 -56.667 -62.001 -74c-27.333 -15.333 -59 -23 -95 -23c-45.333 0 -81.333 10.667 -108 32c-21.333 17.333 -35.666 39 -42.999 65z" />
    <glyph glyph-name="afii10145" unicode="&#x40f;" horiz-adv-x="658" 
d="M86 0l82 667h74l-73 -597h338l73 597h74l-82 -667h-208l-19 -160h-70l19 160h-208z" />
    <glyph glyph-name="afii10017" unicode="&#x410;" horiz-adv-x="622" 
d="M534 0l-55 188h-284l-103 -188h-84l393 699l213 -699h-80zM233 258h226l-80 267z" />
    <glyph glyph-name="afii10018" unicode="&#x411;" horiz-adv-x="532" 
d="M86 0l82 667h331l-9 -70h-257l-25 -207h72c86.667 0 148 -18.667 184 -56c28.667 -29.333 43 -69.333 43 -120c0 -66 -18.333 -116.667 -55 -152c-42 -41.333 -108 -62 -198 -62h-168zM199 320l-29.999 -249.999h94c59.333 0 102.666 13 129.999 39
c24.667 23.333 37 55.666 37 96.999s-14 72 -42 92c-22 14.667 -56.667 22 -104 22h-85z" />
    <glyph glyph-name="afii10019" unicode="&#x412;" horiz-adv-x="532" 
d="M168 667l109.001 -0.000976562c76.667 0 132 -17.667 166 -53c26 -26 39 -61.333 39 -106c0 -36.667 -7.66699 -68.667 -23 -96c-13.333 -24 -34 -42.667 -62 -56c27.333 -11.333 49.666 -25.666 66.999 -42.999c27.333 -28 41 -65 41 -111
c0 -63.333 -20.333 -112.333 -61 -147c-42.667 -36.667 -104 -55 -184 -55h-174zM233.001 596.999l-27 -223.001h48c52.667 0 92 11.333 118 34c24 20.667 36 50.334 36 89.001c0 34.667 -12.333 60.667 -37 78c-20 14.667 -49.667 22 -89 22h-49zM198.001 307.998
l-29.001 -238h90c56.667 0 98.334 9.66699 125.001 29c30.667 22 46 55 46 99c0 41.333 -16.333 71.333 -49 90c-22.667 13.333 -58.667 20 -108 20h-75z" />
    <glyph glyph-name="afii10020" unicode="&#x413;" horiz-adv-x="404" 
d="M86 0l82 667h304l-9 -70h-230l-73 -597h-74z" />
    <glyph glyph-name="afii10021" unicode="&#x414;" horiz-adv-x="640" 
d="M226 667h406.001l-73 -597h76l-26 -210h-70l17 140h-472l-17 -140h-70l26 210c31.333 4 58.666 17.667 81.999 41c40 40 66.667 114.667 80 224zM291.001 597l-32 -262c-10 -80 -24.333 -139.667 -43 -179c-16 -34 -38.333 -62.667 -67 -86h336l64 527h-258z" />
    <glyph glyph-name="afii10022" unicode="&#x415;" horiz-adv-x="482" 
d="M514 667l-9 -70h-272l-24 -198h264l-9 -70h-264l-31 -259h272l-9 -70h-346l82 667h346z" />
    <glyph glyph-name="afii10024" unicode="&#x416;" horiz-adv-x="810" 
d="M450 667h74l-35 -286l289 286h92l-320 -311l244 -356h-92l-207 305l-18 -18l-35 -287h-74l35 287l-14 18l-281 -305h-94l334 356l-242 311h90l219 -286z" />
    <glyph glyph-name="afii10025" unicode="&#x417;" horiz-adv-x="555" 
d="M202 536l-54.001 44.998c23.333 29.333 50 52.333 80 69c34.667 18.667 74 28 118 28c60 0 106.333 -16.667 139 -50c26.667 -27.333 40 -61.666 40 -102.999c0 -47.333 -11.667 -85 -35 -113c-18 -22 -43.333 -38.333 -76 -49c30.667 -6 55.667 -19.333 75 -40
c26.667 -26.667 40 -64 40 -112c0 -64 -20.667 -116.667 -62 -158c-44 -43.333 -105 -65 -183 -65c-66 0 -118.667 15.333 -158 46c-15.333 12 -29.166 27.333 -41.499 46s-20.833 33.334 -25.5 44.001s-7.66699 18.667 -9 24l71 32c10 -35.333 27.333 -64 52 -86
c28 -24 66.333 -36 115 -36c50.667 0 90.667 14 120 42s44 64 44 108c0 39.333 -14.333 69 -43 89c-25.333 16.667 -62.666 25 -111.999 25h-68l8 70h55c52.667 0 92 11 118 33c25.333 22 38 51 38 87c0 28.667 -10.333 52 -31 70c-21.333 17.333 -48.666 26 -81.999 26
c-30.667 0 -57.334 -7.33301 -80.001 -22c-18.667 -11.333 -36.334 -28 -53.001 -50z" />
    <glyph glyph-name="afii10026" unicode="&#x418;" horiz-adv-x="710" 
d="M550 0l62 509l-530 -539l86 697h74l-63 -511l530 539l-85 -695h-74z" />
    <glyph glyph-name="afii10027" unicode="&#x419;" horiz-adv-x="710" 
d="M550 0l62 509l-530 -539l86 697h74l-63 -511l530 539l-85 -695h-74zM303 818l71.002 23c3.33301 -16.667 11.333 -30 24 -40c13.333 -10.667 32.666 -16 57.999 -16c24.667 0 44.667 5.33301 60 16c15.333 10 24.666 23.333 27.999 40l67 -23
c-10.667 -32 -31.334 -56.667 -62.001 -74c-27.333 -15.333 -59 -23 -95 -23c-45.333 0 -81.333 10.667 -108 32c-21.333 17.333 -35.666 39 -42.999 65z" />
    <glyph glyph-name="afii10028" unicode="&#x41a;" horiz-adv-x="568" 
d="M242 667l-35 -286l319 286h100l-354 -312l278 -355h-98l-235 306l-22 -19l-35 -287h-74l82 667h74z" />
    <glyph glyph-name="afii10029" unicode="&#x41b;" horiz-adv-x="646" 
d="M236 667l405.999 0.000976562l-82 -667h-74l73 597h-258l-39 -319c-14.667 -118.667 -41 -197 -79 -235c-31.333 -32.667 -73.666 -49 -126.999 -49c-14.667 0 -28.667 2 -42 6l9 70c10.667 -4 21.667 -6 33 -6c28.667 0 53 9.33301 73 28
c12 11.333 22.167 27.166 30.5 47.499s14 39.5 17 57.5s6.5 42 10.5 72z" />
    <glyph glyph-name="afii10030" unicode="&#x41c;" horiz-adv-x="863" 
d="M140 0h-77l197 704l187 -563l331 564l17 -705h-75l-6 464l-287 -492l-164 492z" />
    <glyph glyph-name="afii10031" unicode="&#x41d;" horiz-adv-x="662" 
d="M242 667l-33 -271h342l33 271h74l-82 -667h-74l40 326h-342l-40 -326h-74l82 667h74z" />
    <glyph glyph-name="afii10032" unicode="&#x41e;" horiz-adv-x="800" 
d="M399 -12c-92 0 -166.001 28.999 -222.001 86.999c-57.333 58.667 -86 132.334 -86 221.001c0 112.667 38 205 114 277c72.667 70 164 105 274 105c92.667 0 167.334 -28 224.001 -84c58.667 -57.333 88 -130 88 -218c0 -53.333 -9.5 -105 -28.5 -155
s-46.833 -92.667 -83.5 -128c-72.667 -70 -166 -105 -280 -105zM470.999 607.999c-83.333 0 -153.667 -26.334 -211 -79.001c-61.333 -57.333 -92 -130.333 -92 -219c0 -75.333 23 -136.666 69 -183.999c44 -45.333 100.667 -68 170 -68c89.333 0 161.333 26.667 216 80
c28.667 28 51 62.167 67 102.5s24 80.833 24 121.5c0 72 -23.333 131.333 -70 178c-45.333 45.333 -103 68 -173 68z" />
    <glyph glyph-name="afii10033" unicode="&#x41f;" horiz-adv-x="662" 
d="M168 667h490l-82 -667h-74l73 597h-342l-73 -597h-74z" />
    <glyph glyph-name="afii10034" unicode="&#x420;" horiz-adv-x="457" 
d="M168 667h121c72 0 125.667 -17 161 -51c30.667 -29.333 46 -71.333 46 -126c0 -60 -18 -107.333 -54 -142c-40 -38.667 -103 -58 -189 -58h-57l-36 -290h-74zM233 597l-28.999 -237h63c54 0 94 12 120 36c24 21.333 36 52 36 92c0 38.667 -12.333 67 -37 85
c-20.667 16 -53.334 24 -98.001 24h-55z" />
    <glyph glyph-name="afii10035" unicode="&#x421;" horiz-adv-x="650" 
d="M675 612l-11.002 -92.002c-23.333 26 -49.333 46.333 -78 61c-35.333 18 -73 27 -113 27c-86.667 0 -159 -29 -217 -87c-58 -59.333 -87 -130.666 -87 -213.999c0 -70.667 23.333 -130.667 70 -180c44 -46 100 -69 168 -69c48.667 0 91 9.33301 127 28
c30 15.333 58 35 84 59l-11 -92c-32 -22 -60.333 -37.667 -85 -47c-32.667 -12 -72.667 -18 -120 -18c-94 0 -169.667 29.333 -227 88c-56 56.667 -84 131 -84 223c0 112.667 37.333 205.334 112 278.001c69.333 67.333 159.333 101 270 101
c50.667 0 94.334 -7.66699 131.001 -23c22.667 -10 46.334 -24.333 71.001 -43z" />
    <glyph glyph-name="afii10036" unicode="&#x422;" horiz-adv-x="426" 
d="M485 597h-162l-73 -597h-74l73 597h-162l9 70h398z" />
    <glyph glyph-name="afii10037" unicode="&#x423;" horiz-adv-x="568" 
d="M90 667h85l160 -393l222 393h85l-383 -667h-80l108 186z" />
    <glyph glyph-name="afii10038" unicode="&#x424;" horiz-adv-x="826" 
d="M376 0l11.999 93.999h-6c-103.333 0 -180 25 -230 75c-39.333 40.667 -59 94.667 -59 162c0 80 27.333 146.333 82 199c32 31.333 69.167 53.166 111.5 65.499s93.5 18.5 153.5 18.5h11l10 80h74l-10 -80h5c100.667 0 176 -24.333 226 -73
c42 -41.333 63 -94.666 63 -159.999c0 -83.333 -27 -150.666 -81 -201.999c-61.333 -56.667 -150.666 -85 -267.999 -85h-8l-12 -94h-74zM395.999 163.999l47 380.001h-20c-86.667 0 -151.667 -21.333 -195 -64c-38.667 -38.667 -58 -88.334 -58 -149.001
c0 -54 18.333 -95.667 55 -125c34.667 -28 87.667 -42 159 -42h12zM516.999 544l-47 -380h20c72 0 129 14.333 171 43c54.667 37.333 82 93 82 167c0 55.333 -19.667 98.333 -59 129c-34.667 27.333 -86 41 -154 41h-13z" />
    <glyph glyph-name="afii10039" unicode="&#x425;" horiz-adv-x="502" 
d="M14 0l239 345l-139 322h82l107 -251l173 251h84l-223 -322l151 -345h-82l-119 274l-189 -274h-84z" />
    <glyph glyph-name="afii10040" unicode="&#x426;" horiz-adv-x="662" 
d="M86 0l82 667h74l-73 -597h338l73 597h74l-73 -597h76l-26 -210h-70l17 140h-492z" />
    <glyph glyph-name="afii10041" unicode="&#x427;" horiz-adv-x="592" 
d="M432 0l35.999 292.001c-43.333 -8.66699 -82.666 -13 -117.999 -13c-69.333 0 -122.333 10.667 -159 32c-44.667 25.333 -67 64.333 -67 117c0 16.667 2 40.667 6 72l20 167h74l-20 -162c-3.33301 -28.667 -5 -48.334 -5 -59.001c0 -34 12.333 -59 37 -75
c22 -14.667 62 -22 120 -22c41.333 0 81.333 3.66699 120 11l38 307h74l-82 -667h-74z" />
    <glyph glyph-name="afii10042" unicode="&#x428;" horiz-adv-x="922" 
d="M86 0l82 667h74l-73 -597h264l73 597h74l-73 -597h264l73 597h74l-82 -667h-750z" />
    <glyph glyph-name="afii10043" unicode="&#x429;" horiz-adv-x="926" 
d="M86 0l82 667h74l-73 -597h264l73 597h74l-73 -597h264l73 597h74l-73 -597h76l-26 -210h-70l17 140h-756z" />
    <glyph glyph-name="afii10044" unicode="&#x42a;" horiz-adv-x="612" 
d="M174 0l73 597.001h-160l9 70h234l-34 -277h74c83.333 0 143.333 -18.667 180 -56c30 -30.667 45 -70.334 45 -119.001c0 -66.667 -20.333 -119 -61 -157c-41.333 -38.667 -106 -58 -194 -58h-166zM287 320.001l-30 -250h86c62 0 106.333 11.333 133 34
c28 23.333 42 57.333 42 102c0 43.333 -15 74.333 -45 93c-20 14 -56.667 21 -110 21h-76z" />
    <glyph glyph-name="afii10045" unicode="&#x42b;" horiz-adv-x="710" 
d="M632 667h74l-82 -667h-74zM86 0l81 667h75l-34 -277h74c83.333 0 143.333 -18.667 180 -56c30 -30 45 -69.667 45 -119c0 -66.667 -20.333 -119 -61 -157c-41.333 -38.667 -106 -58 -194 -58h-166zM199 320l-30 -250h86c62 0 106.333 11.333 133 34
c28 23.333 42 57.333 42 102c0 43.333 -15 74.333 -45 93c-20 14 -56.667 21 -110 21h-76z" />
    <glyph glyph-name="afii10046" unicode="&#x42c;" horiz-adv-x="524" 
d="M86 0l81 667.001h75l-34 -277h74c83.333 0 143.333 -18.667 180 -56c30 -30.667 45 -70.334 45 -119.001c0 -66.667 -20.333 -119 -61 -157c-41.333 -38.667 -106 -58 -194 -58h-166zM199 320.001l-30 -250h86c62 0 106.333 11.333 133 34c28 23.333 42 57.333 42 102
c0 43.333 -15 74.333 -45 93c-20 14 -56.667 21 -110 21h-76z" />
    <glyph glyph-name="afii10047" unicode="&#x42d;" horiz-adv-x="649" 
d="M114 520l11.002 91.999c31.333 18.667 61.333 33.334 90 44.001c39.333 14.667 80.666 22 123.999 22c89.333 0 160.666 -25 213.999 -75c58 -53.333 87 -128 87 -224c0 -128.667 -37.333 -228.667 -112 -300c-63.333 -60.667 -146 -91 -248 -91
c-51.333 0 -98 7.66699 -140 23c-29.333 10 -57 24.667 -83 44l11 90c22.667 -24 50.667 -44 84 -60c38.667 -18 83 -27 133 -27c79.333 0 142.333 23 189 69c45.333 44.667 73 105.667 83 183h-389l9 70h386c0 70 -22.333 126.667 -67 170c-39.333 38.667 -93 58 -161 58
c-48 0 -93.667 -10.333 -137 -31c-32.667 -16 -60.667 -35 -84 -57z" />
    <glyph glyph-name="afii10048" unicode="&#x42e;" horiz-adv-x="993" 
d="M208 389h100c15.333 68 46.666 127.667 93.999 179c68.667 73.333 157 110 265 110c96 0 173.333 -29.333 232 -88c56.667 -56.667 85 -131.667 85 -225c0 -112.667 -37.333 -205.667 -112 -279c-67.333 -65.333 -152.333 -98 -255 -98c-97.333 0 -175.333 31 -234 93
c-57.333 60.667 -85.666 140 -84.999 238h-99l-39 -319h-74l82 667h74zM659 608c-76.667 0 -141.666 -25.666 -194.999 -76.999c-26.667 -26 -48.334 -58.667 -65.001 -98s-25 -80.333 -25 -123c0 -72 23.333 -132.333 70 -181c45.333 -47.333 105.333 -71 180 -71
c77.333 0 141.666 24 192.999 72c26.667 24.667 48.334 57.167 65.001 97.5s25 83.833 25 130.5c0 68.667 -20.333 126 -61 172c-20.667 23.333 -47.5 42.166 -80.5 56.499s-68.5 21.5 -106.5 21.5z" />
    <glyph glyph-name="afii10049" unicode="&#x42f;" horiz-adv-x="510" 
d="M30 0l231.997 297.001c-43.333 5.33301 -79.666 22 -108.999 50c-28 27.333 -42 65.333 -42 114c0 60 18 108.667 54 146c22.667 23.333 50.334 39.166 83.001 47.499s73.334 12.5 122.001 12.5h136l-82 -667h-74l36 292h-38l-226 -292h-92zM422.997 597.001h-72.001
c-61.333 0 -104.666 -13 -129.999 -39c-21.333 -22 -32 -51.333 -32 -88c0 -42 15 -72 45 -90c24 -14.667 56 -22 96 -22h64z" />
    <glyph glyph-name="afii10065" unicode="&#x430;" horiz-adv-x="528" 
d="M432 356l7.00195 59.001h72l-51 -415h-72l7 58c-16 -22 -33.333 -38.333 -52 -49c-24.667 -14 -53.334 -21 -86.001 -21c-57.333 0 -102.333 17 -135 51c-36 38 -54 87.333 -54 148c0 77.333 24 138.666 72 183.999c38 36 87.667 54 149 54c34 0 63.333 -6.66699 88 -20
c23.333 -12 41.666 -28.333 54.999 -49zM295.002 361.001c-39.333 0 -72.667 -13.001 -100 -39.001c-35.333 -33.333 -53 -76.666 -53 -129.999c0 -46 14.333 -82.333 43 -109c21.333 -20.667 49.333 -31 84 -31c43.333 0 77.666 13.667 102.999 41
c31.333 32.667 47 77.667 47 135c0 42.667 -13 76 -39 100c-23.333 22 -51.666 33 -84.999 33z" />
    <glyph glyph-name="afii10066" unicode="&#x431;" horiz-adv-x="529" 
d="M479 700h80c-10.667 -26 -23.667 -46.333 -39 -61c-10.667 -10.667 -24 -19.834 -40 -27.501s-28.5 -12.834 -37.5 -15.501s-24.167 -6.66699 -45.5 -12c-78.667 -19.333 -132.667 -42.666 -162 -69.999c-33.333 -31.333 -59 -86.333 -77 -165h2
c13.333 18.667 30.333 34.667 51 48c30 18.667 65 28 105 28c62 0 111 -18 147 -54c34 -34 51 -79 51 -135c0 -74.667 -22.667 -134.667 -68 -180s-104.333 -68 -177 -68c-63.333 0 -112.333 19.333 -147 58c-33.333 37.333 -50 87.666 -50 150.999c0 66 9 132.333 27 199
s46 119.334 84 158.001c34 34.667 78.333 59.667 133 75l54 13c28 6.66699 48.333 12.334 61 17.001c23.333 9.33301 39.333 23 48 41zM304 361c-44.667 0 -82 -15 -112 -45c-32 -32 -48 -73.667 -48 -125c0 -45.333 13 -80.333 39 -105c23.333 -22.667 54.333 -34 93 -34
c46.667 0 85 15.333 115 46c32.667 34 49 77 49 129c0 40 -12.333 72.333 -37 97s-57.667 37 -99 37z" />
    <glyph glyph-name="afii10067" unicode="&#x432;" horiz-adv-x="431" 
d="M119 415l145 -0.00292969c38.667 0 68 -7.66699 88 -23c23.333 -18 35 -42.333 35 -73c0 -23.333 -5.33301 -42.666 -16 -57.999s-24 -26.333 -40 -33c19.333 -5.33301 35.333 -15 48 -29c16.667 -17.333 25 -39.666 25 -66.999c0 -37.333 -11.667 -67.666 -35 -90.999
c-28.667 -27.333 -69 -41 -121 -41h-107h-73zM170 245.997l76 0.000976562c24 0 42.333 5.33301 55 16c12 9.33301 18 23 18 41c0 19.333 -7.66699 32.666 -23 39.999c-10.667 5.33301 -28.667 8 -54 8h-59zM148 63.998h90.999c32 0 55 4.66699 69 14c17.333 12 26 29 26 51
c0 20 -8.33301 35.333 -25 46c-13.333 7.33301 -34.666 11 -63.999 11h-82z" />
    <glyph glyph-name="afii10068" unicode="&#x433;" horiz-adv-x="318" 
d="M68 0l51 415h246l-8 -66h-174l-43 -349h-72z" />
    <glyph glyph-name="afii10069" unicode="&#x434;" horiz-adv-x="460" 
d="M149 415l292 -0.000976562l-43 -349h62l-22 -176h-66l14 110h-316l-14 -110h-66l22 176c25.333 1.33301 47.333 11.333 66 30c11.333 11.333 20.5 25.5 27.5 42.5s11.5 30.833 13.5 41.5s4.33301 27.334 7 50.001zM326 65.999l35 283h-148l-16 -134
c-4 -40 -11.333 -70.333 -22 -91c-12 -24 -27.667 -43.333 -47 -58h198z" />
    <glyph glyph-name="afii10070" unicode="&#x435;" horiz-adv-x="483" 
d="M395 139l61.001 -32.999c-22.667 -38 -48.334 -66.667 -77.001 -86c-32.667 -21.333 -72.667 -32 -120 -32c-58 0 -103.667 17.333 -137 52c-36.667 38 -55 87.667 -55 149c0 71.333 23.667 130.666 71 177.999c38.667 38.667 87 58 145 58
c57.333 0 102.333 -16.333 135 -49c40.667 -42 56.334 -103 47.001 -183h-323c-0.666992 -48 11.666 -84.667 36.999 -110c20.667 -20.667 48 -31 82 -31c31.333 0 58 7.66699 80 23c20.667 14.667 38.667 36 54 64zM154.001 253.001l241.998 0.000976562
c-1.33301 33.333 -13 60.666 -35 81.999c-18 17.333 -43.333 26 -76 26c-37.333 0 -67.666 -11.667 -90.999 -35c-19.333 -20 -32.666 -44.333 -39.999 -73z" />
    <glyph glyph-name="afii10072" unicode="&#x436;" horiz-adv-x="596" 
d="M313 415h72l-21 -170l177 170h84l-207 -196l170 -219h-86l-133 175l-15 -14l-20 -161h-72l20 161l-13 14l-175 -175h-90l227 224l-156 191h82l135 -170z" />
    <glyph glyph-name="afii10073" unicode="&#x437;" horiz-adv-x="404" 
d="M141 309l-44.999 41.001c17.333 21.333 37 38.666 59 51.999c26 15.333 57 23 93 23c40.667 0 72.667 -11.667 96 -35c18 -19.333 27 -42.333 27 -69c0 -24 -6.33301 -44.333 -19 -61c-9.33301 -12.667 -22.666 -22.667 -39.999 -30c18 -6 33.667 -17.333 47 -34
c12.667 -16.667 19 -36 19 -58c0 -48 -17.667 -86 -53 -114c-30 -24 -72.667 -36 -128 -36c-44.667 0 -80.667 10.667 -108 32c-10 8 -19.333 18 -28 30s-14.834 21.667 -18.501 29s-5.83398 12.333 -6.50098 15l64 26c6.66699 -20 17.334 -35.667 32.001 -47
c18 -14 41.333 -21 70 -21c31.333 0 55.333 6 72 18c20 14 30 34 30 60c0 20 -8 35 -24 45c-14 8.66699 -34.333 13 -61 13h-42l8 66h35c32.667 0 55.667 6.33301 69 19c9.33301 9.33301 14 21.333 14 36c0 14 -4.66699 25.667 -14 35c-11.333 11.333 -28.333 17 -51 17
s-42.334 -5.33301 -59.001 -16c-14 -9.33301 -26.667 -21.333 -38 -36z" />
    <glyph glyph-name="afii10074" unicode="&#x438;" horiz-adv-x="492" 
d="M119 415h72l-34 -276l322 308l-55 -447h-72l34 279l-322 -308z" />
    <glyph glyph-name="afii10075" unicode="&#x439;" horiz-adv-x="492" 
d="M119 415h72l-34 -276l322 308l-55 -447h-72l34 279l-322 -308zM180 594l60.0029 23c5.33301 -19.333 14.666 -34 27.999 -44c13.333 -10.667 31.666 -16 54.999 -16c22 0 40.333 5 55 15c15.333 11.333 26 26.333 32 45l60 -23c-14 -30.667 -32 -54 -54 -70
c-25.333 -18 -56.333 -27 -93 -27c-38.667 0 -70.334 9.33301 -95.001 28c-23.333 18.667 -39.333 41.667 -48 69z" />
    <glyph glyph-name="afii10076" unicode="&#x43a;" horiz-adv-x="422" 
d="M119 415h72l-21 -170l189 170h88l-207 -187l174 -228h-90l-140 182l-24 -21l-20 -161h-72z" />
    <glyph glyph-name="afii10077" unicode="&#x43b;" horiz-adv-x="450" 
d="M433 415l-51 -414.999h-72l43 349h-148l-23 -182c-2.66699 -19.333 -5.16699 -34.833 -7.5 -46.5s-7 -25.334 -14 -41.001s-16.167 -29.167 -27.5 -40.5c-34 -34 -75.667 -47 -125 -39l8 66c23.333 -5.33301 44 -0.333008 62 15c16 14.667 27 44 33 88l30 246h292z" />
    <glyph glyph-name="afii10078" unicode="&#x43c;" horiz-adv-x="580" 
d="M20 0l155 447l130 -338l210 338l45 -447h-72l-23 257l-177 -286l-107 286l-85 -257h-76z" />
    <glyph glyph-name="afii10079" unicode="&#x43d;" horiz-adv-x="476" 
d="M68 0l51 415h72l-21 -170h196l21 170h72l-51 -415h-72l22 179h-196l-22 -179h-72z" />
    </font>
</defs>
</svg>
